<?xml version="1.0" standalone="no"?>
<!DOCTYPE svg PUBLIC "-//W3C//DTD SVG 1.1//EN" "http://www.w3.org/Graphics/SVG/1.1/DTD/svg11.dtd" >
<svg>
<metadata>
Created by FontForge 20090622 at Mon Nov 28 11:44:57 2016
 By deploy user
Copyright (c) 2014 Parachute&#194;&#174;, www.parachute.gr.  All rights reserved.
</metadata>
<defs>
<font id="PFBenchmarkPro-Medium" horiz-adv-x="620" >
  <font-face 
    font-family="PFBenchmarkPro-Medium"
    font-weight="400"
    font-stretch="normal"
    units-per-em="1000"
    panose-1="2 0 6 3 0 0 0 2 0 4"
    ascent="769"
    descent="-231"
    x-height="539"
    cap-height="736"
    bbox="-242 -305 1263 1000"
    underline-thickness="65"
    underline-position="-56"
    unicode-range="U+0020-U+FB05"
  />
<missing-glyph horiz-adv-x="476" 
d="M0 0v737h476v-737h-476zM123 81h233l-118 213zM238 444l117 212h-234zM81 572v-403l112 199zM283 367l112 -201v404z" />
    <glyph glyph-name="fj" unicode="fj" horiz-adv-x="597" 
d="M6 446v80l97 14v51q0 187 187 187q106 0 183 -19v-87h-141q-55 0 -78 -19t-23 -63v-50h301v-527q0 -87 -33 -130.5t-147 -107.5l-54 78l79 71q25 23 25 62v460h-171v-446h-128v446h-97z" />
    <glyph glyph-name="ffj" unicode="ffj" horiz-adv-x="864" 
d="M384 591q0 30 4 53h-60q-55 0 -76 -19t-21 -63v-22h153v51zM512 446v-446h-128v446h-153v-446h-128v446h-97v80l97 14v23q0 90 39 138.5t138 48.5q77 0 150 -16q46 44 137 44q96 0 173 -19v-87h-131q-55 0 -76 -19t-21 -63v-50h287v-527q0 -87 -33 -130.5t-147 -107.5
l-54 78l79 71q25 23 25 62v460h-157z" />
    <glyph glyph-name="ff" unicode="ff" horiz-adv-x="694" 
d="M6 446v80l97 14v23q0 90 39 138.5t138 48.5q83 0 155 -17q43 46 136 46q86 0 163 -19v-87h-115q-55 0 -76 -19t-21 -63v-51h158v-94h-158v-446h-128v446h-163v-446h-128v446h-97zM394 592q0 35 3 52h-69q-55 0 -76 -19t-21 -63v-22h163v52z" />
    <glyph glyph-name="fi" unicode="fi" horiz-adv-x="597" 
d="M6 446v80l97 14v51q0 187 187 187q106 0 183 -19v-87h-141q-55 0 -78 -19t-23 -63v-50h301v-540h-128v446h-173v-446h-128v446h-97z" />
    <glyph glyph-name="fl" unicode="fl" horiz-adv-x="597" 
d="M404 4v660h-72q-55 0 -78 -19t-23 -63v-42h120v-94h-120v-446h-128v446h-97v80l97 14v43q0 187 187 187q68 0 135 -10h107v-756h-128z" />
    <glyph glyph-name="ffi" unicode="ffi" horiz-adv-x="864" 
d="M6 446v80l97 14v23q0 90 39 138.5t138 48.5q77 0 150 -16q46 44 137 44q96 0 173 -19v-87h-131q-55 0 -76 -19t-21 -63v-50h287v-540h-128v446h-159v-446h-128v446h-153v-446h-128v446h-97zM384 591q0 30 4 53h-60q-55 0 -76 -19t-21 -63v-22h153v51z" />
    <glyph glyph-name="ffl" unicode="ffl" horiz-adv-x="867" 
d="M674 0v672h-65q-55 0 -76 -19t-21 -63v-50h109v-94h-109v-446h-128v446h-153v-446h-128v446h-97v80l97 14v23q0 90 39 138.5t138 48.5q77 0 150 -16q46 44 137 44q61 0 133 -11h102v-767h-128zM384 591q0 30 4 53h-60q-55 0 -76 -19t-21 -63v-22h153v51z" />
    <glyph glyph-name="ft" unicode="ft" horiz-adv-x="766" 
d="M549 446v-270q0 -44 21 -63t76 -19h100v-87q-77 -19 -148 -19q-99 0 -138 48.5t-39 138.5v271h-190v-446h-128v446h-97v80l97 14v63q0 90 39 138.5t138 48.5q86 0 163 -19v-87h-115q-55 0 -76 -19t-21 -63v-62h197l40 122h82v-123h168v-93h-169z" />
    <glyph glyph-name=".notdef" horiz-adv-x="476" 
d="M0 0v737h476v-737h-476zM123 81h233l-118 213zM238 444l117 212h-234zM81 572v-403l112 199zM283 367l112 -201v404z" />
    <glyph glyph-name=".null" horiz-adv-x="0" 
 />
    <glyph glyph-name="nonmarkingreturn" horiz-adv-x="333" 
 />
    <glyph glyph-name="space" unicode=" " horiz-adv-x="300" 
 />
    <glyph glyph-name="exclam" unicode="!" horiz-adv-x="307" 
d="M80 737h147v-254l-16 -290h-114l-17 290v254zM85 0v132h140v-132h-140z" />
    <glyph glyph-name="quotedbl" unicode="&#x22;" horiz-adv-x="354" 
d="M140 480h-83l-17 255h119zM297 480h-84l-17 255h118z" />
    <glyph glyph-name="numbersign" unicode="#" 
d="M590 432h-108l-31 -139h99v-76h-116l-47 -217h-86l46 217h-123l-46 -217h-88l47 217h-85v76h102l31 139h-95v75h111l42 186h86l-41 -186h123l41 186h86l-41 -186h93v-75zM272 432l-30 -139h123l29 139h-122z" />
    <glyph glyph-name="dollar" unicode="$" 
d="M257 725v95h78v-95q110 -6 178 -17v-91h-218q-95 0 -95 -76q0 -14 7.5 -26.5t16.5 -20.5t30 -19t33 -16.5t41 -17.5l35 -15q7 -3 33 -15t34 -18l30 -19q21 -13 30 -24l22 -27q13 -16 18.5 -32t10.5 -37.5t5 -44.5q0 -183 -211 -198v-94h-78v93q-115 4 -186 18v91h242
q53 0 79.5 21.5t26.5 70.5q0 39 -36.5 67.5t-105.5 58.5q-10 5 -35.5 15.5t-37.5 16t-34 17t-33.5 20.5t-27 23.5t-23.5 29.5t-13.5 35t-5.5 42q0 95 54 139.5t136 49.5z" />
    <glyph glyph-name="percent" unicode="%" horiz-adv-x="915" 
d="M228 653h-5q-35 0 -53.5 -16.5t-18.5 -57.5v-59q0 -41 17 -58.5t52 -17.5h7q32 0 50.5 19.5t18.5 56.5v59q0 41 -17 57.5t-51 16.5zM209 737h29q74 0 116.5 -38.5t42.5 -135.5v-25q0 -176 -159 -176h-29q-77 0 -118 34t-41 135v25q0 100 42.5 140.5t116.5 40.5zM643 737
l-286 -737h-87l287 737h86zM677 375h29q74 0 116.5 -38.5t42.5 -135.5v-25q0 -176 -159 -176h-29q-77 0 -118 34t-41 135v25q0 100 42.5 140.5t116.5 40.5zM696 291h-5q-35 0 -53.5 -16.5t-18.5 -57.5v-60q0 -41 17 -58t52 -17h7q32 0 50.5 19t18.5 56v60q0 41 -17 57.5
t-51 16.5z" />
    <glyph glyph-name="ampersand" unicode="&#x26;" horiz-adv-x="708" 
d="M583 370l72 -50q-49 -97 -103 -167l136 -153h-167l-54 61q-90 -74 -200 -74q-104 0 -160.5 51t-56.5 152q0 57 31 117t91 97l-2 3q-54 61 -54 135q0 69 33 117t80 67.5t102 19.5q109 0 214 -19v-93h-200q-39 0 -68 -23t-29 -69t71 -124l160 -182zM276 95q61 0 121 48
l-165 191q-50 -50 -50 -131q0 -54 21.5 -81t72.5 -27z" />
    <glyph glyph-name="quotesingle" unicode="'" horiz-adv-x="209" 
d="M145 480h-83l-17 255h119z" />
    <glyph glyph-name="parenleft" unicode="(" horiz-adv-x="362" 
d="M60 333q0 117 46 237.5t130 219.5l86 -59q-125 -183 -125 -402q0 -220 124 -408l-86 -59q-84 99 -129.5 225.5t-45.5 245.5z" />
    <glyph glyph-name="parenright" unicode=")" horiz-adv-x="362" 
d="M302 333q0 -119 -45.5 -245.5t-129.5 -225.5l-86 59q124 188 124 408q0 219 -125 402l86 59q84 -99 130 -219.5t46 -237.5z" />
    <glyph glyph-name="asterisk" unicode="*" horiz-adv-x="465" 
d="M405 571l-114 -24l82 -81l-81 -61l-60 102l-58 -102l-82 60l83 83l-115 23l31 98l106 -53q-10 71 -15 116h103l-17 -115l106 52z" />
    <glyph glyph-name="plus" unicode="+" 
d="M557 281h-182v-188h-111v188h-184v109h184v182h111v-182h182v-109z" />
    <glyph glyph-name="comma" unicode="," horiz-adv-x="258" 
d="M209 142v-96q0 -64 -25.5 -113.5t-93.5 -113.5l-59 35l65 135l-38 13v140h151z" />
    <glyph glyph-name="hyphen" unicode="-" horiz-adv-x="379" 
d="M329 206h-279v122h279v-122z" />
    <glyph glyph-name="period" unicode="." horiz-adv-x="251" 
d="M50 0v142h151v-142h-151z" />
    <glyph glyph-name="slash" unicode="/" horiz-adv-x="464" 
d="M463 758l-366 -830h-96l370 830h92z" />
    <glyph glyph-name="zero" unicode="0" 
d="M319 643h-19q-123 0 -123 -138v-276q0 -72 29.5 -104t88.5 -32h29q55 0 87 35.5t32 100.5v276q0 138 -124 138zM285 749h49q55 0 97.5 -13t78 -43t54.5 -86t19 -136v-200q0 -156 -65 -219.5t-184 -63.5h-49q-116 0 -182.5 60t-66.5 212v201q0 159 64 223.5t185 64.5z" />
    <glyph glyph-name="one" unicode="1" 
d="M535 0h-445v105h155v500h-135v75l117 45q28 11 54 11h92v-631h162v-105z" />
    <glyph glyph-name="two" unicode="2" 
d="M261 638h-217v88q116 23 259 23q129 0 185.5 -54.5t56.5 -155.5q0 -56 -25 -103.5t-82 -102.5l-236 -224l2 -4h347v-105h-526v100l307 299q73 71 73 136q0 57 -29.5 80t-114.5 23z" />
    <glyph glyph-name="three" unicode="3" 
d="M372 625l-3 5h-327v106h504v-105l-232 -178l64 -14q90 -20 137 -64t47 -142q0 -245 -258 -245q-148 0 -264 23v87h256q130 0 130 128q0 56 -24 78t-95 37l-154 31v84z" />
    <glyph glyph-name="four" unicode="4" 
d="M598 164h-82v-164h-124v164h-368v101l277 471h137l-274 -463h228v167h124v-167h82v-109z" />
    <glyph glyph-name="five" unicode="5" 
d="M537 735v-107h-317l-24 -150l186 -28q187 -29 187 -216q0 -245 -257 -245q-141 0 -257 23v87h252q67 0 97.5 29.5t30.5 98.5q0 62 -24 85.5t-95 34.5l-215 36q-38 7 -32 46l49 306h419z" />
    <glyph glyph-name="six" unicode="6" 
d="M442 753l35 -91l-134 -62q-126 -59 -147 -164q79 15 134 15q139 0 201 -52t62 -164q0 -246 -265 -246q-88 0 -144.5 19.5t-85 61t-38.5 90t-10 121.5q0 93 16.5 163t46.5 119t80 85.5t108 60t141 44.5zM459 222q0 67 -25 95t-92 28h-154q-1 -27 -1 -78q0 -95 25.5 -135
t110.5 -40q60 0 98 30t38 100z" />
    <glyph glyph-name="seven" unicode="7" 
d="M39 631v105h522v-95l-324 -641h-139l319 631h-378z" />
    <glyph glyph-name="eight" unicode="8" 
d="M310 -13q-64 0 -112 10t-87.5 33.5t-60 66.5t-20.5 106q0 129 99 185q-34 26 -56.5 69.5t-22.5 93.5q0 198 260 198q117 0 188.5 -46t71.5 -152q0 -46 -23.5 -91t-54.5 -72q97 -52 97 -179q0 -111 -72 -166.5t-207 -55.5zM311 88q81 0 111.5 33t30.5 87q0 60 -31 88
t-112 28q-76 0 -110 -30t-34 -88q0 -59 30 -88.5t115 -29.5zM312 642q-75 0 -101.5 -28.5t-26.5 -82.5q0 -53 40 -112q44 7 85 7q47 0 84 -6q43 48 43 111q0 53 -27 82t-97 29z" />
    <glyph glyph-name="nine" unicode="9" 
d="M186 -18l-35 91l134 62q124 57 145 167q-79 -15 -134 -15q-139 0 -201 52t-62 164q0 246 265 246q84 0 140.5 -20t85.5 -60.5t40.5 -90t11.5 -121.5q0 -93 -16.5 -163t-46 -120t-79 -87t-108 -60.5t-140.5 -44.5zM303 646q-60 0 -98 -30t-38 -100q0 -68 24 -95.5
t90 -27.5h157q1 32 1 78q0 95 -25.5 135t-110.5 40z" />
    <glyph glyph-name="colon" unicode=":" horiz-adv-x="251" 
d="M50 0v142h151v-142h-151zM50 320v142h151v-142h-151z" />
    <glyph glyph-name="semicolon" unicode=";" horiz-adv-x="259" 
d="M58 320v142h151v-142h-151zM208 142v-96q0 -64 -25.5 -113.5t-93.5 -113.5l-59 35l65 135l-38 13v140h151z" />
    <glyph glyph-name="less" unicode="&#x3c;" 
d="M563 173v-119l-497 236v84l497 238v-123l-351 -156z" />
    <glyph glyph-name="equal" unicode="=" 
d="M545 361h-477v102h477v-102zM545 183h-477v102h477v-102z" />
    <glyph glyph-name="greater" unicode="&#x3e;" 
d="M66 54v119l351 160l-351 156v123l497 -238v-84z" />
    <glyph glyph-name="question" unicode="?" horiz-adv-x="586" 
d="M267 298v-108h-120q-22 92 -22 136q0 27 13.5 42t45.5 26l95 32q79 27 102.5 48.5t23.5 72.5q0 53 -30 72t-105 19h-210v89q123 23 227 23q58 0 102 -9t80.5 -31t56 -64t19.5 -102q0 -162 -198 -222zM135 0v132h140v-132h-140z" />
    <glyph glyph-name="at" unicode="@" horiz-adv-x="1050" 
d="M715 420v-128q0 -23 2.5 -37t15 -26t35.5 -12q43 0 64 43t21 111q0 133 -84 208t-226 75q-156 0 -252 -90t-96 -228q0 -144 85.5 -233.5t235.5 -89.5q76 0 164 20q3 -10 9.5 -35.5t11.5 -40.5q-79 -39 -193 -39q-193 0 -306.5 113t-113.5 302q0 181 128.5 300t326.5 119
q188 0 301 -101.5t113 -270.5q0 -120 -49.5 -191.5t-153.5 -71.5q-33 0 -68 14.5t-54 42.5q-30 -22 -72 -34.5t-74 -12.5q-169 0 -169 134q0 83 45.5 116t126.5 33q56 0 119 -7v17q0 36 -15.5 49.5t-51.5 13.5h-159v78q75 11 153 11q43 0 72.5 -6t55.5 -21.5t39 -46.5
t13 -78zM608 323h-131q-48 0 -48 -50v-15q0 -42 66 -42q63 0 113 25v82z" />
    <glyph glyph-name="A" unicode="A" horiz-adv-x="747" 
d="M593 0l-59 164h-320l-59 -164h-145l283 736h163l281 -736h-144zM375 599h-6l-116 -323h239z" />
    <glyph glyph-name="B" unicode="B" horiz-adv-x="710" 
d="M618 568q0 -94 -68 -152q56 -28 83 -82t27 -117q0 -67 -21.5 -113.5t-60.5 -71t-84 -34.5t-103 -10q-183 0 -316 22v722q152 18 282 18q59 0 101.5 -6.5t81 -25t58.5 -56t20 -94.5zM399 325h-187v-220h195q63 0 87.5 27t24.5 84q0 66 -29.5 87.5t-90.5 21.5zM212 441h229
q36 54 36 110q0 45 -24 63.5t-86 18.5h-155v-192z" />
    <glyph glyph-name="C" unicode="C" horiz-adv-x="628" 
d="M207 450v-172q0 -104 35.5 -138.5t139.5 -34.5h211v-94q-116 -23 -257 -23q-50 0 -88 8t-73.5 31.5t-58.5 62.5t-37 103t-14 151q0 101 15 174.5t40 117.5t64.5 70t80 34.5t95.5 8.5q110 0 226 -19v-96h-198q-103 0 -142 -39.5t-39 -144.5z" />
    <glyph glyph-name="D" unicode="D" horiz-adv-x="780" 
d="M365 -12q-156 0 -290 22v722q143 18 289 18q353 0 353 -380q0 -57 -8.5 -107t-32.5 -102t-62 -89t-102 -60.5t-147 -23.5zM370 633h-158v-528h166q105 0 152.5 59.5t47.5 201.5q0 105 -24 164.5t-67 81t-117 21.5z" />
    <glyph glyph-name="E" unicode="E" horiz-adv-x="651" 
d="M595 736v-114h-383v-183h361v-114h-361v-211h389v-114h-526v736h520z" />
    <glyph glyph-name="F" unicode="F" horiz-adv-x="603" 
d="M583 622h-372v-205h351v-112h-351v-305h-136v736h508v-114z" />
    <glyph glyph-name="G" unicode="G" horiz-adv-x="683" 
d="M207 450v-172q0 -104 35.5 -138.5t139.5 -34.5h114v262h137v-351q-120 -28 -288 -28q-68 0 -115 14t-86.5 51.5t-59 109.5t-19.5 181q0 102 14.5 175t39 117t65 69.5t83.5 34.5t103 9q139 0 242 -20v-95h-224q-103 0 -142 -39.5t-39 -144.5z" />
    <glyph glyph-name="H" unicode="H" horiz-adv-x="757" 
d="M682 0h-139v327h-331v-327h-137v736h137v-294h331v294h139v-736z" />
    <glyph glyph-name="I" unicode="I" horiz-adv-x="295" 
d="M215 0h-135v736h135v-736z" />
    <glyph glyph-name="J" unicode="J" horiz-adv-x="309" 
d="M229 736v-696q0 -49 -7.5 -81.5t-30.5 -65.5t-66.5 -60.5t-114.5 -58.5l-55 82l112 90q27 21 27 65v725h135z" />
    <glyph glyph-name="K" unicode="K" horiz-adv-x="696" 
d="M214 736v-736h-139v736h139zM241 376l275 360h160l-272 -360l282 -376h-171z" />
    <glyph glyph-name="L" unicode="L" horiz-adv-x="563" 
d="M551 0h-478v736h135v-628h343v-108z" />
    <glyph glyph-name="M" unicode="M" horiz-adv-x="928" 
d="M463 240h6l172 496h195l45 -736h-142l-21 594h-4l-168 -477h-164l-165 487h-4l-19 -604h-143l41 736h201z" />
    <glyph glyph-name="N" unicode="N" horiz-adv-x="793" 
d="M576 220l6 1v515h136v-736h-141l-360 523l-4 -3v-520h-138v736h144z" />
    <glyph glyph-name="O" unicode="O" horiz-adv-x="772" 
d="M362 750h45q51 0 92.5 -9t81 -34.5t66.5 -67t43.5 -110.5t16.5 -160t-16.5 -159.5t-43.5 -110t-66.5 -67t-81 -35t-92.5 -9.5h-45q-52 0 -92 8t-80 31.5t-66.5 63t-42.5 107t-16 158.5q0 116 23.5 196.5t66.5 122t93 58.5t114 17zM395 635h-8q-93 0 -136 -36t-43 -134
v-191q0 -99 38.5 -134.5t125.5 -35.5h32q81 0 122 39.5t41 130.5v191q0 99 -40.5 134.5t-131.5 35.5z" />
    <glyph glyph-name="P" unicode="P" horiz-adv-x="686" 
d="M212 320h152q152 0 152 130v41q0 27 -4.5 47t-18 44t-45.5 37.5t-81 13.5h-155v-313zM212 211v-211h-137v731q140 19 299 19q282 0 282 -279q0 -122 -70 -193.5t-194 -71.5q-65 0 -180 5z" />
    <glyph glyph-name="Q" unicode="Q" horiz-adv-x="772" 
d="M535 9v-5l174 -62l-24 -86q-168 31 -294 75.5t-196 91.5q-41 24 -68.5 62.5t-40 87t-17 90.5t-4.5 93q0 116 23.5 196.5t66.5 122t93 58.5t114 17h45q51 0 92.5 -9t81 -34.5t66.5 -67t43.5 -110.5t16.5 -160q0 -294 -172 -360zM395 635h-8q-93 0 -136 -36t-43 -134v-196
q0 -99 38.5 -134.5t125.5 -35.5h32q81 0 122 39.5t41 130.5v196q0 99 -40.5 134.5t-131.5 35.5z" />
    <glyph glyph-name="R" unicode="R" horiz-adv-x="704" 
d="M381 750q273 0 273 -225q0 -131 -127 -238l152 -287h-155l-130 261h-182v-261h-137v730q156 20 306 20zM395 633h-183v-259h233q27 21 48 63.5t21 83.5q0 112 -119 112z" />
    <glyph glyph-name="S" unicode="S" horiz-adv-x="627" 
d="M285 750q141 0 264 -19v-97h-254q-108 0 -108 -81q0 -30 34.5 -52t110.5 -53l73 -31q24 -10 65 -34.5t62 -47t38 -58.5t17 -78q0 -211 -283 -211q-150 0 -255 19v97h280q119 0 119 97q0 42 -42 71.5t-123 63.5l-40 16l-43 18q-14 6 -39 18t-38 21.5t-30.5 25.5t-26 31.5
t-15 36.5t-6.5 45q0 202 240 202z" />
    <glyph glyph-name="T" unicode="T" horiz-adv-x="606" 
d="M596 622h-226v-622h-134v622h-226v114h586v-114z" />
    <glyph glyph-name="U" unicode="U" horiz-adv-x="757" 
d="M75 736h138v-518q0 -107 112 -107h218v625h139v-717q-170 -32 -317 -32q-32 0 -50 0.5t-47 2.5t-46 6.5t-40 12.5t-36.5 19.5t-28.5 29.5t-23 41t-13.5 54.5t-5.5 69.5v513z" />
    <glyph glyph-name="V" unicode="V" horiz-adv-x="726" 
d="M361 139h6l206 597h143l-271 -736h-161l-274 736h146z" />
    <glyph glyph-name="W" unicode="W" horiz-adv-x="1102" 
d="M776 135h6l162 601h143l-227 -736h-161l-135 410h-6l-138 -410h-161l-244 736h146l175 -603h6l152 438l-58 165h145z" />
    <glyph glyph-name="X" unicode="X" horiz-adv-x="670" 
d="M337 478l163 258h149l-240 -361l251 -375h-159l-164 270l-168 -270h-159l255 375l-238 361h149z" />
    <glyph glyph-name="Y" unicode="Y" horiz-adv-x="691" 
d="M348 370h6l193 366h142l-270 -487v-249h-134v249l-281 487h146z" />
    <glyph glyph-name="Z" unicode="Z" horiz-adv-x="650" 
d="M610 0h-575v123l420 499h-401v114h546v-121l-411 -501h421v-114z" />
    <glyph glyph-name="bracketleft" unicode="[" horiz-adv-x="318" 
d="M278 -130h-208v906h208v-95h-80v-719h80v-92z" />
    <glyph glyph-name="backslash" unicode="\" horiz-adv-x="464" 
d="M367 -72l-366 830h92l370 -830h-96z" />
    <glyph glyph-name="bracketright" unicode="]" horiz-adv-x="318" 
d="M248 -130h-208v92h80v719h-80v95h208v-906z" />
    <glyph glyph-name="asciicircum" unicode="^" horiz-adv-x="557" 
d="M537 372h-126l-133 231l-135 -231h-123l219 365h80z" />
    <glyph glyph-name="underscore" unicode="_" horiz-adv-x="492" 
d="M492 -166h-492v93h492v-93z" />
    <glyph glyph-name="grave" unicode="`" horiz-adv-x="605" 
d="M372 592l-188 130l76 92l169 -160z" />
    <glyph glyph-name="a" unicode="a" horiz-adv-x="605" 
d="M540 363v-353q-126 -23 -270 -23q-58 0 -93.5 5t-70 21.5t-50.5 52.5t-16 93q0 105 55 147t157 42q68 0 160 -13v28q0 47 -20.5 65t-69.5 18h-200v92q99 15 193 15q53 0 91 -7.5t70 -27.5t48 -58.5t16 -96.5zM412 243h-166q-71 0 -71 -69v-19q0 -33 17 -47.5t54 -14.5
h166v150z" />
    <glyph glyph-name="b" unicode="b" horiz-adv-x="621" 
d="M65 7v730h128v-199q98 15 156 15q41 0 70.5 -5.5t59 -22.5t47.5 -47t29 -80.5t11 -120.5q0 -92 -17 -151.5t-51.5 -88.5t-72.5 -39t-94 -10q-132 0 -266 19zM302 446h-109v-354h124q70 0 92 27t22 95v117q0 69 -28.5 92t-100.5 23z" />
    <glyph glyph-name="c" unicode="c" horiz-adv-x="508" 
d="M190 326v-116q0 -70 26 -93t103 -23h159v-87q-94 -19 -206 -19q-52 0 -87 9.5t-67 36.5t-47.5 82t-15.5 139q0 94 17 155t51 91t72.5 41t94.5 11q84 0 183 -15v-92h-150q-77 0 -105 -25t-28 -95z" />
    <glyph glyph-name="d" unicode="d" horiz-adv-x="621" 
d="M556 737v-730q-143 -19 -266 -19q-47 0 -76.5 3.5t-63 18.5t-52 43t-31 79t-12.5 125q0 88 15 147t44.5 91t67 45t90.5 13q60 0 156 -13v197h128zM428 446h-109q-72 0 -100.5 -23t-28.5 -92v-114q0 -68 22 -95t92 -27h124v351z" />
    <glyph glyph-name="e" unicode="e" horiz-adv-x="591" 
d="M187 226v-55q0 -42 22 -59.5t68 -17.5h235v-87q-87 -18 -226 -18q-133 0 -182 63t-49 210q0 146 56 218.5t197 72.5q233 0 233 -208v-39q0 -44 -22.5 -62t-54.5 -18h-277zM415 323v49q0 31 -17.5 54.5t-62.5 23.5h-62q-43 0 -64.5 -28.5t-21.5 -59.5v-39h228z" />
    <glyph glyph-name="f" unicode="f" horiz-adv-x="408" 
d="M6 446v80l97 14v23q0 90 39 138.5t138 48.5q86 0 163 -19v-87h-115q-55 0 -76 -19t-21 -63v-22h158v-94h-158v-446h-128v446h-97z" />
    <glyph glyph-name="g" unicode="g" horiz-adv-x="619" 
d="M554 534v-568q0 -58 -16 -96.5t-48 -58.5t-70 -27.5t-91 -7.5q-128 0 -215 18v89h222q49 0 69.5 18t20.5 65v37q-98 -15 -154 -15q-42 0 -70.5 4.5t-58.5 20t-48 44t-29 78t-11 119.5q0 92 17 153t51 92t73 42.5t94 11.5q101 0 264 -19zM319 95h108v351h-123
q-70 0 -92 -27t-22 -95v-114q0 -69 28.5 -92t100.5 -23z" />
    <glyph glyph-name="h" unicode="h" horiz-adv-x="627" 
d="M562 0h-129v341q0 105 -98 105h-141v-446h-129v737h129v-194q128 10 153 10q24 0 38 -0.5t39.5 -4t41.5 -10t36.5 -19.5t32 -32t19.5 -48.5t8 -66.5v-372z" />
    <glyph glyph-name="i" unicode="i" horiz-adv-x="269" 
d="M200 611h-131v126h131v-126zM199 0h-129v540h129v-540z" />
    <glyph glyph-name="j" unicode="j" horiz-adv-x="273" 
d="M203 611h-132v126h132v-126zM202 540v-527q0 -87 -33 -130.5t-147 -107.5l-54 78l79 71q25 23 25 62v554h130z" />
    <glyph glyph-name="k" unicode="k" horiz-adv-x="555" 
d="M191 736v-736h-126v736h126zM398 0l-189 275l188 265h145l-190 -265l199 -275h-153z" />
    <glyph glyph-name="l" unicode="l" horiz-adv-x="278" 
d="M194 737v-643h74v-87q-58 -18 -114 -18q-48 0 -68.5 24t-20.5 72v652h129z" />
    <glyph glyph-name="m" unicode="m" horiz-adv-x="909" 
d="M606 443h-95q8 -30 8 -67v-376h-129v341q0 60 -25.5 82.5t-83.5 22.5h-87v-446h-129v533q170 20 247 20q90 0 136 -27q99 27 198 27q20 0 33 -0.5t35.5 -4t38 -10.5t34.5 -20.5t30 -32t19 -48.5t8 -67v-370h-129v338q0 60 -25.5 82.5t-83.5 22.5z" />
    <glyph glyph-name="n" unicode="n" horiz-adv-x="626" 
d="M561 0h-129v341q0 60 -25.5 82.5t-83.5 22.5h-129v-446h-129v534q179 19 279 19q24 0 38 -0.5t40 -4t42 -10t36.5 -19.5t32 -32t20 -48.5t8.5 -66.5v-372z" />
    <glyph glyph-name="o" unicode="o" horiz-adv-x="621" 
d="M317 451h-12q-61 0 -88 -24.5t-27 -91.5v-130q0 -68 24 -92t81 -24h33q53 0 78.5 27t25.5 89v130q0 68 -26 92t-89 24zM291 553h40q57 0 98 -12.5t73 -43.5t48 -87t16 -139q0 -158 -62 -220.5t-173 -62.5h-40q-56 0 -96 11t-73.5 40t-50 84.5t-16.5 138.5
q0 84 16.5 142.5t49 90t73.5 45t97 13.5z" />
    <glyph glyph-name="p" unicode="p" horiz-adv-x="623" 
d="M65 -206v739q163 19 268 19q47 0 76.5 -4t63 -19.5t52 -44.5t31 -82t12.5 -129q0 -70 -11 -121.5t-29.5 -82.5t-47 -49.5t-59 -25t-70.5 -6.5q-60 0 -158 15v-209h-128zM193 94h111q72 0 100.5 23t28.5 92v114q0 68 -22 95.5t-92 27.5h-126v-352z" />
    <glyph glyph-name="q" unicode="q" horiz-adv-x="619" 
d="M553 -206h-128v209q-98 -15 -153 -15q-41 0 -69 4.5t-58 20t-48.5 44t-30 78t-11.5 119.5q0 76 11.5 130t30 86.5t50 51.5t64.5 25t79 6q101 0 264 -19zM319 95h107v351h-122q-70 0 -92 -27t-22 -95v-114q0 -69 28.5 -92t100.5 -23z" />
    <glyph glyph-name="r" unicode="r" horiz-adv-x="407" 
d="M402 553v-107h-203v-446h-129v529q147 24 332 24z" />
    <glyph glyph-name="s" unicode="s" horiz-adv-x="512" 
d="M235 553q113 0 212 -16v-91h-208q-66 0 -66 -45q0 -26 59 -50q12 -5 47.5 -17t55 -20t50 -25t47 -34.5t29.5 -44.5t13 -60q0 -91 -60.5 -126.5t-165.5 -35.5q-116 0 -206 17v89h226q75 0 75 59q0 30 -50 53q-18 8 -58 21.5t-68.5 25.5t-60 31t-48.5 48t-17 66q0 44 16 75
t44 48t61 24.5t73 7.5z" />
    <glyph glyph-name="t" unicode="t" horiz-adv-x="462" 
d="M245 446v-270q0 -44 21 -63t76 -19h100v-87q-77 -19 -148 -19q-99 0 -138 48.5t-39 138.5v271h-97v79l104 14l40 163h82v-163h168v-93h-169z" />
    <glyph glyph-name="u" unicode="u" horiz-adv-x="616" 
d="M65 539h129v-371q0 -36 17.5 -55t62.5 -19h148v445h129v-532q-153 -18 -269 -18q-24 0 -38 0.5t-40 4t-42 10t-36.5 19.5t-32 32t-20 48.5t-8.5 66.5v369z" />
    <glyph glyph-name="v" unicode="v" horiz-adv-x="613" 
d="M304 125h6l158 414h130l-220 -539h-144l-219 539h131z" />
    <glyph glyph-name="w" unicode="w" horiz-adv-x="872" 
d="M610 138h4l114 401h129l-173 -539h-147l-90 250l-4 -1q-15 -42 -48.5 -125t-48.5 -124h-147l-184 539h130l129 -411h4l54 138q38 94 56 143l-46 130h129z" />
    <glyph glyph-name="x" unicode="x" horiz-adv-x="562" 
d="M275 358l118 182h143l-184 -264l196 -276h-150l-123 190l-122 -190h-150l194 276l-182 264h143z" />
    <glyph glyph-name="y" unicode="y" horiz-adv-x="602" 
d="M308 -206h-125l78 206h-50l-199 539h133l146 -425h10l160 425h126z" />
    <glyph glyph-name="z" unicode="z" horiz-adv-x="561" 
d="M67 435v105h453v-94l-310 -341h311v-105h-481v93l311 342h-284z" />
    <glyph glyph-name="braceleft" unicode="{" horiz-adv-x="369" 
d="M256 209v-188q0 -31 10.5 -42t44.5 -11h28v-92q-59 -9 -100 -9q-62 0 -84.5 32.5t-22.5 92.5v216q0 77 -72 98v78q72 28 72 100v173q0 60 22.5 92.5t84.5 32.5q41 0 100 -9v-92h-28q-34 0 -44.5 -11t-10.5 -42v-164q0 -44 -19.5 -74t-57.5 -39v-4q44 -16 60.5 -48.5
t16.5 -89.5z" />
    <glyph glyph-name="bar" unicode="|" horiz-adv-x="307" 
d="M207 -144h-107v922h107v-922z" />
    <glyph glyph-name="braceright" unicode="}" horiz-adv-x="369" 
d="M113 21v188q0 56 16.5 88t60.5 48v4q-38 9 -57.5 40t-19.5 75v164q0 31 -10.5 42t-44.5 11h-28v92q59 9 100 9q62 0 84.5 -32.5t22.5 -92.5v-173q0 -72 72 -100v-78q-72 -21 -72 -98v-216q0 -60 -22.5 -92.5t-84.5 -32.5q-42 0 -100 9v92h28q34 0 44.5 11t10.5 42z" />
    <glyph glyph-name="asciitilde" unicode="~" 
d="M428 231q-49 0 -132.5 24t-110.5 24l-75 -49l-53 41q45 115 140 115q38 0 124.5 -25t119.5 -25l72 52l52 -40q-45 -117 -137 -117z" />
    <glyph glyph-name="uni00A0" unicode="&#xa0;" horiz-adv-x="300" 
 />
    <glyph glyph-name="exclamdown" unicode="&#xa1;" horiz-adv-x="307" 
d="M85 409v132h140v-132h-140zM226 -199h-146v254l17 293h113l16 -293v-254z" />
    <glyph glyph-name="cent" unicode="&#xa2;" 
d="M302 -12v100q-48 1 -82 11t-63.5 35.5t-44 75.5t-14.5 125q0 81 14.5 136t43.5 84t63.5 42t82.5 15v103h78v-103q69 -4 136 -14v-92h-150q-77 0 -105 -25t-28 -95v-76q0 -70 26 -93t103 -23h159v-87q-60 -13 -141 -18v-101h-78z" />
    <glyph glyph-name="sterling" unicode="&#xa3;" 
d="M527 625h-186q-53 0 -78.5 -27.5t-25.5 -85.5q0 -38 13 -100h226v-84h-209q6 -36 6 -80q-2 -95 -43 -143h330v-105h-500v94q87 48 87 148q0 46 -8 86h-77v84h61q-15 77 -15 107q0 213 219 213q101 0 200 -15v-92z" />
    <glyph glyph-name="currency" unicode="&#xa4;" 
d="M312 90q-47 0 -84 20l-64 -64l-85 85l64 64q-18 36 -18 77q0 45 21 84l-67 67l85 85l70 -70q36 17 78 17t75 -16l69 69l85 -85l-64 -64q24 -43 24 -87q0 -42 -19 -82l59 -59l-85 -85l-63 60q-37 -16 -81 -16zM312 359q-33 0 -56.5 -26t-23.5 -61t23.5 -60.5t56.5 -25.5
q34 0 59.5 25.5t25.5 60.5q0 34 -25.5 60.5t-59.5 26.5z" />
    <glyph glyph-name="yen" unicode="&#xa5;" 
d="M82 206h467v-87h-167v-119h-134v119h-166v87zM549 266h-467v87h122l-199 383h140l169 -348l169 348h132l-191 -383h125v-87z" />
    <glyph glyph-name="brokenbar" unicode="&#xa6;" horiz-adv-x="307" 
d="M207 409h-107v369h107v-369zM100 259h107v-403h-107v403z" />
    <glyph glyph-name="section" unicode="&#xa7;" horiz-adv-x="606" 
d="M336 -116q-146 0 -248 16v97h244q52 0 52 32q0 18 -11 26.5t-49 24.5q-10 4 -16 7l-127 55q-94 41 -94 112q0 66 33 148h98v-83q0 -37 12.5 -52.5t59.5 -35.5l137 -60q99 -42 99 -137q0 -72 -49.5 -111t-140.5 -39zM268 750q122 0 223 -16v-97h-219q-53 0 -53 -34
q0 -8 4 -14.5t16.5 -14t22.5 -12.5t34 -16l121 -56q47 -22 70.5 -48t23.5 -63q0 -19 -9.5 -63t-25.5 -85h-97v82q0 37 -12 52t-59 37l-131 61q-48 22 -73.5 53t-25.5 84q0 72 51 111t139 39z" />
    <glyph glyph-name="dieresis" unicode="&#xa8;" horiz-adv-x="605" 
d="M278 627h-113v110h113v-110zM474 627h-113v110h113v-110z" />
    <glyph glyph-name="copyright" unicode="&#xa9;" horiz-adv-x="829" 
d="M331 416v-114q0 -62 20.5 -83t80.5 -21h137v-64q-75 -17 -163 -17q-42 0 -72 9.5t-56 33.5t-39 70.5t-13 116.5q0 81 14 134t42.5 80t61 37t78.5 10q67 0 143 -13v-67h-129q-59 0 -82 -24t-23 -88zM785 368q0 -157 -107.5 -262.5t-259.5 -105.5q-168 0 -268.5 103.5
t-100.5 264.5q0 157 108.5 261.5t260.5 104.5t259.5 -104.5t107.5 -261.5zM711 368q0 127 -85 216t-208 89t-209.5 -89t-86.5 -216q0 -128 85 -217t211 -89q123 0 208 89t85 217z" />
    <glyph glyph-name="ordfeminine" unicode="&#xaa;" horiz-adv-x="417" 
d="M375 539v-232q-89 -15 -191 -15q-32 0 -53.5 2t-44 8.5t-35.5 19t-21 34.5t-8 53q0 71 38.5 99.5t111.5 28.5q43 0 100 -7v9q0 26 -12 35.5t-41 9.5h-142v73q67 10 138 10q79 0 119.5 -26.5t40.5 -101.5zM272 455h-103q-41 0 -41 -37v-11q0 -33 41 -33h103v81z" />
    <glyph glyph-name="guillemotleft" unicode="&#xab;" horiz-adv-x="592" 
d="M239 22l-199 213v34l205 215l72 -60l-141 -173l139 -168zM459 22l-199 213v34l205 215l72 -60l-141 -173l139 -168z" />
    <glyph glyph-name="logicalnot" unicode="&#xac;" 
d="M557 390v-297h-111v188h-366v109h477z" />
    <glyph glyph-name="sfthyphen" unicode="&#xad;" horiz-adv-x="379" 
d="M329 206h-279v122h279v-122z" />
    <glyph glyph-name="registered" unicode="&#xae;" horiz-adv-x="584" 
d="M252 464v-97h-62v274q56 8 117 8q110 0 110 -96q0 -63 -53 -82l47 -104h-68l-38 95q-7 0 -53 2zM252 510h59q42 0 42 46q0 44 -41 44h-60v-90zM295 263q-110 0 -178 69t-68 173q0 101 72.5 171t173.5 70q103 0 173.5 -69.5t70.5 -171.5q0 -101 -71.5 -171.5t-172.5 -70.5
zM295 700q-81 0 -137 -57.5t-56 -137.5q0 -83 52 -138.5t141 -55.5q82 0 136.5 56.5t54.5 137.5q0 80 -56 137.5t-135 57.5z" />
    <glyph glyph-name="macron" unicode="&#xaf;" horiz-adv-x="605" 
d="M134 639v94h367v-94h-367z" />
    <glyph glyph-name="degree" unicode="&#xb0;" horiz-adv-x="400" 
d="M204 495q-60 0 -93.5 34.5t-33.5 87.5q0 51 35.5 86.5t91.5 35.5q57 0 89.5 -35t32.5 -87q0 -51 -36 -86.5t-86 -35.5zM204 670q-25 0 -40.5 -16t-15.5 -39q0 -24 15 -40t41 -16q23 0 37.5 16t14.5 40q0 23 -14.5 39t-37.5 16z" />
    <glyph glyph-name="plusminus" unicode="&#xb1;" 
d="M557 305h-182v-158h-111v158h-184v109h184v152h111v-152h182v-109zM557 0h-477v109h477v-109z" />
    <glyph glyph-name="twosuperior" unicode="&#xb2;" horiz-adv-x="403" 
d="M168 756h-147v69q78 15 173 15q163 0 163 -131q0 -35 -16.5 -64t-53.5 -62l-128 -113h202v-80h-353v72l198 173q43 36 43 72q0 27 -16.5 38t-64.5 11z" />
    <glyph glyph-name="threesuperior" unicode="&#xb3;" horiz-adv-x="403" 
d="M205 748l-2 4h-184v80h339v-75l-133 -92l33 -7q56 -12 83 -38.5t27 -86.5q0 -150 -173 -150q-102 0 -177 14v69h171q74 0 74 63q0 26 -15.5 38.5t-52.5 18.5l-106 18v62z" />
    <glyph glyph-name="acute" unicode="&#xb4;" horiz-adv-x="605" 
d="M489 722l-188 -130l-57 62l169 160z" />
    <glyph glyph-name="mu" unicode="&#xb5;" horiz-adv-x="635" 
d="M67 540h129v-378q0 -32 16.5 -50t63.5 -18h148v446h129v-533q-153 -18 -269 -18q-56 0 -88 18v-213h-128z" />
    <glyph glyph-name="mu" unicode="&#x3bc;" horiz-adv-x="635" 
d="M67 540h129v-378q0 -32 16.5 -50t63.5 -18h148v446h129v-533q-153 -18 -269 -18q-56 0 -88 18v-213h-128z" />
    <glyph glyph-name="paragraph" unicode="&#xb6;" horiz-adv-x="619" 
d="M360 305h-92q-94 0 -156 63t-62 154q0 89 62.5 151.5t155.5 62.5h92v-431zM544 736v-647q0 -49 -7.5 -81.5t-30.5 -65.5t-66.5 -60.5t-114.5 -58.5l-55 82l112 90q17 13 21.5 27t4.5 38v676h136z" />
    <glyph glyph-name="periodcentered" unicode="&#xb7;" horiz-adv-x="251" 
d="M50 227v142h151v-142h-151z" />
    <glyph glyph-name="cedilla" unicode="&#xb8;" horiz-adv-x="508" 
d="M256 22l74 1l-35 -88l49 -8q90 -14 90 -93q0 -54 -33.5 -82t-88.5 -28q-77 0 -135 11v65h112q39 0 39 31q0 13 -6.5 19t-23.5 9l-63 12q-32 6 -22 34z" />
    <glyph glyph-name="onesuperior" unicode="&#xb9;" horiz-adv-x="403" 
d="M351 390h-302v80h99v268h-86v58l82 29q18 7 37 7h67v-362h103v-80z" />
    <glyph glyph-name="ordmasculine" unicode="&#xba;" horiz-adv-x="428" 
d="M217 587h-9q-37 0 -53.5 -14t-16.5 -52v-83q0 -38 14.5 -52t49.5 -14h21q32 0 47.5 15.5t15.5 50.5v83q0 39 -15.5 52.5t-53.5 13.5zM199 667h26q84 0 126 -40.5t42 -146.5q0 -105 -44.5 -146.5t-123.5 -41.5h-26q-83 0 -125 38t-42 144q0 108 42.5 150.5t124.5 42.5z
" />
    <glyph glyph-name="guillemotright" unicode="&#xbb;" horiz-adv-x="592" 
d="M332 235l-199 -213l-76 61l139 168l-141 173l72 60l205 -215v-34zM552 235l-199 -213l-76 61l139 168l-141 173l72 60l205 -215v-34z" />
    <glyph glyph-name="onequarter" unicode="&#xbc;" horiz-adv-x="915" 
d="M651 737l-286 -737h-87l287 737h86zM356 300h-302v80h99v268h-86v58l82 29q18 7 37 7h67v-362h103v-80zM873 94h-52v-94h-98v94h-232v70l180 278h109l-174 -266h117v97h98v-97h52v-82z" />
    <glyph glyph-name="onehalf" unicode="&#xbd;" horiz-adv-x="915" 
d="M627 737l-286 -737h-87l287 737h86zM332 300h-302v80h99v268h-86v58l82 29q18 7 37 7h67v-362h103v-80zM693 366h-147v69q78 15 173 15q163 0 163 -131q0 -35 -16.5 -64t-53.5 -62l-128 -113h202v-80h-353v72l198 173q43 36 43 72q0 27 -16.5 38t-64.5 11z" />
    <glyph glyph-name="threequarters" unicode="&#xbe;" horiz-adv-x="915" 
d="M666 737l-286 -737h-87l287 737h86zM224 658l-2 4h-184v80h339v-75l-133 -92l33 -7q56 -12 83 -38.5t27 -86.5q0 -150 -173 -150q-102 0 -177 14v69h171q74 0 74 63q0 26 -15.5 38.5t-52.5 18.5l-106 18v62zM886 94h-52v-94h-98v94h-232v70l180 278h109l-174 -266h117v97
h98v-97h52v-82z" />
    <glyph glyph-name="questiondown" unicode="&#xbf;" horiz-adv-x="589" 
d="M479 541v-132h-140v132h140zM349 244v106h116q22 -92 22 -136q0 -27 -13.5 -42t-45.5 -26l-95 -32q-79 -27 -102.5 -48.5t-23.5 -72.5q0 -53 30 -72t105 -19h210v-89q-123 -23 -227 -23q-58 0 -102 9t-80.5 31t-56 64t-19.5 102q0 162 198 222z" />
    <glyph glyph-name="Agrave" unicode="&#xc0;" horiz-adv-x="747" 
d="M593 0l-59 164h-320l-59 -164h-145l283 736h163l281 -736h-144zM375 599h-6l-116 -323h239zM402 781l-207 88l59 104l194 -121z" />
    <glyph glyph-name="Aacute" unicode="&#xc1;" horiz-adv-x="747" 
d="M593 0l-59 164h-320l-59 -164h-145l283 736h163l281 -736h-144zM375 599h-6l-116 -323h239zM556 869l-207 -88l-46 71l194 121z" />
    <glyph glyph-name="Acircumflex" unicode="&#xc2;" horiz-adv-x="747" 
d="M593 0l-59 164h-320l-59 -164h-145l283 736h163l281 -736h-144zM375 599h-6l-116 -323h239zM558 831l-49 -53l-139 84l-145 -85l-43 52l145 135h88z" />
    <glyph glyph-name="Atilde" unicode="&#xc3;" horiz-adv-x="747" 
d="M593 0l-59 164h-320l-59 -164h-145l283 736h163l281 -736h-144zM375 599h-6l-116 -323h239zM457 801q-37 0 -96.5 20.5t-76.5 20.5l-56 -41l-44 32q17 49 45 75t61 26q29 0 89 -20t83 -20l56 43l44 -34q-15 -48 -42.5 -75t-62.5 -27z" />
    <glyph glyph-name="Adieresis" unicode="&#xc4;" horiz-adv-x="747" 
d="M593 0l-59 164h-320l-59 -164h-145l283 736h163l281 -736h-144zM375 599h-6l-116 -323h239zM330 811h-113v110h113v-110zM526 811h-113v110h113v-110z" />
    <glyph glyph-name="Aring" unicode="&#xc5;" horiz-adv-x="747" 
d="M593 0l-59 164h-320l-59 -164h-145l283 736h3q-39 34 -39 85q0 47 35 81t84 34t82 -34t33 -81q0 -50 -38 -85h3l281 -736h-144zM375 599h-6l-116 -323h239zM376 866q-21 0 -34.5 -13.5t-13.5 -33.5t13 -34t35 -14q20 0 32.5 14t12.5 34t-12.5 33.5t-32.5 13.5z" />
    <glyph glyph-name="AE" unicode="&#xc6;" horiz-adv-x="1087" 
d="M1037 0h-506v193h-257l-114 -193h-154l444 736h582v-114h-365v-184h343v-112h-343v-212h370v-114zM531 625l-193 -324h193v324z" />
    <glyph glyph-name="Ccedilla" unicode="&#xc7;" horiz-adv-x="628" 
d="M207 450v-172q0 -104 35.5 -138.5t139.5 -34.5h211v-94q-93 -17 -194 -22l-20 -50l49 -8q90 -14 90 -93q0 -54 -33.5 -82t-88.5 -28q-77 0 -135 11v65h112q39 0 39 31q0 13 -6.5 19t-23.5 9l-63 12q-32 6 -22 34l29 79q-48 1 -84.5 10t-71 32.5t-57 62.5t-35.5 102.5
t-13 148.5q0 101 15 174.5t40 117.5t64.5 70t80 34.5t95.5 8.5q110 0 226 -19v-96h-198q-103 0 -142 -39.5t-39 -144.5z" />
    <glyph glyph-name="Egrave" unicode="&#xc8;" horiz-adv-x="651" 
d="M595 736v-114h-383v-183h361v-114h-361v-211h389v-114h-526v736h520zM413 781l-207 88l59 104l194 -121z" />
    <glyph glyph-name="Eacute" unicode="&#xc9;" horiz-adv-x="651" 
d="M595 736v-114h-383v-183h361v-114h-361v-211h389v-114h-526v736h520zM490 869l-207 -88l-46 71l194 121z" />
    <glyph glyph-name="Ecircumflex" unicode="&#xca;" horiz-adv-x="651" 
d="M595 736v-114h-383v-183h361v-114h-361v-211h389v-114h-526v736h520zM540 831l-49 -53l-139 84l-145 -85l-43 52l145 135h88z" />
    <glyph glyph-name="Edieresis" unicode="&#xcb;" horiz-adv-x="651" 
d="M595 736v-114h-383v-183h361v-114h-361v-211h389v-114h-526v736h520zM299 811h-113v110h113v-110zM495 811h-113v110h113v-110z" />
    <glyph glyph-name="Igrave" unicode="&#xcc;" horiz-adv-x="295" 
d="M215 0h-135v736h135v-736zM188 781l-207 88l59 104l194 -121z" />
    <glyph glyph-name="Iacute" unicode="&#xcd;" horiz-adv-x="295" 
d="M215 0h-135v736h135v-736zM326 869l-207 -88l-46 71l194 121z" />
    <glyph glyph-name="Icircumflex" unicode="&#xce;" horiz-adv-x="295" 
d="M215 0h-135v736h135v-736zM335 831l-49 -53l-139 84l-145 -85l-43 52l145 135h88z" />
    <glyph glyph-name="Idieresis" unicode="&#xcf;" horiz-adv-x="295" 
d="M215 0h-135v736h135v-736zM105 811h-113v110h113v-110zM301 811h-113v110h113v-110z" />
    <glyph glyph-name="Eth" unicode="&#xd0;" horiz-adv-x="780" 
d="M19 330v94h56v308q143 18 289 18q353 0 353 -380q0 -57 -8.5 -107t-32.5 -102t-62 -89t-102 -60.5t-147 -23.5q-156 0 -290 22v320h-56zM370 633h-158v-209h188v-94h-188v-225h166q105 0 152.5 59.5t47.5 201.5q0 105 -24 164.5t-67 81t-117 21.5z" />
    <glyph glyph-name="Ntilde" unicode="&#xd1;" horiz-adv-x="793" 
d="M576 220l6 1v515h136v-736h-141l-360 523l-4 -3v-520h-138v736h144zM483 797q-37 0 -96.5 20.5t-76.5 20.5l-56 -41l-44 32q17 49 45 75t61 26q29 0 89 -20t83 -20l56 43l44 -34q-15 -48 -42.5 -75t-62.5 -27z" />
    <glyph glyph-name="Ograve" unicode="&#xd2;" horiz-adv-x="772" 
d="M362 750h45q51 0 92.5 -9t81 -34.5t66.5 -67t43.5 -110.5t16.5 -160t-16.5 -159.5t-43.5 -110t-66.5 -67t-81 -35t-92.5 -9.5h-45q-52 0 -92 8t-80 31.5t-66.5 63t-42.5 107t-16 158.5q0 116 23.5 196.5t66.5 122t93 58.5t114 17zM395 635h-8q-93 0 -136 -36t-43 -134
v-191q0 -99 38.5 -134.5t125.5 -35.5h32q81 0 122 39.5t41 130.5v191q0 99 -40.5 134.5t-131.5 35.5zM414 781l-207 88l59 104l194 -121z" />
    <glyph glyph-name="Oacute" unicode="&#xd3;" horiz-adv-x="772" 
d="M362 750h45q51 0 92.5 -9t81 -34.5t66.5 -67t43.5 -110.5t16.5 -160t-16.5 -159.5t-43.5 -110t-66.5 -67t-81 -35t-92.5 -9.5h-45q-52 0 -92 8t-80 31.5t-66.5 63t-42.5 107t-16 158.5q0 116 23.5 196.5t66.5 122t93 58.5t114 17zM395 635h-8q-93 0 -136 -36t-43 -134
v-191q0 -99 38.5 -134.5t125.5 -35.5h32q81 0 122 39.5t41 130.5v191q0 99 -40.5 134.5t-131.5 35.5zM558 869l-207 -88l-46 71l194 121z" />
    <glyph glyph-name="Ocircumflex" unicode="&#xd4;" horiz-adv-x="772" 
d="M362 750h45q51 0 92.5 -9t81 -34.5t66.5 -67t43.5 -110.5t16.5 -160t-16.5 -159.5t-43.5 -110t-66.5 -67t-81 -35t-92.5 -9.5h-45q-52 0 -92 8t-80 31.5t-66.5 63t-42.5 107t-16 158.5q0 116 23.5 196.5t66.5 122t93 58.5t114 17zM395 635h-8q-93 0 -136 -36t-43 -134
v-191q0 -99 38.5 -134.5t125.5 -35.5h32q81 0 122 39.5t41 130.5v191q0 99 -40.5 134.5t-131.5 35.5zM583 831l-49 -53l-139 84l-145 -85l-43 52l145 135h88z" />
    <glyph glyph-name="Otilde" unicode="&#xd5;" horiz-adv-x="772" 
d="M362 750h45q51 0 92.5 -9t81 -34.5t66.5 -67t43.5 -110.5t16.5 -160t-16.5 -159.5t-43.5 -110t-66.5 -67t-81 -35t-92.5 -9.5h-45q-52 0 -92 8t-80 31.5t-66.5 63t-42.5 107t-16 158.5q0 116 23.5 196.5t66.5 122t93 58.5t114 17zM395 635h-8q-93 0 -136 -36t-43 -134
v-191q0 -99 38.5 -134.5t125.5 -35.5h32q81 0 122 39.5t41 130.5v191q0 99 -40.5 134.5t-131.5 35.5zM472 796q-37 0 -96.5 20.5t-76.5 20.5l-56 -41l-44 32q17 49 45 75t61 26q29 0 89 -20t83 -20l56 43l44 -34q-15 -48 -42.5 -75t-62.5 -27z" />
    <glyph glyph-name="Odieresis" unicode="&#xd6;" horiz-adv-x="772" 
d="M362 750h45q51 0 92.5 -9t81 -34.5t66.5 -67t43.5 -110.5t16.5 -160t-16.5 -159.5t-43.5 -110t-66.5 -67t-81 -35t-92.5 -9.5h-45q-52 0 -92 8t-80 31.5t-66.5 63t-42.5 107t-16 158.5q0 116 23.5 196.5t66.5 122t93 58.5t114 17zM395 635h-8q-93 0 -136 -36t-43 -134
v-191q0 -99 38.5 -134.5t125.5 -35.5h32q81 0 122 39.5t41 130.5v191q0 99 -40.5 134.5t-131.5 35.5zM346 811h-113v110h113v-110zM542 811h-113v110h113v-110z" />
    <glyph glyph-name="multiply" unicode="&#xd7;" 
d="M441 127l-129 129l-133 -133l-78 78l133 133l-130 130l77 77l130 -130l129 129l78 -79l-129 -128l129 -129z" />
    <glyph glyph-name="Oslash" unicode="&#xd8;" horiz-adv-x="772" 
d="M362 750h45q99 0 164 -38l34 52l56 -38l-38 -57q84 -94 84 -300q0 -91 -16.5 -159.5t-43.5 -110t-66.5 -67t-81 -35t-92.5 -9.5h-45q-105 0 -167 35l-34 -52l-55 38l37 56q-78 88 -78 291q0 116 23.5 196.5t66.5 122t93 58.5t114 17zM372 104h32q81 0 122 39.5t41 130.5
v191q0 60 -15 96l-289 -435q35 -22 109 -22zM390 635h-4q-93 0 -135.5 -36t-42.5 -134v-191q0 -58 12 -92l286 432q-38 21 -116 21z" />
    <glyph glyph-name="Ugrave" unicode="&#xd9;" horiz-adv-x="757" 
d="M75 736h138v-518q0 -107 112 -107h218v625h139v-717q-170 -32 -317 -32q-32 0 -50 0.5t-47 2.5t-46 6.5t-40 12.5t-36.5 19.5t-28.5 29.5t-23 41t-13.5 54.5t-5.5 69.5v513zM429 781l-207 88l59 104l194 -121z" />
    <glyph glyph-name="Uacute" unicode="&#xda;" horiz-adv-x="757" 
d="M75 736h138v-518q0 -107 112 -107h218v625h139v-717q-170 -32 -317 -32q-32 0 -50 0.5t-47 2.5t-46 6.5t-40 12.5t-36.5 19.5t-28.5 29.5t-23 41t-13.5 54.5t-5.5 69.5v513zM541 869l-207 -88l-46 71l194 121z" />
    <glyph glyph-name="Ucircumflex" unicode="&#xdb;" horiz-adv-x="757" 
d="M75 736h138v-518q0 -107 112 -107h218v625h139v-717q-170 -32 -317 -32q-32 0 -50 0.5t-47 2.5t-46 6.5t-40 12.5t-36.5 19.5t-28.5 29.5t-23 41t-13.5 54.5t-5.5 69.5v513zM582 831l-49 -53l-139 84l-145 -85l-43 52l145 135h88z" />
    <glyph glyph-name="Udieresis" unicode="&#xdc;" horiz-adv-x="757" 
d="M75 736h138v-518q0 -107 112 -107h218v625h139v-717q-170 -32 -317 -32q-32 0 -50 0.5t-47 2.5t-46 6.5t-40 12.5t-36.5 19.5t-28.5 29.5t-23 41t-13.5 54.5t-5.5 69.5v513zM336 811h-113v110h113v-110zM532 811h-113v110h113v-110z" />
    <glyph glyph-name="Yacute" unicode="&#xdd;" horiz-adv-x="691" 
d="M348 370h6l193 366h142l-270 -487v-249h-134v249l-281 487h146zM525 865l-207 -88l-46 71l194 121z" />
    <glyph glyph-name="Thorn" unicode="&#xde;" horiz-adv-x="686" 
d="M75 0l-1 737h138v-98q94 6 162 6q132 0 207 -63t75 -213q0 -122 -70 -192t-194 -70q-65 0 -180 5v-112h-137zM212 220l152 1q79 0 115.5 38.5t36.5 103.5v15q0 153 -149 153h-155v-311z" />
    <glyph glyph-name="germandbls" unicode="&#xdf;" horiz-adv-x="613" 
d="M188 513v-513h-128v487q0 136 61 196.5t182 60.5q102 0 164 -46t62 -133q0 -69 -46 -148q80 -47 80 -199q0 -73 -16 -121.5t-47 -73.5t-67 -34.5t-87 -9.5q-44 0 -117 10v93h70q71 0 100 24.5t29 93.5v23q0 68 -22 95.5t-92 27.5h-46v95h116q16 60 16 99q0 44 -25 73
t-77 29q-57 0 -83.5 -30t-26.5 -99z" />
    <glyph glyph-name="agrave" unicode="&#xe0;" horiz-adv-x="605" 
d="M540 363v-353q-126 -23 -270 -23q-58 0 -93.5 5t-70 21.5t-50.5 52.5t-16 93q0 105 55 147t157 42q68 0 160 -13v28q0 47 -20.5 65t-69.5 18h-200v92q99 15 193 15q53 0 91 -7.5t70 -27.5t48 -58.5t16 -96.5zM412 243h-166q-71 0 -71 -69v-19q0 -33 17 -47.5t54 -14.5
h166v150zM372 592l-188 130l76 92l169 -160z" />
    <glyph glyph-name="aacute" unicode="&#xe1;" horiz-adv-x="605" 
d="M540 363v-353q-126 -23 -270 -23q-58 0 -93.5 5t-70 21.5t-50.5 52.5t-16 93q0 105 55 147t157 42q68 0 160 -13v28q0 47 -20.5 65t-69.5 18h-200v92q99 15 193 15q53 0 91 -7.5t70 -27.5t48 -58.5t16 -96.5zM412 243h-166q-71 0 -71 -69v-19q0 -33 17 -47.5t54 -14.5
h166v150zM486 722l-188 -130l-57 62l169 160z" />
    <glyph glyph-name="acircumflex" unicode="&#xe2;" horiz-adv-x="605" 
d="M540 363v-353q-126 -23 -270 -23q-58 0 -93.5 5t-70 21.5t-50.5 52.5t-16 93q0 105 55 147t157 42q68 0 160 -13v28q0 47 -20.5 65t-69.5 18h-200v92q99 15 193 15q53 0 91 -7.5t70 -27.5t48 -58.5t16 -96.5zM412 243h-166q-71 0 -71 -69v-19q0 -33 17 -47.5t54 -14.5
h166v150zM513 654l-49 -53l-139 94l-145 -95l-43 52l145 145h88z" />
    <glyph glyph-name="atilde" unicode="&#xe3;" horiz-adv-x="605" 
d="M540 363v-353q-126 -23 -270 -23q-58 0 -93.5 5t-70 21.5t-50.5 52.5t-16 93q0 105 55 147t157 42q68 0 160 -13v28q0 47 -20.5 65t-69.5 18h-200v92q99 15 193 15q53 0 91 -7.5t70 -27.5t48 -58.5t16 -96.5zM412 243h-166q-71 0 -71 -69v-19q0 -33 17 -47.5t54 -14.5
h166v150zM403 626q-37 0 -96.5 20.5t-76.5 20.5l-56 -41l-44 32q17 49 45 75t61 26q29 0 89 -20t83 -20l56 43l44 -34q-15 -48 -42.5 -75t-62.5 -27z" />
    <glyph glyph-name="adieresis" unicode="&#xe4;" horiz-adv-x="605" 
d="M540 363v-353q-126 -23 -270 -23q-58 0 -93.5 5t-70 21.5t-50.5 52.5t-16 93q0 105 55 147t157 42q68 0 160 -13v28q0 47 -20.5 65t-69.5 18h-200v92q99 15 193 15q53 0 91 -7.5t70 -27.5t48 -58.5t16 -96.5zM412 243h-166q-71 0 -71 -69v-19q0 -33 17 -47.5t54 -14.5
h166v150zM280 627h-113v110h113v-110zM476 627h-113v110h113v-110z" />
    <glyph glyph-name="aring" unicode="&#xe5;" horiz-adv-x="605" 
d="M540 363v-353q-126 -23 -270 -23q-58 0 -93.5 5t-70 21.5t-50.5 52.5t-16 93q0 105 55 147t157 42q68 0 160 -13v28q0 47 -20.5 65t-69.5 18h-200v92q99 15 193 15q53 0 91 -7.5t70 -27.5t48 -58.5t16 -96.5zM412 243h-166q-71 0 -71 -69v-19q0 -33 17 -47.5t54 -14.5
h166v150zM320 598q-49 0 -84 34t-35 81t35 81t84 34t82 -34t33 -81q0 -48 -34 -81.5t-81 -33.5zM320 758q-21 0 -34.5 -13.5t-13.5 -33.5t13 -34t35 -14q20 0 32.5 14t12.5 34t-12.5 33.5t-32.5 13.5z" />
    <glyph glyph-name="ae" unicode="&#xe6;" horiz-adv-x="945" 
d="M541 231v-58q0 -42 22 -59.5t68 -17.5h235v-87q-87 -18 -226 -18q-130 0 -182 62q-90 -69 -208 -69q-35 0 -61 3t-55.5 13.5t-48.5 28.5t-32 51t-13 79q0 53 16.5 88.5t48 52t63.5 22.5t76 6h173v35q0 47 -20.5 65t-69.5 18h-205v92q99 15 193 15q125 0 176 -47
q61 47 171 47q233 0 233 -208v-34q0 -44 -22.5 -62t-54.5 -18h-277zM246 87q99 -3 177 56q-8 41 -9 91h-162q-36 0 -56.5 -12t-20.5 -48v-19q0 -67 71 -68zM769 328v44q0 31 -17.5 54.5t-62.5 23.5h-62q-43 0 -64.5 -28.5t-21.5 -59.5v-34h228z" />
    <glyph glyph-name="ccedilla" unicode="&#xe7;" horiz-adv-x="508" 
d="M190 326v-116q0 -70 26 -93t103 -23h159v-87q-82 -16 -166 -18l-20 -52l49 -8q90 -14 90 -93q0 -54 -33.5 -82t-88.5 -28q-77 0 -135 11v65h112q39 0 39 31q0 13 -6.5 19t-23.5 9l-63 12q-32 6 -22 34l30 82q-44 3 -75 15t-57.5 40.5t-39.5 81t-13 129.5q0 94 17 155
t51 91t72.5 41t94.5 11q84 0 183 -15v-92h-150q-77 0 -105 -25t-28 -95z" />
    <glyph glyph-name="egrave" unicode="&#xe8;" horiz-adv-x="591" 
d="M187 226v-55q0 -42 22 -59.5t68 -17.5h235v-87q-87 -18 -226 -18q-133 0 -182 63t-49 210q0 146 56 218.5t197 72.5q233 0 233 -208v-39q0 -44 -22.5 -62t-54.5 -18h-277zM415 323v49q0 31 -17.5 54.5t-62.5 23.5h-62q-43 0 -64.5 -28.5t-21.5 -59.5v-39h228zM347 592
l-188 130l76 92l169 -160z" />
    <glyph glyph-name="eacute" unicode="&#xe9;" horiz-adv-x="591" 
d="M187 226v-55q0 -42 22 -59.5t68 -17.5h235v-87q-87 -18 -226 -18q-133 0 -182 63t-49 210q0 146 56 218.5t197 72.5q233 0 233 -208v-39q0 -44 -22.5 -62t-54.5 -18h-277zM415 323v49q0 31 -17.5 54.5t-62.5 23.5h-62q-43 0 -64.5 -28.5t-21.5 -59.5v-39h228zM474 722
l-188 -130l-57 62l169 160z" />
    <glyph glyph-name="ecircumflex" unicode="&#xea;" horiz-adv-x="591" 
d="M187 226v-55q0 -42 22 -59.5t68 -17.5h235v-87q-87 -18 -226 -18q-133 0 -182 63t-49 210q0 146 56 218.5t197 72.5q233 0 233 -208v-39q0 -44 -22.5 -62t-54.5 -18h-277zM415 323v49q0 31 -17.5 54.5t-62.5 23.5h-62q-43 0 -64.5 -28.5t-21.5 -59.5v-39h228zM506 654
l-49 -53l-139 94l-145 -95l-43 52l145 145h88z" />
    <glyph glyph-name="edieresis" unicode="&#xeb;" horiz-adv-x="591" 
d="M187 226v-55q0 -42 22 -59.5t68 -17.5h235v-87q-87 -18 -226 -18q-133 0 -182 63t-49 210q0 146 56 218.5t197 72.5q233 0 233 -208v-39q0 -44 -22.5 -62t-54.5 -18h-277zM415 323v49q0 31 -17.5 54.5t-62.5 23.5h-62q-43 0 -64.5 -28.5t-21.5 -59.5v-39h228zM267 627
h-113v110h113v-110zM463 627h-113v110h113v-110z" />
    <glyph glyph-name="igrave" unicode="&#xec;" horiz-adv-x="269" 
d="M199 0h-129v540h129v-540zM174 592l-188 130l76 92l169 -160z" />
    <glyph glyph-name="iacute" unicode="&#xed;" horiz-adv-x="269" 
d="M312 722l-188 -130l-57 62l169 160zM199 0h-129v540h129v-540z" />
    <glyph glyph-name="icircumflex" unicode="&#xee;" horiz-adv-x="269" 
d="M199 0h-129v540h129v-540zM323 654l-49 -53l-139 94l-145 -95l-43 52l145 145h88z" />
    <glyph glyph-name="idieresis" unicode="&#xef;" horiz-adv-x="269" 
d="M199 0h-129v540h129v-540zM90 627h-113v110h113v-110zM286 627h-113v110h113v-110z" />
    <glyph glyph-name="eth" unicode="&#xf0;" horiz-adv-x="621" 
d="M226 577l-34 62l64 33l-44 53l74 61l68 -63l78 40l34 -62l-60 -31q117 -124 148 -271q12 -60 12 -138q0 -273 -235 -273h-40q-114 0 -175 58.5t-61 205.5q0 155 65 218.5t181 63.5q29 0 53 -4l2 5q-20 36 -55 81zM317 431h-12q-61 0 -88 -24.5t-27 -91.5v-110
q0 -68 24 -92t81 -24h33q53 0 78.5 27t25.5 89v89q0 83 -25.5 110t-89.5 27z" />
    <glyph glyph-name="ntilde" unicode="&#xf1;" horiz-adv-x="626" 
d="M561 0h-129v341q0 60 -25.5 82.5t-83.5 22.5h-129v-446h-129v534q179 19 279 19q24 0 38 -0.5t40 -4t42 -10t36.5 -19.5t32 -32t20 -48.5t8.5 -66.5v-372zM387 626q-37 0 -96.5 20.5t-76.5 20.5l-56 -41l-44 32q17 49 45 75t61 26q29 0 89 -20t83 -20l56 43l44 -34
q-15 -48 -42.5 -75t-62.5 -27z" />
    <glyph glyph-name="ograve" unicode="&#xf2;" horiz-adv-x="621" 
d="M317 451h-12q-61 0 -88 -24.5t-27 -91.5v-130q0 -68 24 -92t81 -24h33q53 0 78.5 27t25.5 89v130q0 68 -26 92t-89 24zM291 553h40q57 0 98 -12.5t73 -43.5t48 -87t16 -139q0 -158 -62 -220.5t-173 -62.5h-40q-56 0 -96 11t-73.5 40t-50 84.5t-16.5 138.5
q0 84 16.5 142.5t49 90t73.5 45t97 13.5zM341 592l-188 130l76 92l169 -160z" />
    <glyph glyph-name="oacute" unicode="&#xf3;" horiz-adv-x="621" 
d="M317 451h-12q-61 0 -88 -24.5t-27 -91.5v-130q0 -68 24 -92t81 -24h33q53 0 78.5 27t25.5 89v130q0 68 -26 92t-89 24zM291 553h40q57 0 98 -12.5t73 -43.5t48 -87t16 -139q0 -158 -62 -220.5t-173 -62.5h-40q-56 0 -96 11t-73.5 40t-50 84.5t-16.5 138.5
q0 84 16.5 142.5t49 90t73.5 45t97 13.5zM495 722l-188 -130l-57 62l169 160z" />
    <glyph glyph-name="ocircumflex" unicode="&#xf4;" horiz-adv-x="621" 
d="M317 451h-12q-61 0 -88 -24.5t-27 -91.5v-130q0 -68 24 -92t81 -24h33q53 0 78.5 27t25.5 89v130q0 68 -26 92t-89 24zM291 553h40q57 0 98 -12.5t73 -43.5t48 -87t16 -139q0 -158 -62 -220.5t-173 -62.5h-40q-56 0 -96 11t-73.5 40t-50 84.5t-16.5 138.5
q0 84 16.5 142.5t49 90t73.5 45t97 13.5zM508 654l-49 -53l-139 94l-145 -95l-43 52l145 145h88z" />
    <glyph glyph-name="otilde" unicode="&#xf5;" horiz-adv-x="621" 
d="M317 451h-12q-61 0 -88 -24.5t-27 -91.5v-130q0 -68 24 -92t81 -24h33q53 0 78.5 27t25.5 89v130q0 68 -26 92t-89 24zM291 553h40q57 0 98 -12.5t73 -43.5t48 -87t16 -139q0 -158 -62 -220.5t-173 -62.5h-40q-56 0 -96 11t-73.5 40t-50 84.5t-16.5 138.5
q0 84 16.5 142.5t49 90t73.5 45t97 13.5zM411 626q-37 0 -96.5 20.5t-76.5 20.5l-56 -41l-44 32q17 49 45 75t61 26q29 0 89 -20t83 -20l56 43l44 -34q-15 -48 -42.5 -75t-62.5 -27z" />
    <glyph glyph-name="odieresis" unicode="&#xf6;" horiz-adv-x="621" 
d="M317 451h-12q-61 0 -88 -24.5t-27 -91.5v-130q0 -68 24 -92t81 -24h33q53 0 78.5 27t25.5 89v130q0 68 -26 92t-89 24zM291 553h40q57 0 98 -12.5t73 -43.5t48 -87t16 -139q0 -158 -62 -220.5t-173 -62.5h-40q-56 0 -96 11t-73.5 40t-50 84.5t-16.5 138.5
q0 84 16.5 142.5t49 90t73.5 45t97 13.5zM268 627h-113v110h113v-110zM464 627h-113v110h113v-110z" />
    <glyph glyph-name="divide" unicode="&#xf7;" 
d="M307 428q-29 0 -49.5 21t-20.5 50t20 49t49 20t49.5 -20t20.5 -49q0 -30 -19.5 -50.5t-49.5 -20.5zM307 96q-29 0 -49.5 20.5t-20.5 49.5q0 30 20 50t49 20t49.5 -20t20.5 -50q0 -29 -19.5 -49.5t-49.5 -20.5zM548 278h-477v109h477v-109z" />
    <glyph glyph-name="oslash" unicode="&#xf8;" horiz-adv-x="621" 
d="M291 553h40q77 0 126 -24l26 39l56 -38l-29 -42q56 -67 56 -217q0 -158 -62 -220.5t-173 -62.5h-40q-67 0 -111 15l-29 -42l-55 38l26 39q-67 64 -67 224q0 84 16.5 142.5t49 90t73.5 45t97 13.5zM317 451h-12q-61 0 -88 -24.5t-27 -91.5v-130q0 -35 6 -59l197 290
q-25 15 -76 15zM295 89h33q53 0 78.5 27t25.5 89v130q0 13 -2 35l-187 -275q21 -6 52 -6z" />
    <glyph glyph-name="ugrave" unicode="&#xf9;" horiz-adv-x="616" 
d="M65 539h129v-371q0 -36 17.5 -55t62.5 -19h148v445h129v-532q-153 -18 -269 -18q-24 0 -38 0.5t-40 4t-42 10t-36.5 19.5t-32 32t-20 48.5t-8.5 66.5v369zM346 592l-188 130l76 92l169 -160z" />
    <glyph glyph-name="uacute" unicode="&#xfa;" horiz-adv-x="616" 
d="M65 539h129v-371q0 -36 17.5 -55t62.5 -19h148v445h129v-532q-153 -18 -269 -18q-24 0 -38 0.5t-40 4t-42 10t-36.5 19.5t-32 32t-20 48.5t-8.5 66.5v369zM468 722l-188 -130l-57 62l169 160z" />
    <glyph glyph-name="ucircumflex" unicode="&#xfb;" horiz-adv-x="616" 
d="M65 539h129v-371q0 -36 17.5 -55t62.5 -19h148v445h129v-532q-153 -18 -269 -18q-24 0 -38 0.5t-40 4t-42 10t-36.5 19.5t-32 32t-20 48.5t-8.5 66.5v369zM514 654l-49 -53l-139 94l-145 -95l-43 52l145 145h88z" />
    <glyph glyph-name="udieresis" unicode="&#xfc;" horiz-adv-x="616" 
d="M65 539h129v-371q0 -36 17.5 -55t62.5 -19h148v445h129v-532q-153 -18 -269 -18q-24 0 -38 0.5t-40 4t-42 10t-36.5 19.5t-32 32t-20 48.5t-8.5 66.5v369zM279 627h-113v110h113v-110zM475 627h-113v110h113v-110z" />
    <glyph glyph-name="yacute" unicode="&#xfd;" horiz-adv-x="602" 
d="M308 -206h-125l78 206h-50l-199 539h133l146 -425h10l160 425h126zM488 722l-188 -130l-57 62l169 160z" />
    <glyph glyph-name="thorn" unicode="&#xfe;" horiz-adv-x="623" 
d="M65 -206v943h128v-191q86 6 140 6q47 0 76.5 -4t63 -19.5t52 -44.5t31 -82t12.5 -129q0 -70 -11 -121.5t-29.5 -82.5t-47 -49.5t-59 -25t-70.5 -6.5q-60 0 -158 15v-209h-128zM193 94h111q72 0 100.5 23t28.5 92v114q0 68 -22 95.5t-92 27.5h-126v-352z" />
    <glyph glyph-name="ydieresis" unicode="&#xff;" horiz-adv-x="602" 
d="M308 -206h-125l78 206h-50l-199 539h133l146 -425h10l160 425h126zM267 627h-113v110h113v-110zM463 627h-113v110h113v-110z" />
    <glyph glyph-name="Amacron" unicode="&#x100;" horiz-adv-x="747" 
d="M593 0l-59 164h-320l-59 -164h-145l283 736h163l281 -736h-144zM375 599h-6l-116 -323h239zM188 802v94h367v-94h-367z" />
    <glyph glyph-name="amacron" unicode="&#x101;" horiz-adv-x="605" 
d="M540 363v-353q-126 -23 -270 -23q-58 0 -93.5 5t-70 21.5t-50.5 52.5t-16 93q0 105 55 147t157 42q68 0 160 -13v28q0 47 -20.5 65t-69.5 18h-200v92q99 15 193 15q53 0 91 -7.5t70 -27.5t48 -58.5t16 -96.5zM412 243h-166q-71 0 -71 -69v-19q0 -33 17 -47.5t54 -14.5
h166v150zM133 639v94h367v-94h-367z" />
    <glyph glyph-name="Abreve" unicode="&#x102;" horiz-adv-x="747" 
d="M593 0l-59 164h-320l-59 -164h-145l283 736h163l281 -736h-144zM375 599h-6l-116 -323h239zM374 784q-138 0 -172 155l55 26q26 -50 53 -67.5t61 -17.5q37 0 63.5 16t55.5 67l53 -25q-39 -154 -169 -154z" />
    <glyph glyph-name="abreve" unicode="&#x103;" horiz-adv-x="605" 
d="M540 363v-353q-126 -23 -270 -23q-58 0 -93.5 5t-70 21.5t-50.5 52.5t-16 93q0 105 55 147t157 42q68 0 160 -13v28q0 47 -20.5 65t-69.5 18h-200v92q99 15 193 15q53 0 91 -7.5t70 -27.5t48 -58.5t16 -96.5zM412 243h-166q-71 0 -71 -69v-19q0 -33 17 -47.5t54 -14.5
h166v150zM317 602q-146 0 -182 162l55 26q55 -92 124 -92q75 0 129 90l53 -25q-20 -78 -67 -119.5t-112 -41.5z" />
    <glyph glyph-name="Aogonek" unicode="&#x104;" horiz-adv-x="747" 
d="M451 -157q0 14 4.5 30.5t16.5 42t41.5 53t72.5 50.5l-52 145h-320l-59 -164h-145l283 736h163l281 -736h-104q-69 -70 -69 -136q0 -27 18.5 -37t53.5 -10h91v-63q-59 -13 -140 -13q-71 0 -103.5 24.5t-32.5 77.5zM375 599h-6l-116 -323h239z" />
    <glyph glyph-name="aogonek" unicode="&#x105;" horiz-adv-x="605" 
d="M540 363v-353q-15 -3 -45 -7q-78 -75 -78 -145q0 -27 18.5 -37t53.5 -10h91v-63q-59 -13 -140 -13q-71 0 -103.5 24.5t-32.5 77.5q0 12 3.5 26.5t12.5 37t31 47t54 46.5q-80 -7 -135 -7q-58 0 -93.5 5t-70 21.5t-50.5 52.5t-16 93q0 105 55 147t157 42q68 0 160 -13v28
q0 47 -20.5 65t-69.5 18h-200v92q99 15 193 15q53 0 91 -7.5t70 -27.5t48 -58.5t16 -96.5zM412 243h-166q-71 0 -71 -69v-19q0 -33 17 -47.5t54 -14.5h166v150z" />
    <glyph glyph-name="Cacute" unicode="&#x106;" horiz-adv-x="628" 
d="M207 450v-172q0 -104 35.5 -138.5t139.5 -34.5h211v-94q-116 -23 -257 -23q-50 0 -88 8t-73.5 31.5t-58.5 62.5t-37 103t-14 151q0 101 15 174.5t40 117.5t64.5 70t80 34.5t95.5 8.5q110 0 226 -19v-96h-198q-103 0 -142 -39.5t-39 -144.5zM524 869l-207 -88l-46 71
l194 121z" />
    <glyph glyph-name="cacute" unicode="&#x107;" horiz-adv-x="508" 
d="M190 326v-116q0 -70 26 -93t103 -23h159v-87q-94 -19 -206 -19q-52 0 -87 9.5t-67 36.5t-47.5 82t-15.5 139q0 94 17 155t51 91t72.5 41t94.5 11q84 0 183 -15v-92h-150q-77 0 -105 -25t-28 -95zM445 722l-188 -130l-57 62l169 160z" />
    <glyph glyph-name="Ccircumflex" unicode="&#x108;" horiz-adv-x="628" 
d="M207 450v-172q0 -104 35.5 -138.5t139.5 -34.5h211v-94q-116 -23 -257 -23q-50 0 -88 8t-73.5 31.5t-58.5 62.5t-37 103t-14 151q0 101 15 174.5t40 117.5t64.5 70t80 34.5t95.5 8.5q110 0 226 -19v-96h-198q-103 0 -142 -39.5t-39 -144.5zM566 831l-49 -53l-139 84
l-145 -85l-43 52l145 135h88z" />
    <glyph glyph-name="ccircumflex" unicode="&#x109;" horiz-adv-x="508" 
d="M190 326v-116q0 -70 26 -93t103 -23h159v-87q-94 -19 -206 -19q-52 0 -87 9.5t-67 36.5t-47.5 82t-15.5 139q0 94 17 155t51 91t72.5 41t94.5 11q84 0 183 -15v-92h-150q-77 0 -105 -25t-28 -95zM476 654l-49 -53l-139 94l-145 -95l-43 52l145 145h88z" />
    <glyph glyph-name="Cdotaccent" unicode="&#x10a;" horiz-adv-x="628" 
d="M207 450v-172q0 -104 35.5 -138.5t139.5 -34.5h211v-94q-116 -23 -257 -23q-50 0 -88 8t-73.5 31.5t-58.5 62.5t-37 103t-14 151q0 101 15 174.5t40 117.5t64.5 70t80 34.5t95.5 8.5q110 0 226 -19v-96h-198q-103 0 -142 -39.5t-39 -144.5zM433 795h-129v126h129v-126z
" />
    <glyph glyph-name="cdotaccent" unicode="&#x10b;" horiz-adv-x="508" 
d="M190 326v-116q0 -70 26 -93t103 -23h159v-87q-94 -19 -206 -19q-52 0 -87 9.5t-67 36.5t-47.5 82t-15.5 139q0 94 17 155t51 91t72.5 41t94.5 11q84 0 183 -15v-92h-150q-77 0 -105 -25t-28 -95zM357 622h-129v126h129v-126z" />
    <glyph glyph-name="Ccaron" unicode="&#x10c;" horiz-adv-x="628" 
d="M207 450v-172q0 -104 35.5 -138.5t139.5 -34.5h211v-94q-116 -23 -257 -23q-50 0 -88 8t-73.5 31.5t-58.5 62.5t-37 103t-14 151q0 101 15 174.5t40 117.5t64.5 70t80 34.5t95.5 8.5q110 0 226 -19v-96h-198q-103 0 -142 -39.5t-39 -144.5zM506 967l49 -53l-143 -133h-88
l-145 135l43 52l145 -85z" />
    <glyph glyph-name="ccaron" unicode="&#x10d;" horiz-adv-x="508" 
d="M190 326v-116q0 -70 26 -93t103 -23h159v-87q-94 -19 -206 -19q-52 0 -87 9.5t-67 36.5t-47.5 82t-15.5 139q0 94 17 155t51 91t72.5 41t94.5 11q84 0 183 -15v-92h-150q-77 0 -105 -25t-28 -95zM418 796l49 -53l-143 -143h-88l-145 145l43 52l145 -95z" />
    <glyph glyph-name="Dcaron" unicode="&#x10e;" horiz-adv-x="780" 
d="M365 -12q-156 0 -290 22v722q143 18 289 18q353 0 353 -380q0 -57 -8.5 -107t-32.5 -102t-62 -89t-102 -60.5t-147 -23.5zM370 633h-158v-528h166q105 0 152.5 59.5t47.5 201.5q0 105 -24 164.5t-67 81t-117 21.5zM476 967l49 -53l-143 -133h-88l-145 135l43 52l145 -85z
" />
    <glyph glyph-name="dcaron" unicode="&#x10f;" horiz-adv-x="751" 
d="M747 736v-77q0 -52 -21 -89t-80 -88l-52 28l53 103l-33 10v113h133zM556 737v-730q-143 -19 -266 -19q-47 0 -76.5 3.5t-63 18.5t-52 43t-31 79t-12.5 125q0 88 15 147t44.5 91t67 45t90.5 13q60 0 156 -13v197h128zM428 446h-109q-72 0 -100.5 -23t-28.5 -92v-114
q0 -68 22 -95t92 -27h124v351z" />
    <glyph glyph-name="Dcroat" unicode="&#x110;" horiz-adv-x="780" 
d="M19 330v94h56v308q143 18 289 18q353 0 353 -380q0 -57 -8.5 -107t-32.5 -102t-62 -89t-102 -60.5t-147 -23.5q-156 0 -290 22v320h-56zM370 633h-158v-209h188v-94h-188v-225h166q105 0 152.5 59.5t47.5 201.5q0 105 -24 164.5t-67 81t-117 21.5z" />
    <glyph glyph-name="dcroat" unicode="&#x111;" horiz-adv-x="621" 
d="M556 737v-71h56v-77h-56v-582q-143 -19 -266 -19q-41 0 -64.5 2t-55 9t-49 23.5t-34.5 44.5t-24.5 73t-7.5 107q0 88 14.5 145.5t45 87.5t67 41.5t90.5 11.5q60 0 156 -13v69h-156v77h156v71h128zM428 426h-109q-72 0 -100.5 -23t-28.5 -92v-94q0 -68 22 -95t92 -27h124
v331z" />
    <glyph glyph-name="Emacron" unicode="&#x112;" horiz-adv-x="651" 
d="M595 736v-114h-383v-183h361v-114h-361v-211h389v-114h-526v736h520zM156 819v94h367v-94h-367z" />
    <glyph glyph-name="emacron" unicode="&#x113;" horiz-adv-x="591" 
d="M187 226v-55q0 -42 22 -59.5t68 -17.5h235v-87q-87 -18 -226 -18q-133 0 -182 63t-49 210q0 146 56 218.5t197 72.5q233 0 233 -208v-39q0 -44 -22.5 -62t-54.5 -18h-277zM415 323v49q0 31 -17.5 54.5t-62.5 23.5h-62q-43 0 -64.5 -28.5t-21.5 -59.5v-39h228zM119 639v94
h367v-94h-367z" />
    <glyph glyph-name="Ebreve" unicode="&#x114;" horiz-adv-x="651" 
d="M595 736v-114h-383v-183h361v-114h-361v-211h389v-114h-526v736h520zM345 784q-138 0 -172 155l55 26q26 -50 53 -67.5t61 -17.5q37 0 63.5 16t55.5 67l53 -25q-39 -154 -169 -154z" />
    <glyph glyph-name="ebreve" unicode="&#x115;" horiz-adv-x="591" 
d="M187 226v-55q0 -42 22 -59.5t68 -17.5h235v-87q-87 -18 -226 -18q-133 0 -182 63t-49 210q0 146 56 218.5t197 72.5q233 0 233 -208v-39q0 -44 -22.5 -62t-54.5 -18h-277zM415 323v49q0 31 -17.5 54.5t-62.5 23.5h-62q-43 0 -64.5 -28.5t-21.5 -59.5v-39h228zM304 602
q-146 0 -182 162l55 26q55 -92 124 -92q75 0 129 90l53 -25q-20 -78 -67 -119.5t-112 -41.5z" />
    <glyph glyph-name="Edotaccent" unicode="&#x116;" horiz-adv-x="651" 
d="M595 736v-114h-383v-183h361v-114h-361v-211h389v-114h-526v736h520zM404 792h-129v126h129v-126z" />
    <glyph glyph-name="edotaccent" unicode="&#x117;" horiz-adv-x="591" 
d="M187 226v-55q0 -42 22 -59.5t68 -17.5h235v-87q-87 -18 -226 -18q-133 0 -182 63t-49 210q0 146 56 218.5t197 72.5q233 0 233 -208v-39q0 -44 -22.5 -62t-54.5 -18h-277zM415 323v49q0 31 -17.5 54.5t-62.5 23.5h-62q-43 0 -64.5 -28.5t-21.5 -59.5v-39h228zM367 622
h-129v126h129v-126z" />
    <glyph glyph-name="Eogonek" unicode="&#x118;" horiz-adv-x="651" 
d="M595 736v-114h-383v-183h361v-114h-361v-211h389v-114h-101q-69 -70 -69 -136q0 -27 18.5 -37t53.5 -10h91v-63q-59 -13 -140 -13q-71 0 -103.5 24.5t-32.5 77.5q0 18 5.5 38.5t30 55.5t66.5 63h-345v736h520z" />
    <glyph glyph-name="eogonek" unicode="&#x119;" horiz-adv-x="591" 
d="M187 226v-55q0 -42 22 -59.5t68 -17.5h235v-87q-23 -5 -82 -11q-57 -64 -57 -123q0 -27 18.5 -37t53.5 -10h91v-63q-59 -13 -140 -13q-71 0 -103.5 24.5t-32.5 77.5q0 75 76 138q-9 0 -26 -0.5t-24 -0.5q-133 0 -182 63t-49 210q0 146 56 218.5t197 72.5q233 0 233 -208
v-39q0 -44 -22.5 -62t-54.5 -18h-277zM415 323v49q0 31 -17.5 54.5t-62.5 23.5h-62q-43 0 -64.5 -28.5t-21.5 -59.5v-39h228z" />
    <glyph glyph-name="Ecaron" unicode="&#x11a;" horiz-adv-x="651" 
d="M595 736v-114h-383v-183h361v-114h-361v-211h389v-114h-526v736h520zM489 967l49 -53l-143 -133h-88l-145 135l43 52l145 -85z" />
    <glyph glyph-name="ecaron" unicode="&#x11b;" horiz-adv-x="591" 
d="M187 226v-55q0 -42 22 -59.5t68 -17.5h235v-87q-87 -18 -226 -18q-133 0 -182 63t-49 210q0 146 56 218.5t197 72.5q233 0 233 -208v-39q0 -44 -22.5 -62t-54.5 -18h-277zM415 323v49q0 31 -17.5 54.5t-62.5 23.5h-62q-43 0 -64.5 -28.5t-21.5 -59.5v-39h228zM451 796
l49 -53l-143 -143h-88l-145 145l43 52l145 -95z" />
    <glyph glyph-name="Gcircumflex" unicode="&#x11c;" horiz-adv-x="683" 
d="M207 450v-172q0 -104 35.5 -138.5t139.5 -34.5h114v262h137v-351q-120 -28 -288 -28q-68 0 -115 14t-86.5 51.5t-59 109.5t-19.5 181q0 102 14.5 175t39 117t65 69.5t83.5 34.5t103 9q139 0 242 -20v-95h-224q-103 0 -142 -39.5t-39 -144.5zM576 831l-49 -53l-139 84
l-145 -85l-43 52l145 135h88z" />
    <glyph glyph-name="gcircumflex" unicode="&#x11d;" horiz-adv-x="619" 
d="M554 534v-568q0 -58 -16 -96.5t-48 -58.5t-70 -27.5t-91 -7.5q-128 0 -215 18v89h222q49 0 69.5 18t20.5 65v37q-98 -15 -154 -15q-42 0 -70.5 4.5t-58.5 20t-48 44t-29 78t-11 119.5q0 92 17 153t51 92t73 42.5t94 11.5q101 0 264 -19zM319 95h108v351h-123
q-70 0 -92 -27t-22 -95v-114q0 -69 28.5 -92t100.5 -23zM518 654l-49 -53l-139 94l-145 -95l-43 52l145 145h88z" />
    <glyph glyph-name="Gbreve" unicode="&#x11e;" horiz-adv-x="683" 
d="M207 450v-172q0 -104 35.5 -138.5t139.5 -34.5h114v262h137v-351q-120 -28 -288 -28q-68 0 -115 14t-86.5 51.5t-59 109.5t-19.5 181q0 102 14.5 175t39 117t65 69.5t83.5 34.5t103 9q139 0 242 -20v-95h-224q-103 0 -142 -39.5t-39 -144.5zM380 784q-138 0 -172 155
l55 26q26 -50 53 -67.5t61 -17.5q37 0 63.5 16t55.5 67l53 -25q-39 -154 -169 -154z" />
    <glyph glyph-name="gbreve" unicode="&#x11f;" horiz-adv-x="619" 
d="M554 534v-568q0 -58 -16 -96.5t-48 -58.5t-70 -27.5t-91 -7.5q-128 0 -215 18v89h222q49 0 69.5 18t20.5 65v37q-98 -15 -154 -15q-42 0 -70.5 4.5t-58.5 20t-48 44t-29 78t-11 119.5q0 92 17 153t51 92t73 42.5t94 11.5q101 0 264 -19zM319 95h108v351h-123
q-70 0 -92 -27t-22 -95v-114q0 -69 28.5 -92t100.5 -23zM334 602q-146 0 -182 162l55 26q55 -92 124 -92q75 0 129 90l53 -25q-20 -78 -67 -119.5t-112 -41.5z" />
    <glyph glyph-name="Gdotaccent" unicode="&#x120;" horiz-adv-x="683" 
d="M207 450v-172q0 -104 35.5 -138.5t139.5 -34.5h114v262h137v-351q-120 -28 -288 -28q-68 0 -115 14t-86.5 51.5t-59 109.5t-19.5 181q0 102 14.5 175t39 117t65 69.5t83.5 34.5t103 9q139 0 242 -20v-95h-224q-103 0 -142 -39.5t-39 -144.5zM442 802h-129v126h129v-126z
" />
    <glyph glyph-name="gdotaccent" unicode="&#x121;" horiz-adv-x="619" 
d="M554 534v-568q0 -58 -16 -96.5t-48 -58.5t-70 -27.5t-91 -7.5q-128 0 -215 18v89h222q49 0 69.5 18t20.5 65v37q-98 -15 -154 -15q-42 0 -70.5 4.5t-58.5 20t-48 44t-29 78t-11 119.5q0 92 17 153t51 92t73 42.5t94 11.5q101 0 264 -19zM319 95h108v351h-123
q-70 0 -92 -27t-22 -95v-114q0 -69 28.5 -92t100.5 -23zM379 622h-129v126h129v-126z" />
    <glyph glyph-name="Gcommaaccent" unicode="&#x122;" horiz-adv-x="683" 
d="M207 450v-172q0 -104 35.5 -138.5t139.5 -34.5h114v262h137v-351q-120 -28 -288 -28q-68 0 -115 14t-86.5 51.5t-59 109.5t-19.5 181q0 102 14.5 175t39 117t65 69.5t83.5 34.5t103 9q139 0 242 -20v-95h-224q-103 0 -142 -39.5t-39 -144.5zM459 -51v-77q0 -52 -21 -89
t-80 -88l-52 28l53 103l-33 10v113h133z" />
    <glyph glyph-name="gcommaaccent" unicode="&#x123;" horiz-adv-x="619" 
d="M554 534v-568q0 -58 -16 -96.5t-48 -58.5t-70 -27.5t-91 -7.5q-128 0 -215 18v89h222q49 0 69.5 18t20.5 65v37q-98 -15 -154 -15q-42 0 -70.5 4.5t-58.5 20t-48 44t-29 78t-11 119.5q0 92 17 153t51 92t73 42.5t94 11.5q101 0 264 -19zM319 95h108v351h-123
q-70 0 -92 -27t-22 -95v-114q0 -69 28.5 -92t100.5 -23zM259 600v77q0 52 21 89t80 88l52 -28l-53 -103l33 -10v-113h-133z" />
    <glyph glyph-name="Hcircumflex" unicode="&#x124;" horiz-adv-x="757" 
d="M682 0h-139v327h-331v-327h-137v736h137v-294h331v294h139v-736zM567 831l-49 -53l-139 84l-145 -85l-43 52l145 135h88z" />
    <glyph glyph-name="hcircumflex" unicode="&#x125;" horiz-adv-x="627" 
d="M562 0h-129v341q0 105 -98 105h-141v-446h-129v737h129v-194q128 10 153 10q24 0 38 -0.5t39.5 -4t41.5 -10t36.5 -19.5t32 -32t19.5 -48.5t8 -66.5v-372zM319 839l-49 -53l-139 84l-145 -85l-43 52l145 135h88z" />
    <glyph glyph-name="Hbar" unicode="&#x126;" horiz-adv-x="757" 
d="M682 0h-139v327h-331v-327h-137v553h-54v77h54v106h137v-106h331v106h139v-106h50v-77h-50v-553zM212 442h331v111h-331v-111z" />
    <glyph glyph-name="hbar" unicode="&#x127;" horiz-adv-x="627" 
d="M562 0h-129v316q0 105 -98 105h-141v-421h-129v593h-55v77h55v67h129v-67h165v-77h-165v-75q127 10 153 10q24 0 38 -0.5t39.5 -4t41.5 -10t36.5 -19.5t32 -32t19.5 -48.5t8 -66.5v-347z" />
    <glyph glyph-name="Itilde" unicode="&#x128;" horiz-adv-x="295" 
d="M215 0h-135v736h135v-736zM229 796q-37 0 -96.5 20.5t-76.5 20.5l-56 -41l-44 32q17 49 45 75t61 26q29 0 89 -20t83 -20l56 43l44 -34q-15 -48 -42.5 -75t-62.5 -27z" />
    <glyph glyph-name="itilde" unicode="&#x129;" horiz-adv-x="269" 
d="M221 626q-37 0 -96.5 20.5t-76.5 20.5l-56 -41l-44 32q17 49 45 75t61 26q29 0 89 -20t83 -20l56 43l44 -34q-15 -48 -42.5 -75t-62.5 -27zM199 0h-129v540h129v-540z" />
    <glyph glyph-name="Imacron" unicode="&#x12a;" horiz-adv-x="295" 
d="M215 0h-135v736h135v-736zM-34 819v94h367v-94h-367z" />
    <glyph glyph-name="imacron" unicode="&#x12b;" horiz-adv-x="269" 
d="M-50 639v94h367v-94h-367zM199 0h-129v540h129v-540z" />
    <glyph glyph-name="Ibreve" unicode="&#x12c;" horiz-adv-x="295" 
d="M215 0h-135v736h135v-736zM148 784q-138 0 -172 155l55 26q26 -50 53 -67.5t61 -17.5q37 0 63.5 16t55.5 67l53 -25q-39 -154 -169 -154z" />
    <glyph glyph-name="ibreve" unicode="&#x12d;" horiz-adv-x="269" 
d="M136 608q-146 0 -182 162l55 26q55 -92 124 -92q75 0 129 90l53 -25q-20 -78 -67 -119.5t-112 -41.5zM199 0h-129v540h129v-540z" />
    <glyph glyph-name="Iogonek" unicode="&#x12e;" horiz-adv-x="295" 
d="M215 0h-33q-71 -73 -71 -138q0 -27 18.5 -37t53.5 -10h91v-63q-59 -13 -140 -13q-71 0 -103.5 24.5t-32.5 77.5q0 12 3.5 27t13 37.5t32.5 47.5t56 47h-23v736h135v-736z" />
    <glyph glyph-name="iogonek" unicode="&#x12f;" horiz-adv-x="269" 
d="M199 0h-30q-69 -70 -69 -136q0 -27 18.5 -37t53.5 -10h91v-63q-59 -13 -140 -13q-71 0 -103.5 24.5t-32.5 77.5q0 18 5.5 38.5t30 55.5t66.5 63h-19v540h129v-540zM200 611h-131v126h131v-126z" />
    <glyph glyph-name="Idotaccent" unicode="&#x130;" horiz-adv-x="295" 
d="M215 0h-135v736h135v-736zM213 792h-129v126h129v-126z" />
    <glyph glyph-name="dotlessi" unicode="&#x131;" horiz-adv-x="269" 
d="M199 0h-129v540h129v-540z" />
    <glyph glyph-name="IJ" unicode="&#x132;" horiz-adv-x="594" 
d="M215 0h-135v736h135v-736zM514 736v-696q0 -49 -7.5 -81.5t-30.5 -65.5t-66.5 -60.5t-114.5 -58.5l-55 82l112 90q27 21 27 65v725h135z" />
    <glyph glyph-name="ij" unicode="&#x133;" horiz-adv-x="535" 
d="M201 611h-131v126h131v-126zM200 0h-129v540h129v-540zM465 611h-132v126h132v-126zM464 540v-527q0 -87 -33 -130.5t-147 -107.5l-54 78l79 71q25 23 25 62v554h130z" />
    <glyph glyph-name="Jcircumflex" unicode="&#x134;" horiz-adv-x="309" 
d="M229 737v-696q0 -49 -7.5 -81.5t-30.5 -65.5t-66.5 -60.5t-114.5 -58.5l-55 82l112 90q27 21 27 65v725h135zM350 833l-49 -53l-139 84l-145 -85l-43 52l145 135h88z" />
    <glyph glyph-name="jcircumflex" unicode="&#x135;" horiz-adv-x="273" 
d="M202 540v-527q0 -87 -33 -130.5t-147 -107.5l-54 78l79 71q25 23 25 62v554h130zM326 654l-49 -53l-139 94l-145 -95l-43 52l145 145h88z" />
    <glyph glyph-name="Kcommaaccent" unicode="&#x136;" horiz-adv-x="696" 
d="M214 736v-736h-139v736h139zM241 376l275 360h160l-272 -360l282 -376h-171zM409 -31v-77q0 -52 -21 -89t-80 -88l-52 28l53 103l-33 10v113h133z" />
    <glyph glyph-name="kcommaaccent" unicode="&#x137;" horiz-adv-x="555" 
d="M191 736v-736h-126v736h126zM398 0l-189 275l188 265h145l-190 -265l199 -275h-153zM356 -51v-77q0 -52 -21 -89t-80 -88l-52 28l53 103l-33 10v113h133z" />
    <glyph glyph-name="kgreenlandic" unicode="&#x138;" horiz-adv-x="555" 
d="M191 540v-540h-126v540h126zM398 0l-189 275l188 265h144l-190 -265l199 -275h-152z" />
    <glyph glyph-name="Lacute" unicode="&#x139;" horiz-adv-x="563" 
d="M551 0h-478v736h135v-628h343v-108zM318 869l-207 -88l-46 71l194 121z" />
    <glyph glyph-name="lacute" unicode="&#x13a;" horiz-adv-x="278" 
d="M194 737v-643h74v-87q-58 -18 -114 -18q-48 0 -68.5 24t-20.5 72v652h129zM297 889l-207 -88l-46 71l194 121z" />
    <glyph glyph-name="Lcommaaccent" unicode="&#x13b;" horiz-adv-x="563" 
d="M551 0h-478v736h135v-628h343v-108zM397 -51v-77q0 -52 -21 -89t-80 -88l-52 28l53 103l-33 10v113h133z" />
    <glyph glyph-name="lcommaaccent" unicode="&#x13c;" horiz-adv-x="278" 
d="M194 737v-643h74v-87q-58 -18 -114 -18q-48 0 -68.5 24t-20.5 72v652h129zM214 -51v-77q0 -52 -21 -89t-80 -88l-52 28l53 103l-33 10v113h133z" />
    <glyph glyph-name="Lcaron" unicode="&#x13d;" horiz-adv-x="563" 
d="M551 0h-478v736h135v-628h343v-108zM476 716v-77q0 -52 -21 -89t-80 -88l-52 28l53 103l-33 10v113h133z" />
    <glyph glyph-name="lcaron" unicode="&#x13e;" horiz-adv-x="381" 
d="M194 737v-643h74v-87q-58 -18 -114 -18q-48 0 -68.5 24t-20.5 72v652h129zM382 737v-77q0 -52 -21 -89t-80 -88l-52 28l53 103l-33 10v113h133z" />
    <glyph glyph-name="Ldot" unicode="&#x13f;" horiz-adv-x="563" 
d="M551 0h-478v736h135v-628h343v-108zM459 326h-129v126h129v-126z" />
    <glyph glyph-name="ldot" unicode="&#x140;" horiz-adv-x="384" 
d="M194 737v-643h74v-87q-58 -18 -114 -18q-48 0 -68.5 24t-20.5 72v652h129zM378 326h-129v126h129v-126z" />
    <glyph glyph-name="Lslash" unicode="&#x141;" horiz-adv-x="563" 
d="M551 0h-478v240l-70 -37l-41 80l111 59v394h135v-322l104 56l41 -80l-145 -78v-204h343v-108z" />
    <glyph glyph-name="lslash" unicode="&#x142;" horiz-adv-x="278" 
d="M194 737v-329l56 31l41 -80l-97 -53v-212h74v-87q-58 -18 -114 -18q-48 0 -68.5 24t-20.5 72v151l-40 -21l-41 80l81 44v398h129z" />
    <glyph glyph-name="Nacute" unicode="&#x143;" horiz-adv-x="793" 
d="M576 220l6 1v515h136v-736h-141l-360 523l-4 -3v-520h-138v736h144zM558 869l-207 -88l-46 71l194 121z" />
    <glyph glyph-name="nacute" unicode="&#x144;" horiz-adv-x="626" 
d="M561 0h-129v341q0 60 -25.5 82.5t-83.5 22.5h-129v-446h-129v534q179 19 279 19q24 0 38 -0.5t40 -4t42 -10t36.5 -19.5t32 -32t20 -48.5t8.5 -66.5v-372zM459 722l-188 -130l-57 62l169 160z" />
    <glyph glyph-name="Ncommaaccent" unicode="&#x145;" horiz-adv-x="793" 
d="M576 220l6 1v515h136v-736h-141l-360 523l-4 -3v-520h-138v736h144zM459 -31v-77q0 -52 -21 -89t-80 -88l-52 28l53 103l-33 10v113h133z" />
    <glyph glyph-name="ncommaaccent" unicode="&#x146;" horiz-adv-x="626" 
d="M561 0h-129v341q0 60 -25.5 82.5t-83.5 22.5h-129v-446h-129v534q179 19 279 19q24 0 38 -0.5t40 -4t42 -10t36.5 -19.5t32 -32t20 -48.5t8.5 -66.5v-372zM377 -51v-77q0 -52 -21 -89t-80 -88l-52 28l53 103l-33 10v113h133z" />
    <glyph glyph-name="Ncaron" unicode="&#x147;" horiz-adv-x="793" 
d="M576 220l6 1v515h136v-736h-141l-360 523l-4 -3v-520h-138v736h144zM542 967l49 -53l-143 -133h-88l-145 135l43 52l145 -85z" />
    <glyph glyph-name="ncaron" unicode="&#x148;" horiz-adv-x="626" 
d="M561 0h-129v341q0 60 -25.5 82.5t-83.5 22.5h-129v-446h-129v534q179 19 279 19q24 0 38 -0.5t40 -4t42 -10t36.5 -19.5t32 -32t20 -48.5t8.5 -66.5v-372zM443 796l49 -53l-143 -143h-88l-145 145l43 52l145 -95z" />
    <glyph glyph-name="napostrophe" unicode="&#x149;" horiz-adv-x="701" 
d="M636 0h-129v341q0 60 -25.5 82.5t-83.5 22.5h-129v-446h-129v534q179 19 279 19q24 0 38 -0.5t40 -4t42 -10t36.5 -19.5t32 -32t20 -48.5t8.5 -66.5v-372zM165 790v-77q0 -52 -21 -89t-80 -88l-52 28l53 103l-33 10v113h133z" />
    <glyph glyph-name="Eng" unicode="&#x14a;" horiz-adv-x="793" 
d="M576 229l6 1v506h136v-748q0 -49 -7.5 -81.5t-30.5 -65.5t-66.5 -60.5t-114.5 -58.5l-55 82l112 90q27 21 27 65v30l-366 532l-4 -3v-518h-138v736h144z" />
    <glyph glyph-name="eng" unicode="&#x14b;" horiz-adv-x="626" 
d="M406 -86q26 20 26 63v364q0 60 -25.5 82.5t-83.5 22.5h-129v-446h-129v534q179 19 279 19q24 0 38 -0.5t40 -4t42 -10t36.5 -19.5t32 -32t20 -48.5t8.5 -66.5v-367q0 -48 -7 -79.5t-29.5 -63.5t-65 -59t-112.5 -57l-53 80z" />
    <glyph glyph-name="Omacron" unicode="&#x14c;" horiz-adv-x="772" 
d="M362 750h45q51 0 92.5 -9t81 -34.5t66.5 -67t43.5 -110.5t16.5 -160t-16.5 -159.5t-43.5 -110t-66.5 -67t-81 -35t-92.5 -9.5h-45q-52 0 -92 8t-80 31.5t-66.5 63t-42.5 107t-16 158.5q0 116 23.5 196.5t66.5 122t93 58.5t114 17zM395 635h-8q-93 0 -136 -36t-43 -134
v-191q0 -99 38.5 -134.5t125.5 -35.5h32q81 0 122 39.5t41 130.5v191q0 99 -40.5 134.5t-131.5 35.5zM208 819v94h367v-94h-367z" />
    <glyph glyph-name="omacron" unicode="&#x14d;" horiz-adv-x="621" 
d="M317 451h-12q-61 0 -88 -24.5t-27 -91.5v-130q0 -68 24 -92t81 -24h33q53 0 78.5 27t25.5 89v130q0 68 -26 92t-89 24zM291 553h40q57 0 98 -12.5t73 -43.5t48 -87t16 -139q0 -158 -62 -220.5t-173 -62.5h-40q-56 0 -96 11t-73.5 40t-50 84.5t-16.5 138.5
q0 84 16.5 142.5t49 90t73.5 45t97 13.5zM134 639v94h367v-94h-367z" />
    <glyph glyph-name="Obreve" unicode="&#x14e;" horiz-adv-x="772" 
d="M362 750h45q51 0 92.5 -9t81 -34.5t66.5 -67t43.5 -110.5t16.5 -160t-16.5 -159.5t-43.5 -110t-66.5 -67t-81 -35t-92.5 -9.5h-45q-52 0 -92 8t-80 31.5t-66.5 63t-42.5 107t-16 158.5q0 116 23.5 196.5t66.5 122t93 58.5t114 17zM395 635h-8q-93 0 -136 -36t-43 -134
v-191q0 -99 38.5 -134.5t125.5 -35.5h32q81 0 122 39.5t41 130.5v191q0 99 -40.5 134.5t-131.5 35.5zM395 784q-138 0 -172 155l55 26q26 -50 53 -67.5t61 -17.5q37 0 63.5 16t55.5 67l53 -25q-39 -154 -169 -154z" />
    <glyph glyph-name="obreve" unicode="&#x14f;" horiz-adv-x="621" 
d="M317 451h-12q-61 0 -88 -24.5t-27 -91.5v-130q0 -68 24 -92t81 -24h33q53 0 78.5 27t25.5 89v130q0 68 -26 92t-89 24zM291 553h40q57 0 98 -12.5t73 -43.5t48 -87t16 -139q0 -158 -62 -220.5t-173 -62.5h-40q-56 0 -96 11t-73.5 40t-50 84.5t-16.5 138.5
q0 84 16.5 142.5t49 90t73.5 45t97 13.5zM327 602q-146 0 -182 162l55 26q55 -92 124 -92q75 0 129 90l53 -25q-20 -78 -67 -119.5t-112 -41.5z" />
    <glyph glyph-name="Ohungarumlaut" unicode="&#x150;" horiz-adv-x="772" 
d="M362 750h45q51 0 92.5 -9t81 -34.5t66.5 -67t43.5 -110.5t16.5 -160t-16.5 -159.5t-43.5 -110t-66.5 -67t-81 -35t-92.5 -9.5h-45q-52 0 -92 8t-80 31.5t-66.5 63t-42.5 107t-16 158.5q0 116 23.5 196.5t66.5 122t93 58.5t114 17zM395 635h-8q-93 0 -136 -36t-43 -134
v-191q0 -99 38.5 -134.5t125.5 -35.5h32q81 0 122 39.5t41 130.5v191q0 99 -40.5 134.5t-131.5 35.5zM420 869l-207 -88l-46 71l194 121zM671 869l-207 -88l-46 71l194 121z" />
    <glyph glyph-name="ohungarumlaut" unicode="&#x151;" horiz-adv-x="621" 
d="M317 451h-12q-61 0 -88 -24.5t-27 -91.5v-130q0 -68 24 -92t81 -24h33q53 0 78.5 27t25.5 89v130q0 68 -26 92t-89 24zM291 553h40q57 0 98 -12.5t73 -43.5t48 -87t16 -139q0 -158 -62 -220.5t-173 -62.5h-40q-56 0 -96 11t-73.5 40t-50 84.5t-16.5 138.5
q0 84 16.5 142.5t49 90t73.5 45t97 13.5zM362 722l-188 -130l-57 62l169 160zM562 722l-188 -130l-57 62l169 160z" />
    <glyph glyph-name="OE" unicode="&#x152;" horiz-adv-x="994" 
d="M938 736v-114h-373v-183h351v-114h-351v-211h379v-114h-435q-48 -12 -112 -12h-35q-52 0 -92 8t-80 31.5t-66.5 63t-42.5 107t-16 158.5q0 116 23.5 196.5t66.5 122t93 58.5t114 17h35q72 0 121 -14h420zM388 635h-1q-93 0 -136 -36t-43 -134v-191q0 -99 38.5 -134.5
t125.5 -35.5h32q16 0 24 1v528q-26 2 -40 2z" />
    <glyph glyph-name="oe" unicode="&#x153;" horiz-adv-x="968" 
d="M291 553h40q118 0 172 -57q60 57 182 57q233 0 233 -208v-39q0 -44 -22.5 -62t-54.5 -18h-277v-55q0 -42 22 -59.5t68 -17.5h235v-87q-87 -18 -226 -18q-118 0 -171 50q-55 -51 -161 -51h-40q-56 0 -96 11t-73.5 40t-50 84.5t-16.5 138.5q0 84 16.5 142.5t49 90t73.5 45
t97 13.5zM317 451h-12q-61 0 -88 -24.5t-27 -91.5v-130q0 -68 24 -92t81 -24h33q53 0 78.5 27t25.5 89v130q0 68 -26 92t-89 24zM792 323v49q0 31 -17.5 54.5t-62.5 23.5h-62q-43 0 -64.5 -28.5t-21.5 -59.5v-39h228z" />
    <glyph glyph-name="Racute" unicode="&#x154;" horiz-adv-x="704" 
d="M381 750q273 0 273 -225q0 -131 -127 -238l152 -287h-155l-130 261h-182v-261h-137v730q156 20 306 20zM395 633h-183v-259h233q27 21 48 63.5t21 83.5q0 112 -119 112zM498 869l-207 -88l-46 71l194 121z" />
    <glyph glyph-name="racute" unicode="&#x155;" horiz-adv-x="407" 
d="M402 553v-107h-203v-446h-129v529q147 24 332 24zM347 722l-188 -130l-57 62l169 160z" />
    <glyph glyph-name="Rcommaaccent" unicode="&#x156;" horiz-adv-x="704" 
d="M381 750q273 0 273 -225q0 -131 -127 -238l152 -287h-155l-130 261h-182v-261h-137v730q156 20 306 20zM395 633h-183v-259h233q27 21 48 63.5t21 83.5q0 112 -119 112zM424 -31v-77q0 -52 -21 -89t-80 -88l-52 28l53 103l-33 10v113h133z" />
    <glyph glyph-name="rcommaaccent" unicode="&#x157;" horiz-adv-x="407" 
d="M402 553v-107h-203v-446h-129v529q147 24 332 24zM206 -43v-77q0 -52 -21 -89t-80 -88l-52 28l53 103l-33 10v113h133z" />
    <glyph glyph-name="Rcaron" unicode="&#x158;" horiz-adv-x="704" 
d="M381 750q273 0 273 -225q0 -131 -127 -238l152 -287h-155l-130 261h-182v-261h-137v730q156 20 306 20zM395 633h-183v-259h233q27 21 48 63.5t21 83.5q0 112 -119 112zM488 967l49 -53l-143 -133h-88l-145 135l43 52l145 -85z" />
    <glyph glyph-name="rcaron" unicode="&#x159;" horiz-adv-x="407" 
d="M402 553v-107h-203v-446h-129v529q147 24 332 24zM346 796l49 -53l-143 -143h-88l-145 145l43 52l145 -95z" />
    <glyph glyph-name="Sacute" unicode="&#x15a;" horiz-adv-x="627" 
d="M285 750q141 0 264 -19v-97h-254q-108 0 -108 -81q0 -30 34.5 -52t110.5 -53l73 -31q24 -10 65 -34.5t62 -47t38 -58.5t17 -78q0 -211 -283 -211q-150 0 -255 19v97h280q119 0 119 97q0 42 -42 71.5t-123 63.5l-40 16l-43 18q-14 6 -39 18t-38 21.5t-30.5 25.5t-26 31.5
t-15 36.5t-6.5 45q0 202 240 202zM460 869l-207 -88l-46 71l194 121z" />
    <glyph glyph-name="sacute" unicode="&#x15b;" horiz-adv-x="512" 
d="M235 553q113 0 212 -16v-91h-208q-66 0 -66 -45q0 -26 59 -50q12 -5 47.5 -17t55 -20t50 -25t47 -34.5t29.5 -44.5t13 -60q0 -91 -60.5 -126.5t-165.5 -35.5q-116 0 -206 17v89h226q75 0 75 59q0 30 -50 53q-18 8 -58 21.5t-68.5 25.5t-60 31t-48.5 48t-17 66q0 44 16 75
t44 48t61 24.5t73 7.5zM401 722l-188 -130l-57 62l169 160z" />
    <glyph glyph-name="Scircumflex" unicode="&#x15c;" horiz-adv-x="627" 
d="M285 750q141 0 264 -19v-97h-254q-108 0 -108 -81q0 -30 34.5 -52t110.5 -53l73 -31q24 -10 65 -34.5t62 -47t38 -58.5t17 -78q0 -211 -283 -211q-150 0 -255 19v97h280q119 0 119 97q0 42 -42 71.5t-123 63.5l-40 16l-43 18q-14 6 -39 18t-38 21.5t-30.5 25.5t-26 31.5
t-15 36.5t-6.5 45q0 202 240 202zM503 831l-49 -53l-139 84l-145 -85l-43 52l145 135h88z" />
    <glyph glyph-name="scircumflex" unicode="&#x15d;" horiz-adv-x="512" 
d="M235 553q113 0 212 -16v-91h-208q-66 0 -66 -45q0 -26 59 -50q12 -5 47.5 -17t55 -20t50 -25t47 -34.5t29.5 -44.5t13 -60q0 -91 -60.5 -126.5t-165.5 -35.5q-116 0 -206 17v89h226q75 0 75 59q0 30 -50 53q-18 8 -58 21.5t-68.5 25.5t-60 31t-48.5 48t-17 66q0 44 16 75
t44 48t61 24.5t73 7.5zM441 654l-49 -53l-139 94l-145 -95l-43 52l145 145h88z" />
    <glyph glyph-name="Scedilla" unicode="&#x15e;" horiz-adv-x="627" 
d="M285 750q141 0 264 -19v-97h-254q-108 0 -108 -81q0 -30 34.5 -52t110.5 -53l73 -30q24 -11 65 -35.5t62 -47t38 -58.5t17 -78q0 -199 -250 -210l-21 -54l49 -8q90 -14 90 -93q0 -54 -33.5 -82t-88.5 -28q-77 0 -135 11v65h112q39 0 39 31q0 13 -6.5 19t-23.5 9l-63 12
q-32 6 -22 34l30 83q-120 2 -215 19v97h280q119 0 119 97q0 42 -42 71.5t-123 63.5l-40 16l-43 18q-14 6 -39 18t-38 21.5t-30.5 25.5t-26 31.5t-15 36.5t-6.5 45q0 202 240 202z" />
    <glyph glyph-name="scedilla" unicode="&#x15f;" horiz-adv-x="512" 
d="M235 553q113 0 212 -16v-91h-208q-66 0 -66 -45q0 -26 59 -50q12 -5 47.5 -17t55 -20t50 -25t47 -34.5t29.5 -44.5t13 -60q0 -154 -199 -161l-21 -54l49 -8q90 -14 90 -93q0 -54 -33.5 -82t-88.5 -28q-77 0 -135 11v65h112q39 0 39 31q0 13 -6.5 19t-23.5 9l-63 12
q-32 6 -22 34l30 84q-86 2 -160 16v89h226q75 0 75 59q0 30 -50 53q-18 8 -58 21.5t-68.5 25.5t-60 31t-48.5 48t-17 66q0 44 16 75t44 48t61 24.5t73 7.5z" />
    <glyph glyph-name="Scaron" unicode="&#x160;" horiz-adv-x="627" 
d="M285 750q141 0 264 -19v-97h-254q-108 0 -108 -81q0 -30 34.5 -52t110.5 -53l73 -31q24 -10 65 -34.5t62 -47t38 -58.5t17 -78q0 -211 -283 -211q-150 0 -255 19v97h280q119 0 119 97q0 42 -42 71.5t-123 63.5l-40 16l-43 18q-14 6 -39 18t-38 21.5t-30.5 25.5t-26 31.5
t-15 36.5t-6.5 45q0 202 240 202zM439 967l49 -53l-143 -133h-88l-145 135l43 52l145 -85z" />
    <glyph glyph-name="scaron" unicode="&#x161;" horiz-adv-x="512" 
d="M235 553q113 0 212 -16v-91h-208q-66 0 -66 -45q0 -26 59 -50q12 -5 47.5 -17t55 -20t50 -25t47 -34.5t29.5 -44.5t13 -60q0 -91 -60.5 -126.5t-165.5 -35.5q-116 0 -206 17v89h226q75 0 75 59q0 30 -50 53q-18 8 -58 21.5t-68.5 25.5t-60 31t-48.5 48t-17 66q0 44 16 75
t44 48t61 24.5t73 7.5zM385 796l49 -53l-143 -143h-88l-145 145l43 52l145 -95z" />
    <glyph glyph-name="Tcommaaccent" unicode="&#x162;" horiz-adv-x="606" 
d="M596 622h-226v-622h-29l-26 -65l49 -8q90 -14 90 -93q0 -54 -33.5 -82t-88.5 -28q-77 0 -135 11v65h112q39 0 39 31q0 13 -6.5 19t-23.5 9l-63 12q-32 6 -22 34l35 95h-32v622h-226v114h586v-114z" />
    <glyph glyph-name="tcommaaccent" unicode="&#x163;" horiz-adv-x="462" 
d="M245 446v-270q0 -44 21 -63t76 -19h100v-87q-77 -19 -148 -19q-34 0 -60 6l-16 -40l49 -8q90 -14 90 -93q0 -54 -33.5 -82t-88.5 -28q-77 0 -135 11v65h112q39 0 39 31q0 13 -6.5 19t-23.5 9l-63 12q-32 6 -22 34l36 98q-55 43 -55 153v271h-97v79l104 14l40 163h82v-163
h168v-93h-169z" />
    <glyph glyph-name="Tcaron" unicode="&#x164;" horiz-adv-x="606" 
d="M596 622h-226v-622h-134v622h-226v114h586v-114zM443 967l49 -53l-143 -133h-88l-145 135l43 52l145 -85z" />
    <glyph glyph-name="tcaron" unicode="&#x165;" horiz-adv-x="491" 
d="M480 836v-77q0 -52 -21 -89t-80 -88l-52 28l53 103l-33 10v113h133zM245 446v-270q0 -44 21 -63t76 -19h100v-87q-77 -19 -148 -19q-99 0 -138 48.5t-39 138.5v271h-97v79l104 14l40 163h82v-163h168v-93h-169z" />
    <glyph glyph-name="Tbar" unicode="&#x166;" horiz-adv-x="606" 
d="M596 622h-226v-203h177v-87h-177v-332h-134v332h-167v87h167v203h-226v114h586v-114z" />
    <glyph glyph-name="tbar" unicode="&#x167;" horiz-adv-x="462" 
d="M245 446v-107h156v-87h-156v-76q0 -44 21 -63t76 -19h100v-87q-77 -19 -148 -19q-99 0 -138 48.5t-39 138.5v77h-78v87h78v107h-97v79l104 14l40 163h82v-163h168v-93h-169z" />
    <glyph glyph-name="Utilde" unicode="&#x168;" horiz-adv-x="757" 
d="M75 736h138v-518q0 -107 112 -107h218v625h139v-717q-170 -32 -317 -32q-32 0 -50 0.5t-47 2.5t-46 6.5t-40 12.5t-36.5 19.5t-28.5 29.5t-23 41t-13.5 54.5t-5.5 69.5v513zM471 796q-37 0 -96.5 20.5t-76.5 20.5l-56 -41l-44 32q17 49 45 75t61 26q29 0 89 -20t83 -20
l56 43l44 -34q-15 -48 -42.5 -75t-62.5 -27z" />
    <glyph glyph-name="utilde" unicode="&#x169;" horiz-adv-x="616" 
d="M65 539h129v-371q0 -36 17.5 -55t62.5 -19h148v445h129v-532q-153 -18 -269 -18q-24 0 -38 0.5t-40 4t-42 10t-36.5 19.5t-32 32t-20 48.5t-8.5 66.5v369zM392 626q-37 0 -96.5 20.5t-76.5 20.5l-56 -41l-44 32q17 49 45 75t61 26q29 0 89 -20t83 -20l56 43l44 -34
q-15 -48 -42.5 -75t-62.5 -27z" />
    <glyph glyph-name="Umacron" unicode="&#x16a;" horiz-adv-x="757" 
d="M75 736h138v-518q0 -107 112 -107h218v625h139v-717q-170 -32 -317 -32q-32 0 -50 0.5t-47 2.5t-46 6.5t-40 12.5t-36.5 19.5t-28.5 29.5t-23 41t-13.5 54.5t-5.5 69.5v513zM205 819v94h367v-94h-367z" />
    <glyph glyph-name="umacron" unicode="&#x16b;" horiz-adv-x="616" 
d="M65 539h129v-371q0 -36 17.5 -55t62.5 -19h148v445h129v-532q-153 -18 -269 -18q-24 0 -38 0.5t-40 4t-42 10t-36.5 19.5t-32 32t-20 48.5t-8.5 66.5v369zM131 648v94h367v-94h-367z" />
    <glyph glyph-name="Ubreve" unicode="&#x16c;" horiz-adv-x="757" 
d="M75 736h138v-518q0 -107 112 -107h218v625h139v-717q-170 -32 -317 -32q-32 0 -50 0.5t-47 2.5t-46 6.5t-40 12.5t-36.5 19.5t-28.5 29.5t-23 41t-13.5 54.5t-5.5 69.5v513zM387 784q-138 0 -172 155l55 26q26 -50 53 -67.5t61 -17.5q37 0 63.5 16t55.5 67l53 -25
q-39 -154 -169 -154z" />
    <glyph glyph-name="ubreve" unicode="&#x16d;" horiz-adv-x="616" 
d="M65 539h129v-371q0 -36 17.5 -55t62.5 -19h148v445h129v-532q-153 -18 -269 -18q-24 0 -38 0.5t-40 4t-42 10t-36.5 19.5t-32 32t-20 48.5t-8.5 66.5v369zM317 602q-146 0 -182 162l55 26q55 -92 124 -92q75 0 129 90l53 -25q-20 -78 -67 -119.5t-112 -41.5z" />
    <glyph glyph-name="Uring" unicode="&#x16e;" horiz-adv-x="757" 
d="M75 736h138v-518q0 -107 112 -107h218v625h139v-717q-170 -32 -317 -32q-32 0 -50 0.5t-47 2.5t-46 6.5t-40 12.5t-36.5 19.5t-28.5 29.5t-23 41t-13.5 54.5t-5.5 69.5v513zM388 770q-49 0 -84 34t-35 81t35 81t84 34t82 -34t33 -81q0 -48 -34 -81.5t-81 -33.5zM388 930
q-21 0 -34.5 -13.5t-13.5 -33.5t13 -34t35 -14q20 0 32.5 14t12.5 34t-12.5 33.5t-32.5 13.5z" />
    <glyph glyph-name="uring" unicode="&#x16f;" horiz-adv-x="616" 
d="M65 539h129v-371q0 -36 17.5 -55t62.5 -19h148v445h129v-532q-153 -18 -269 -18q-24 0 -38 0.5t-40 4t-42 10t-36.5 19.5t-32 32t-20 48.5t-8.5 66.5v369zM311 598q-49 0 -84 34t-35 81t35 81t84 34t82 -34t33 -81q0 -48 -34 -81.5t-81 -33.5zM311 758q-21 0 -34.5 -13.5
t-13.5 -33.5t13 -34t35 -14q20 0 32.5 14t12.5 34t-12.5 33.5t-32.5 13.5z" />
    <glyph glyph-name="Uhungarumlaut" unicode="&#x170;" horiz-adv-x="757" 
d="M75 736h138v-518q0 -107 112 -107h218v625h139v-717q-170 -32 -317 -32q-32 0 -50 0.5t-47 2.5t-46 6.5t-40 12.5t-36.5 19.5t-28.5 29.5t-23 41t-13.5 54.5t-5.5 69.5v513zM425 869l-207 -88l-46 71l194 121zM676 869l-207 -88l-46 71l194 121z" />
    <glyph glyph-name="uhungarumlaut" unicode="&#x171;" horiz-adv-x="616" 
d="M65 539h129v-371q0 -36 17.5 -55t62.5 -19h148v445h129v-532q-153 -18 -269 -18q-24 0 -38 0.5t-40 4t-42 10t-36.5 19.5t-32 32t-20 48.5t-8.5 66.5v369zM352 722l-188 -130l-57 62l169 160zM552 722l-188 -130l-57 62l169 160z" />
    <glyph glyph-name="Uogonek" unicode="&#x172;" horiz-adv-x="757" 
d="M75 736h138v-518q0 -107 112 -107h218v625h139v-717q-123 -23 -245 -29q-62 -66 -62 -129q0 -27 18.5 -37t53.5 -10h91v-63q-59 -13 -140 -13q-71 0 -103.5 24.5t-32.5 77.5q0 81 88 147q-37 0 -61 1.5t-56 6.5t-52.5 14.5t-42.5 26.5t-34.5 42t-20.5 61.5t-8 83.5v513z
" />
    <glyph glyph-name="uogonek" unicode="&#x173;" horiz-adv-x="616" 
d="M65 539h129v-371q0 -36 17.5 -55t62.5 -19h148v445h129v-532q-44 -6 -88 -9q-65 -70 -65 -132q0 -27 18.5 -37t53.5 -10h91v-63q-59 -13 -140 -13q-71 0 -103.5 24.5t-32.5 77.5q0 80 87 146q-60 -2 -90 -2q-24 0 -38 0.5t-40 4t-42 10t-36.5 19.5t-32 32t-20 48.5
t-8.5 66.5v369z" />
    <glyph glyph-name="Wcircumflex" unicode="&#x174;" horiz-adv-x="1102" 
d="M776 135h6l162 601h143l-227 -736h-161l-135 410h-6l-138 -410h-161l-244 736h146l175 -603h6l152 438l-58 165h145zM729 831l-49 -53l-139 84l-145 -85l-43 52l145 135h88z" />
    <glyph glyph-name="wcircumflex" unicode="&#x175;" horiz-adv-x="872" 
d="M610 138h4l114 401h129l-173 -539h-147l-90 250l-4 -1q-15 -42 -48.5 -125t-48.5 -124h-147l-184 539h130l129 -411h4l54 138q38 94 56 143l-46 130h129zM622 654l-49 -53l-139 94l-145 -95l-43 52l145 145h88z" />
    <glyph glyph-name="Ycircumflex" unicode="&#x176;" horiz-adv-x="691" 
d="M348 370h6l193 366h142l-270 -487v-249h-134v249l-281 487h146zM535 831l-49 -53l-139 84l-145 -85l-43 52l145 135h88z" />
    <glyph glyph-name="ycircumflex" unicode="&#x177;" horiz-adv-x="602" 
d="M308 -206h-125l78 206h-50l-199 539h133l146 -425h10l160 425h126zM503 654l-49 -53l-139 94l-145 -95l-43 52l145 145h88z" />
    <glyph glyph-name="Ydieresis" unicode="&#x178;" horiz-adv-x="691" 
d="M348 370h6l193 366h142l-270 -487v-249h-134v249l-281 487h146zM308 803h-113v110h113v-110zM504 803h-113v110h113v-110z" />
    <glyph glyph-name="Zacute" unicode="&#x179;" horiz-adv-x="650" 
d="M610 0h-575v123l420 499h-401v114h546v-121l-411 -501h421v-114zM492 869l-207 -88l-46 71l194 121z" />
    <glyph glyph-name="zacute" unicode="&#x17a;" horiz-adv-x="561" 
d="M67 435v105h453v-94l-310 -341h311v-105h-481v93l311 342h-284zM459 722l-188 -130l-57 62l169 160z" />
    <glyph glyph-name="Zdotaccent" unicode="&#x17b;" horiz-adv-x="650" 
d="M610 0h-575v123l420 499h-401v114h546v-121l-411 -501h421v-114zM391 792h-129v126h129v-126z" />
    <glyph glyph-name="zdotaccent" unicode="&#x17c;" horiz-adv-x="561" 
d="M67 435v105h453v-94l-310 -341h311v-105h-481v93l311 342h-284zM358 622h-129v126h129v-126z" />
    <glyph glyph-name="Zcaron" unicode="&#x17d;" horiz-adv-x="650" 
d="M610 0h-575v123l420 499h-401v114h546v-121l-411 -501h421v-114zM472 967l49 -53l-143 -133h-88l-145 135l43 52l145 -85z" />
    <glyph glyph-name="zcaron" unicode="&#x17e;" horiz-adv-x="561" 
d="M67 435v105h453v-94l-310 -341h311v-105h-481v93l311 342h-284zM434 796l49 -53l-143 -143h-88l-145 145l43 52l145 -95z" />
    <glyph glyph-name="florin" unicode="&#x192;" 
d="M249 341h-119v94h131l13 103q4 35 9 58t16.5 50t29 42.5t47.5 26t71 10.5q74 0 128 -19v-87h-81q-53 0 -70 -17.5t-23 -64.5l-12 -102h146v-94h-158l-28 -264q-10 -93 -51.5 -142.5t-143.5 -49.5q-52 0 -110 19v87h85q52 0 67 17t21 65z" />
    <glyph glyph-name="AEacute" unicode="&#x1fc;" horiz-adv-x="1087" 
d="M1037 0h-506v193h-257l-114 -193h-154l444 736h582v-114h-365v-184h343v-112h-343v-212h370v-114zM531 625l-193 -324h193v324zM780 869l-207 -88l-46 71l194 121z" />
    <glyph glyph-name="aeacute" unicode="&#x1fd;" horiz-adv-x="945" 
d="M541 231v-58q0 -42 22 -59.5t68 -17.5h235v-87q-87 -18 -226 -18q-130 0 -182 62q-90 -69 -208 -69q-35 0 -61 3t-55.5 13.5t-48.5 28.5t-32 51t-13 79q0 53 16.5 88.5t48 52t63.5 22.5t76 6h173v35q0 47 -20.5 65t-69.5 18h-205v92q99 15 193 15q125 0 176 -47
q61 47 171 47q233 0 233 -208v-34q0 -44 -22.5 -62t-54.5 -18h-277zM246 87q99 -3 177 56q-8 41 -9 91h-162q-36 0 -56.5 -12t-20.5 -48v-19q0 -67 71 -68zM769 328v44q0 31 -17.5 54.5t-62.5 23.5h-62q-43 0 -64.5 -28.5t-21.5 -59.5v-34h228zM685 722l-188 -130l-57 62
l169 160z" />
    <glyph glyph-name="Oslashacute" unicode="&#x1fe;" horiz-adv-x="772" 
d="M573 869l-207 -88l-46 71l194 121zM362 750h45q99 0 164 -38l34 52l56 -38l-38 -57q84 -94 84 -300q0 -91 -16.5 -159.5t-43.5 -110t-66.5 -67t-81 -35t-92.5 -9.5h-45q-105 0 -167 35l-34 -52l-55 38l37 56q-78 88 -78 291q0 116 23.5 196.5t66.5 122t93 58.5t114 17z
M372 104h32q81 0 122 39.5t41 130.5v191q0 60 -15 96l-289 -435q35 -22 109 -22zM390 635h-4q-93 0 -135.5 -36t-42.5 -134v-191q0 -58 12 -92l286 432q-38 21 -116 21z" />
    <glyph glyph-name="oslashacute" unicode="&#x1ff;" horiz-adv-x="621" 
d="M497 722l-188 -130l-57 62l169 160zM291 553h40q77 0 126 -24l26 39l56 -38l-29 -42q56 -67 56 -217q0 -158 -62 -220.5t-173 -62.5h-40q-67 0 -111 15l-29 -42l-55 38l26 39q-67 64 -67 224q0 84 16.5 142.5t49 90t73.5 45t97 13.5zM317 451h-12q-61 0 -88 -24.5
t-27 -91.5v-130q0 -35 6 -59l197 290q-25 15 -76 15zM295 89h33q53 0 78.5 27t25.5 89v130q0 13 -2 35l-187 -275q21 -6 52 -6z" />
    <glyph glyph-name="Scommaaccent" unicode="&#x218;" horiz-adv-x="627" 
d="M285 750q141 0 264 -19v-97h-254q-108 0 -108 -81q0 -30 34.5 -52t110.5 -53l73 -31q24 -10 65 -34.5t62 -47t38 -58.5t17 -78q0 -211 -283 -211q-150 0 -255 19v97h280q119 0 119 97q0 42 -42 71.5t-123 63.5l-40 16l-43 18q-14 6 -39 18t-38 21.5t-30.5 25.5t-26 31.5
t-15 36.5t-6.5 45q0 202 240 202zM371 -51v-77q0 -52 -21 -89t-80 -88l-52 28l53 103l-33 10v113h133z" />
    <glyph glyph-name="scommaaccent" unicode="&#x219;" horiz-adv-x="512" 
d="M235 553q113 0 212 -16v-91h-208q-66 0 -66 -45q0 -26 59 -50q12 -5 47.5 -17t55 -20t50 -25t47 -34.5t29.5 -44.5t13 -60q0 -91 -60.5 -126.5t-165.5 -35.5q-116 0 -206 17v89h226q75 0 75 59q0 30 -50 53q-18 8 -58 21.5t-68.5 25.5t-60 31t-48.5 48t-17 66q0 44 16 75
t44 48t61 24.5t73 7.5zM319 -51v-77q0 -52 -21 -89t-80 -88l-52 28l53 103l-33 10v113h133z" />
    <glyph glyph-name="uni021A" unicode="&#x21a;" horiz-adv-x="606" 
d="M596 622h-226v-622h-134v622h-226v114h586v-114zM373 -51v-77q0 -52 -21 -89t-80 -88l-52 28l53 103l-33 10v113h133z" />
    <glyph glyph-name="uni021B" unicode="&#x21b;" horiz-adv-x="462" 
d="M245 446v-270q0 -44 21 -63t76 -19h100v-87q-77 -19 -148 -19q-99 0 -138 48.5t-39 138.5v271h-97v79l104 14l40 163h82v-163h168v-93h-169zM281 -51v-77q0 -52 -21 -89t-80 -88l-52 28l53 103l-33 10v113h133z" />
    <glyph glyph-name="schwa" unicode="&#x259;" horiz-adv-x="591" 
d="M409 316v55q0 42 -22 59.5t-68 17.5h-220v87q87 18 211 18q133 0 182 -63t49 -210q0 -146 -56 -218.5t-197 -72.5q-233 0 -233 208v39q0 44 22.5 62t54.5 18h277zM181 219v-49q0 -31 17.5 -54.5t62.5 -23.5h62q43 0 64.5 28.5t21.5 59.5v39h-228z" />
    <glyph glyph-name="primemod" unicode="&#x2b9;" horiz-adv-x="260" 
d="M262 646l-191 -276l-70 40l163 298z" />
    <glyph glyph-name="circumflex" unicode="&#x2c6;" horiz-adv-x="605" 
d="M508 654l-49 -53l-139 94l-145 -95l-43 52l145 145h88z" />
    <glyph glyph-name="caron" unicode="&#x2c7;" horiz-adv-x="605" 
d="M459 796l49 -53l-143 -143h-88l-145 145l43 52l145 -95z" />
    <glyph glyph-name="breve" unicode="&#x2d8;" horiz-adv-x="605" 
d="M327 602q-146 0 -182 162l55 26q55 -92 124 -92q75 0 129 90l53 -25q-20 -78 -67 -119.5t-112 -41.5z" />
    <glyph glyph-name="dotaccent" unicode="&#x2d9;" horiz-adv-x="605" 
d="M382 622h-129v126h129v-126z" />
    <glyph glyph-name="ring" unicode="&#x2da;" horiz-adv-x="605" 
d="M327 598q-49 0 -84 34t-35 81t35 81t84 34t82 -34t33 -81q0 -48 -34 -81.5t-81 -33.5zM327 758q-21 0 -34.5 -13.5t-13.5 -33.5t13 -34t35 -14q20 0 32.5 14t12.5 34t-12.5 33.5t-32.5 13.5z" />
    <glyph glyph-name="ogonek" unicode="&#x2db;" horiz-adv-x="573" 
d="M401 38l31 -16q-92 -83 -92 -158q0 -27 18.5 -37t53.5 -10h91v-63q-59 -13 -140 -13q-71 0 -103.5 24.5t-32.5 77.5q0 15 5.5 34t21 48t54 59.5t93.5 53.5z" />
    <glyph glyph-name="tilde" unicode="&#x2dc;" horiz-adv-x="605" 
d="M407 626q-37 0 -96.5 20.5t-76.5 20.5l-56 -41l-44 32q17 49 45 75t61 26q29 0 89 -20t83 -20l56 43l44 -34q-15 -48 -42.5 -75t-62.5 -27z" />
    <glyph glyph-name="hungarumlaut" unicode="&#x2dd;" horiz-adv-x="605" 
d="M339 722l-188 -130l-57 62l169 160zM539 722l-188 -130l-57 62l169 160z" />
    <glyph glyph-name="tonos" unicode="&#x384;" horiz-adv-x="605" 
d="M489 722l-188 -130l-57 62l169 160z" />
    <glyph glyph-name="dieresistonos" unicode="&#x385;" horiz-adv-x="605" 
d="M218 642h-110v108h110v-108zM536 642h-110v108h110v-108zM429 773l-132 -179l-72 39l106 201z" />
    <glyph glyph-name="Alphatonos" unicode="&#x386;" horiz-adv-x="747" 
d="M181 662l-188 -130l-57 62l169 160zM593 0l-59 164h-320l-59 -164h-145l283 736h163l281 -736h-144zM375 599h-6l-116 -323h239z" />
    <glyph glyph-name="anoteleia" unicode="&#x387;" horiz-adv-x="251" 
d="M50 320v142h151v-142h-151z" />
    <glyph glyph-name="Epsilontonos" unicode="&#x388;" horiz-adv-x="651" 
d="M34 662l-188 -130l-57 62l169 160zM595 736v-114h-383v-183h361v-114h-361v-211h389v-114h-526v736h520z" />
    <glyph glyph-name="Etatonos" unicode="&#x389;" horiz-adv-x="757" 
d="M35 659l-188 -130l-57 62l169 160zM682 0h-139v327h-331v-327h-137v736h137v-294h331v294h139v-736z" />
    <glyph glyph-name="Iotatonos" unicode="&#x38a;" horiz-adv-x="295" 
d="M42 659l-188 -130l-57 62l169 160zM215 0h-135v736h135v-736z" />
    <glyph glyph-name="Omicrontonos" unicode="&#x38c;" horiz-adv-x="772" 
d="M75 660l-188 -130l-57 62l169 160zM362 750h45q51 0 92.5 -9t81 -34.5t66.5 -67t43.5 -110.5t16.5 -160t-16.5 -159.5t-43.5 -110t-66.5 -67t-81 -35t-92.5 -9.5h-45q-52 0 -92 8t-80 31.5t-66.5 63t-42.5 107t-16 158.5q0 116 23.5 196.5t66.5 122t93 58.5t114 17z
M395 635h-8q-93 0 -136 -36t-43 -134v-191q0 -99 38.5 -134.5t125.5 -35.5h32q81 0 122 39.5t41 130.5v191q0 99 -40.5 134.5t-131.5 35.5z" />
    <glyph glyph-name="Upsilontonos" unicode="&#x38e;" horiz-adv-x="710" 
d="M3 658l-188 -130l-57 62l169 160zM361 370h6l193 366h142l-270 -487v-249h-134v249l-281 487h146z" />
    <glyph glyph-name="Omegatonos" unicode="&#x38f;" horiz-adv-x="770" 
d="M60 658l-188 -130l-57 62l169 160zM629 118l3 -3h93v-115h-258v118q107 51 107 212v125q0 101 -42 140.5t-137 39.5h-16q-95 0 -137 -39.5t-42 -140.5v-125q0 -167 105 -212v-118h-260v115h89v6q-43 35 -60 95.5t-17 161.5q0 372 297 372h60q300 0 300 -358
q0 -206 -85 -274z" />
    <glyph glyph-name="iotadieresistonos" unicode="&#x390;" horiz-adv-x="269" 
d="M35 642h-110v108h110v-108zM353 642h-110v108h110v-108zM246 773l-132 -179l-72 39l106 201zM199 0h-129v540h129v-540z" />
    <glyph glyph-name="Alpha" unicode="&#x391;" horiz-adv-x="747" 
d="M593 0l-59 164h-320l-59 -164h-145l283 736h163l281 -736h-144zM375 599h-6l-116 -323h239z" />
    <glyph glyph-name="Beta" unicode="&#x392;" horiz-adv-x="710" 
d="M618 568q0 -94 -68 -152q56 -28 83 -82t27 -117q0 -67 -21.5 -113.5t-60.5 -71t-84 -34.5t-103 -10q-183 0 -316 22v722q152 18 282 18q59 0 101.5 -6.5t81 -25t58.5 -56t20 -94.5zM399 325h-187v-220h195q63 0 87.5 27t24.5 84q0 66 -29.5 87.5t-90.5 21.5zM212 441h229
q36 54 36 110q0 45 -24 63.5t-86 18.5h-155v-192z" />
    <glyph glyph-name="Gamma" unicode="&#x393;" horiz-adv-x="603" 
d="M583 622h-372v-622h-136v736h508v-114z" />
    <glyph glyph-name="Delta" unicode="&#x394;" horiz-adv-x="747" 
d="M737 0h-727l283 736h163zM372 606l-178 -499h360z" />
    <glyph glyph-name="Delta" unicode="&#x2206;" horiz-adv-x="747" 
d="M737 0h-727l283 736h163zM372 606l-178 -499h360z" />
    <glyph glyph-name="Epsilon" unicode="&#x395;" horiz-adv-x="651" 
d="M595 736v-114h-383v-183h361v-114h-361v-211h389v-114h-526v736h520z" />
    <glyph glyph-name="Zeta" unicode="&#x396;" horiz-adv-x="650" 
d="M610 0h-575v123l420 499h-401v114h546v-121l-411 -501h421v-114z" />
    <glyph glyph-name="Eta" unicode="&#x397;" horiz-adv-x="757" 
d="M682 0h-139v327h-331v-327h-137v736h137v-294h331v294h139v-736z" />
    <glyph glyph-name="Theta" unicode="&#x398;" horiz-adv-x="772" 
d="M281 327v114h216v-114h-216zM362 750h45q51 0 92.5 -9t81 -34.5t66.5 -67t43.5 -110.5t16.5 -160t-16.5 -159.5t-43.5 -110t-66.5 -67t-81 -35t-92.5 -9.5h-45q-52 0 -92 8t-80 31.5t-66.5 63t-42.5 107t-16 158.5q0 116 23.5 196.5t66.5 122t93 58.5t114 17zM390 635h-5
q-93 0 -135 -35.5t-42 -134.5v-191q0 -99 38.5 -134.5t125.5 -35.5h32q81 0 122 39.5t41 130.5v191q0 100 -40.5 135t-136.5 35z" />
    <glyph glyph-name="Iota" unicode="&#x399;" horiz-adv-x="295" 
d="M215 0h-135v736h135v-736z" />
    <glyph glyph-name="Kappa" unicode="&#x39a;" horiz-adv-x="696" 
d="M214 736v-736h-139v736h139zM241 376l275 360h160l-272 -360l282 -376h-171z" />
    <glyph glyph-name="Lambda" unicode="&#x39b;" horiz-adv-x="747" 
d="M593 0l-221 606l-217 -606h-145l283 736h163l281 -736h-144z" />
    <glyph glyph-name="Mu" unicode="&#x39c;" horiz-adv-x="928" 
d="M463 240h6l172 496h195l45 -736h-142l-21 594h-4l-168 -477h-164l-165 487h-4l-19 -604h-143l41 736h201z" />
    <glyph glyph-name="Nu" unicode="&#x39d;" horiz-adv-x="793" 
d="M576 220l6 1v515h136v-736h-141l-360 523l-4 -3v-520h-138v736h144z" />
    <glyph glyph-name="Xi" unicode="&#x39e;" horiz-adv-x="653" 
d="M599 621h-551v115h551v-115zM563 326h-476v114h476v-114zM608 0h-563v117h563v-117z" />
    <glyph glyph-name="Omicron" unicode="&#x39f;" horiz-adv-x="772" 
d="M362 750h45q51 0 92.5 -9t81 -34.5t66.5 -67t43.5 -110.5t16.5 -160t-16.5 -159.5t-43.5 -110t-66.5 -67t-81 -35t-92.5 -9.5h-45q-52 0 -92 8t-80 31.5t-66.5 63t-42.5 107t-16 158.5q0 116 23.5 196.5t66.5 122t93 58.5t114 17zM395 635h-8q-93 0 -136 -36t-43 -134
v-191q0 -99 38.5 -134.5t125.5 -35.5h32q81 0 122 39.5t41 130.5v191q0 99 -40.5 134.5t-131.5 35.5z" />
    <glyph glyph-name="Pi" unicode="&#x3a0;" horiz-adv-x="757" 
d="M682 0h-139v622h-331v-622h-137v736h607v-736z" />
    <glyph glyph-name="Rho" unicode="&#x3a1;" horiz-adv-x="686" 
d="M212 320h152q152 0 152 130v41q0 27 -4.5 47t-18 44t-45.5 37.5t-81 13.5h-155v-313zM212 211v-211h-137v731q140 19 299 19q282 0 282 -279q0 -122 -70 -193.5t-194 -71.5q-65 0 -180 5z" />
    <glyph glyph-name="Sigma" unicode="&#x3a3;" horiz-adv-x="625" 
d="M233 380l-192 232v125h548v-114h-403l206 -240l-203 -269h421v-114h-575v123z" />
    <glyph glyph-name="Tau" unicode="&#x3a4;" horiz-adv-x="606" 
d="M596 622h-226v-622h-134v622h-226v114h586v-114z" />
    <glyph glyph-name="Upsilon" unicode="&#x3a5;" horiz-adv-x="691" 
d="M348 370h6l193 366h142l-270 -487v-249h-134v249l-281 487h146z" />
    <glyph glyph-name="Phi" unicode="&#x3a6;" horiz-adv-x="860" 
d="M368 674v62h135v-62q47 -2 87.5 -11.5t80 -31.5t67.5 -54.5t45 -84.5t17 -118q0 -79 -25.5 -137t-69.5 -90t-93.5 -48t-108.5 -20v-79h-135v79q-51 2 -92.5 10t-83 27.5t-69.5 50t-45.5 79.5t-17.5 114q0 86 24.5 147.5t69 95.5t96.5 50.5t118 20.5zM197 394v-34
q0 -96 42.5 -134.5t128.5 -40.5v381q-86 -5 -128.5 -41.5t-42.5 -130.5zM666 360v34q0 94 -39 132t-124 41v-382q79 5 121 45.5t42 129.5z" />
    <glyph glyph-name="Chi" unicode="&#x3a7;" horiz-adv-x="669" 
d="M336 478l163 258h149l-240 -361l251 -375h-159l-164 270l-168 -270h-159l255 375l-238 361h149z" />
    <glyph glyph-name="Psi" unicode="&#x3a8;" horiz-adv-x="872" 
d="M503 0h-135v213q-52 2 -92.5 9.5t-80.5 27t-66.5 50t-42.5 80.5t-16 116v241h143v-238q0 -97 35 -131t120 -39v406h135v-406q80 5 119.5 43t39.5 127v238h140v-223q0 -81 -24 -140t-67 -92.5t-94.5 -50t-113.5 -18.5v-213z" />
    <glyph glyph-name="Omega" unicode="&#x3a9;" horiz-adv-x="770" 
d="M629 118l3 -3h93v-115h-258v118q107 51 107 212v125q0 101 -42 140.5t-137 39.5h-16q-95 0 -137 -39.5t-42 -140.5v-125q0 -167 105 -212v-118h-260v115h89v6q-43 35 -60 95.5t-17 161.5q0 372 297 372h60q300 0 300 -358q0 -206 -85 -274z" />
    <glyph glyph-name="Iotadieresis" unicode="&#x3aa;" horiz-adv-x="295" 
d="M215 0h-135v736h135v-736zM109 811h-113v110h113v-110zM305 811h-113v110h113v-110z" />
    <glyph glyph-name="Upsilondieresis" unicode="&#x3ab;" horiz-adv-x="691" 
d="M348 370h6l193 366h142l-270 -487v-249h-134v249l-281 487h146zM304 811h-113v110h113v-110zM500 811h-113v110h113v-110z" />
    <glyph glyph-name="alphatonos" unicode="&#x3ac;" horiz-adv-x="619" 
d="M319 95h107v351h-122q-70 0 -92 -27t-22 -95v-114q0 -69 28.5 -92t100.5 -23zM272 -12q-41 0 -69 4.5t-58 20t-48.5 44t-30 78t-11.5 119.5q0 76 11.5 130t30 86.5t50 51.5t64.5 25t79 6q101 0 264 -19v-527q-143 -19 -282 -19zM478 722l-188 -130l-57 62l169 160z" />
    <glyph glyph-name="epsilontonos" unicode="&#x3ad;" horiz-adv-x="512" 
d="M129 276v3q-28 10 -46.5 41t-18.5 68q0 50 18 83.5t51.5 50.5t70 23.5t85.5 6.5q47 0 180 -14v-92h-206q-30 0 -46.5 -15t-16.5 -40v-11q0 -53 63 -53h170v-93h-176q-36 0 -51 -19.5t-15 -42.5v-19q0 -59 71 -59h217v-87q-118 -20 -214 -20q-210 0 -210 159q0 49 20 82.5
t54 47.5zM435 722l-188 -130l-57 62l169 160z" />
    <glyph glyph-name="etatonos" unicode="&#x3ae;" horiz-adv-x="626" 
d="M468 722l-188 -130l-57 62l169 160zM561 0h-129v341q0 60 -25.5 82.5t-83.5 22.5h-129v-446h-129v534q179 19 279 19q24 0 38 -0.5t40 -4t42 -10t36.5 -19.5t32 -32t20 -48.5t8.5 -66.5v-372z" />
    <glyph glyph-name="iotatonos" unicode="&#x3af;" horiz-adv-x="269" 
d="M311 722l-188 -130l-57 62l169 160zM199 0h-129v540h129v-540z" />
    <glyph glyph-name="upsilondieresistonos" unicode="&#x3b0;" horiz-adv-x="627" 
d="M432 541h130v-322q0 -123 -65.5 -177t-175.5 -54h-20q-43 0 -76 5t-64.5 19.5t-51.5 38.5t-32 64t-12 95v331h129v-336q0 -67 26.5 -91.5t84.5 -24.5h13q114 0 114 116v336zM208 642h-110v108h110v-108zM526 642h-110v108h110v-108zM419 773l-132 -179l-72 39l106 201z
" />
    <glyph glyph-name="alpha" unicode="&#x3b1;" horiz-adv-x="619" 
d="M319 95h107v351h-122q-70 0 -92 -27t-22 -95v-114q0 -69 28.5 -92t100.5 -23zM272 -12q-41 0 -69 4.5t-58 20t-48.5 44t-30 78t-11.5 119.5q0 76 11.5 130t30 86.5t50 51.5t64.5 25t79 6q101 0 264 -19v-527q-143 -19 -282 -19z" />
    <glyph glyph-name="beta" unicode="&#x3b2;" horiz-adv-x="613" 
d="M529 565q0 -68 -46 -147q80 -45 80 -195q0 -73 -15.5 -121t-47 -72t-67.5 -33t-87 -9q-60 0 -158 15v-209h-128v693q0 136 61 196.5t182 60.5q102 0 164 -46t62 -133zM314 346h-126v-252h111q72 0 100.5 23t28.5 92v14q0 68 -22 95.5t-92 27.5zM188 513v-72h196
q16 60 16 99q0 44 -25 73t-77 29q-57 0 -83.5 -30t-26.5 -99z" />
    <glyph glyph-name="gamma" unicode="&#x3b3;" horiz-adv-x="593" 
d="M583 539l-223 -524v-221h-128v227l-222 518h129l158 -385l158 385h128z" />
    <glyph glyph-name="delta" unicode="&#x3b4;" horiz-adv-x="621" 
d="M182 483l-1 3q-62 33 -62 107q0 44 16 75t44 48t61 24.5t73 7.5q98 0 197 -16v-91h-193q-66 0 -66 -45q0 -26 22 -40.5t89 -41.5l29 -12q97 -39 136 -95.5t39 -160.5q0 -136 -63.5 -197t-171.5 -61h-40q-113 0 -174.5 56t-61.5 193q0 196 127 246zM328 406h-23
q-61 0 -88 -24.5t-27 -91.5v-85q0 -68 24 -92t81 -24h33q53 0 78.5 27t25.5 89v85q0 27 -6.5 45.5t-24.5 32t-30.5 20t-42.5 18.5z" />
    <glyph glyph-name="epsilon" unicode="&#x3b5;" horiz-adv-x="512" 
d="M129 276v3q-28 10 -46.5 41t-18.5 68q0 50 18 83.5t51.5 50.5t70 23.5t85.5 6.5q47 0 180 -14v-92h-206q-30 0 -46.5 -15t-16.5 -40v-11q0 -53 63 -53h170v-93h-176q-36 0 -51 -19.5t-15 -42.5v-19q0 -59 71 -59h217v-87q-118 -20 -214 -20q-210 0 -210 159q0 49 20 82.5
t54 47.5z" />
    <glyph glyph-name="zeta" unicode="&#x3b6;" horiz-adv-x="437" 
d="M54 633v103h448v-99q-173 -124 -263 -224.5t-90 -186.5q0 -42 24 -67t101 -54l103 -38q85 -31 84 -89q-1 -34 -32.5 -86t-80.5 -95l-72 48l54 114l-75 28l-62 24q-22 8 -52 22t-45.5 25t-33.5 27.5t-26.5 34.5t-14.5 41.5t-6 52.5q0 60 31 123.5t81.5 119t100.5 98
t103 78.5h-277z" />
    <glyph glyph-name="eta" unicode="&#x3b7;" horiz-adv-x="626" 
d="M561 0h-129v341q0 60 -25.5 82.5t-83.5 22.5h-129v-446h-129v534q179 19 279 19q24 0 38 -0.5t40 -4t42 -10t36.5 -19.5t32 -32t20 -48.5t8.5 -66.5v-372z" />
    <glyph glyph-name="theta" unicode="&#x3b8;" horiz-adv-x="621" 
d="M296 745h30q117 0 178.5 -66t61.5 -226v-172q0 -293 -240 -293h-30q-56 0 -97 12.5t-75 43.5t-51.5 88t-17.5 140v172q0 164 63 232.5t178 68.5zM190 335v-118q0 -69 28 -98t87 -29h12q61 0 88 31.5t27 101.5v112h-242zM432 427v83q0 70 -27 101.5t-88 31.5h-12
q-59 0 -87 -31.5t-28 -101.5v-83h242z" />
    <glyph glyph-name="iota" unicode="&#x3b9;" horiz-adv-x="269" 
d="M199 0h-129v540h129v-540z" />
    <glyph glyph-name="kappa" unicode="&#x3ba;" horiz-adv-x="555" 
d="M191 540v-540h-126v540h126zM398 0l-189 275l188 265h144l-190 -265l199 -275h-152z" />
    <glyph glyph-name="lambda" unicode="&#x3bb;" horiz-adv-x="627" 
d="M161 641v92q88 14 190 14q24 0 37.5 -0.5t39 -4t41 -10t35.5 -19.5t31 -32t19 -48.5t8 -66.5v-566h-129v398h-141q-98 0 -98 -105v-293h-129v324q0 37 8 66.5t19.5 48.5t32 32t36.5 19.5t41.5 10t39.5 4t38 0.5q26 0 153 -10v40q0 57 -20.5 81.5t-77.5 24.5h-174z" />
    <glyph glyph-name="nu" unicode="&#x3bd;" horiz-adv-x="613" 
d="M304 125h6l158 414h130l-220 -539h-144l-219 539h131z" />
    <glyph glyph-name="xi" unicode="&#x3be;" horiz-adv-x="507" 
d="M156 399v4q-51 17 -71.5 52t-20.5 93q0 62 19 103.5t55 62t76.5 28.5t95.5 8q99 0 172 -15v-91h-195q-44 0 -65.5 -22t-21.5 -56v-38q0 -75 87 -75h164v-99h-165q-49 0 -73 -28t-24 -67v-33q0 -59 20.5 -81t97.5 -46l99 -31q89 -27 89 -87q0 -73 -103 -188l-78 47l51 110
l-111 39q-65 23 -99 40t-59 43.5t-33 61.5t-8 92q0 140 101 173z" />
    <glyph glyph-name="omicron" unicode="&#x3bf;" horiz-adv-x="621" 
d="M317 451h-12q-61 0 -88 -24.5t-27 -91.5v-130q0 -68 24 -92t81 -24h33q53 0 78.5 27t25.5 89v130q0 68 -26 92t-89 24zM291 553h40q57 0 98 -12.5t73 -43.5t48 -87t16 -139q0 -158 -62 -220.5t-173 -62.5h-40q-56 0 -96 11t-73.5 40t-50 84.5t-16.5 138.5
q0 84 16.5 142.5t49 90t73.5 45t97 13.5z" />
    <glyph glyph-name="pi" unicode="&#x3c0;" horiz-adv-x="626" 
d="M561 0h-129v437h-236v-437h-131v541h496v-541z" />
    <glyph glyph-name="rho" unicode="&#x3c1;" horiz-adv-x="623" 
d="M433 209v126q0 68 -26 92t-89 24h-10q-60 0 -87.5 -28.5t-27.5 -97.5v-231h111q72 0 100.5 23t28.5 92zM65 -206v504q0 255 230 255h38q118 0 176.5 -60t58.5 -220q0 -70 -11 -121.5t-29.5 -82.5t-47 -49.5t-59 -25t-70.5 -6.5q-60 0 -158 15v-209h-128z" />
    <glyph glyph-name="sigma1" unicode="&#x3c2;" horiz-adv-x="500" 
d="M291 553q80 0 179 -15v-92h-146q-77 0 -105 -25t-28 -95v-71q0 -57 22 -80t101 -63l59 -30q47 -24 62.5 -47.5t16.5 -51.5q0 -22 -29.5 -69.5t-90.5 -98.5l-73 55l62 104l-79 42l-65 35q-19 10 -46 28.5t-36.5 32t-21 38t-14.5 53t-3 69.5q0 71 12.5 122.5t32 81.5
t51.5 48t64 23.5t75 5.5z" />
    <glyph glyph-name="sigma" unicode="&#x3c3;" horiz-adv-x="641" 
d="M522 440l-2 -5q46 -50 46 -184q0 -77 -18 -130.5t-51.5 -81.5t-73.5 -39.5t-92 -11.5h-40q-57 0 -96.5 10.5t-73 38t-50 82.5t-16.5 138q0 84 17.5 141.5t51.5 87.5t75.5 42.5t97.5 12.5h318v-104h-54q-17 0 -39 3zM374 438h-69q-61 0 -88 -24.5t-27 -91.5v-117
q0 -68 24 -92t81 -24h33q53 0 78.5 27t25.5 89v97q0 56 -12 88.5t-46 47.5z" />
    <glyph glyph-name="tau" unicode="&#x3c4;" horiz-adv-x="506" 
d="M286 437v-261q0 -44 21 -63t76 -19h100v-87q-77 -19 -148 -19q-99 0 -138 48.5t-39 138.5v262h-138v103h434v-103h-168z" />
    <glyph glyph-name="upsilon" unicode="&#x3c5;" horiz-adv-x="627" 
d="M432 541h130v-322q0 -123 -65.5 -177t-175.5 -54h-20q-43 0 -76 5t-64.5 19.5t-51.5 38.5t-32 64t-12 95v331h129v-336q0 -67 26.5 -91.5t84.5 -24.5h13q114 0 114 116v336z" />
    <glyph glyph-name="phi" unicode="&#x3c6;" horiz-adv-x="798" 
d="M238 543l29 -78q-50 -26 -64 -53.5t-14 -85.5v-116q0 -60 34 -90.5t111 -30.5v464h126q140 0 211.5 -63.5t71.5 -218.5q0 -151 -70.5 -217t-209.5 -66v-194h-129v194q-139 0 -209 61t-70 218q0 141 46 203t137 73zM463 451v-362q80 0 113 30t33 91v121q0 65 -32 92.5
t-114 27.5z" />
    <glyph glyph-name="chi" unicode="&#x3c7;" horiz-adv-x="562" 
d="M275 358l118 182h143l-184 -264l196 -276h-150l-123 190l-122 -190h-150l194 276l-182 264h143z" />
    <glyph glyph-name="psi" unicode="&#x3c8;" horiz-adv-x="787" 
d="M333 95v445h128v-445q67 1 99 31t32 94v321h130v-307q0 -122 -70 -181t-191 -65v-194h-128v194q-63 3 -108.5 15t-83.5 38t-57 72t-19 112v316h129v-321q0 -68 35 -96.5t104 -28.5z" />
    <glyph glyph-name="omega" unicode="&#x3c9;" horiz-adv-x="876" 
d="M687 206l-1 120q-1 59 -15 86t-63 53l29 78q91 -11 137.5 -75t46.5 -206q0 -145 -57 -209t-169 -64q-111 0 -156 80q-48 -80 -158 -80q-112 0 -169 64t-57 209q0 142 46 206t137 75l29 -78q-50 -26 -64 -53.5t-14 -85.5v-116q0 -113 77 -113h26q82 0 82 96v192h128v-192
q0 -96 80 -96h22q83 0 83 109z" />
    <glyph glyph-name="iotadieresis" unicode="&#x3ca;" horiz-adv-x="269" 
d="M199 0h-129v540h129v-540zM92 627h-113v110h113v-110zM288 627h-113v110h113v-110z" />
    <glyph glyph-name="upsilondieresis" unicode="&#x3cb;" horiz-adv-x="627" 
d="M432 541h130v-322q0 -123 -65.5 -177t-175.5 -54h-20q-43 0 -76 5t-64.5 19.5t-51.5 38.5t-32 64t-12 95v331h129v-336q0 -67 26.5 -91.5t84.5 -24.5h13q114 0 114 116v336zM273 627h-113v110h113v-110zM469 627h-113v110h113v-110z" />
    <glyph glyph-name="omicrontonos" unicode="&#x3cc;" horiz-adv-x="621" 
d="M317 451h-12q-61 0 -88 -24.5t-27 -91.5v-130q0 -68 24 -92t81 -24h33q53 0 78.5 27t25.5 89v130q0 68 -26 92t-89 24zM291 553h40q57 0 98 -12.5t73 -43.5t48 -87t16 -139q0 -158 -62 -220.5t-173 -62.5h-40q-56 0 -96 11t-73.5 40t-50 84.5t-16.5 138.5
q0 84 16.5 142.5t49 90t73.5 45t97 13.5zM487 722l-188 -130l-57 62l169 160z" />
    <glyph glyph-name="upsilontonos" unicode="&#x3cd;" horiz-adv-x="627" 
d="M432 541h130v-322q0 -123 -65.5 -177t-175.5 -54h-20q-43 0 -76 5t-64.5 19.5t-51.5 38.5t-32 64t-12 95v331h129v-336q0 -67 26.5 -91.5t84.5 -24.5h13q114 0 114 116v336zM474 722l-188 -130l-57 62l169 160z" />
    <glyph glyph-name="omegatonos" unicode="&#x3ce;" horiz-adv-x="876" 
d="M687 206l-1 120q-1 59 -15 86t-63 53l29 78q91 -11 137.5 -75t46.5 -206q0 -145 -57 -209t-169 -64q-111 0 -156 80q-48 -80 -158 -80q-112 0 -169 64t-57 209q0 142 46 206t137 75l29 -78q-50 -26 -64 -53.5t-14 -85.5v-116q0 -113 77 -113h26q82 0 82 96v192h128v-192
q0 -96 80 -96h22q83 0 83 109zM603 722l-188 -130l-57 62l169 160z" />
    <glyph glyph-name="uni0400" unicode="&#x400;" horiz-adv-x="651" 
d="M595 736v-114h-383v-183h361v-114h-361v-211h389v-114h-526v736h520zM413 781l-207 88l59 104l194 -121z" />
    <glyph glyph-name="afii10023" unicode="&#x401;" horiz-adv-x="651" 
d="M595 736v-114h-383v-183h361v-114h-361v-211h389v-114h-526v736h520zM305 811h-113v110h113v-110zM501 811h-113v110h113v-110z" />
    <glyph glyph-name="afii10051" unicode="&#x402;" horiz-adv-x="872" 
d="M556 455q141 0 203.5 -71.5t62.5 -188.5q0 -222 -249 -376l-61 78q169 140 169 303q0 81 -39.5 111.5t-109.5 30.5h-172v-342h-134v622h-216v114h607v-114h-257v-179q142 12 196 12z" />
    <glyph glyph-name="afii10052" unicode="&#x403;" horiz-adv-x="603" 
d="M466 869l-207 -88l-46 71l194 121zM583 622h-372v-622h-136v736h508v-114z" />
    <glyph glyph-name="afii10053" unicode="&#x404;" horiz-adv-x="628" 
d="M207 450v-9h332v-114h-332v-49q0 -104 35.5 -138.5t139.5 -34.5h211v-94q-116 -23 -257 -23q-50 0 -88 8t-73.5 31.5t-58.5 62.5t-37 103t-14 151q0 101 15 174.5t40 117.5t64.5 70t80 34.5t95.5 8.5q110 0 226 -19v-96h-198q-103 0 -142 -39.5t-39 -144.5z" />
    <glyph glyph-name="afii10054" unicode="&#x405;" horiz-adv-x="627" 
d="M285 750q141 0 264 -19v-97h-254q-108 0 -108 -81q0 -30 34.5 -52t110.5 -53l73 -31q24 -10 65 -34.5t62 -47t38 -58.5t17 -78q0 -211 -283 -211q-150 0 -255 19v97h280q119 0 119 97q0 42 -42 71.5t-123 63.5l-40 16l-43 18q-14 6 -39 18t-38 21.5t-30.5 25.5t-26 31.5
t-15 36.5t-6.5 45q0 202 240 202z" />
    <glyph glyph-name="afii10055" unicode="&#x406;" horiz-adv-x="295" 
d="M215 0h-135v736h135v-736z" />
    <glyph glyph-name="afii10056" unicode="&#x407;" horiz-adv-x="295" 
d="M215 0h-135v736h135v-736zM107 811h-113v110h113v-110zM303 811h-113v110h113v-110z" />
    <glyph glyph-name="afii10057" unicode="&#x408;" horiz-adv-x="309" 
d="M229 736v-696q0 -49 -7.5 -81.5t-30.5 -65.5t-66.5 -60.5t-114.5 -58.5l-55 82l112 90q27 21 27 65v725h135z" />
    <glyph glyph-name="afii10058" unicode="&#x409;" horiz-adv-x="1140" 
d="M510 623h-218l-43 -400q-5 -43 -9.5 -68.5t-17.5 -57t-33 -51t-55.5 -38t-85.5 -30.5l-45 86l74 59q30 23 34 65l59 548l477 1v-284q146 10 222 8q60 -2 105.5 -23.5t71 -56t37.5 -73.5t12 -81q0 -67 -21.5 -115t-60.5 -74.5t-84.5 -38t-102.5 -11.5q-177 0 -316 22v613z
M834 345h-187v-240h195q112 0 112 121q0 67 -31.5 93t-88.5 26z" />
    <glyph glyph-name="afii10059" unicode="&#x40a;" horiz-adv-x="1154" 
d="M524 736h138v-283q109 8 186 8q136 0 198.5 -66t62.5 -168q0 -67 -21.5 -115t-60.5 -74.5t-84.5 -38t-102.5 -11.5q-177 0 -317 22v326h-311v-336h-137v736h137v-285h312v285zM848 345h-186v-240h194q112 0 112 121q0 67 -31.5 93t-88.5 26z" />
    <glyph glyph-name="afii10060" unicode="&#x40b;" horiz-adv-x="865" 
d="M805 0h-140v225q0 66 -24.5 94t-88.5 28h-192v-347h-134v622h-216v114h591v-114h-241v-174q142 12 197 12q28 0 43.5 -0.5t45.5 -4.5t48.5 -11.5t41.5 -22.5t36.5 -37t23 -56t9.5 -77v-251z" />
    <glyph glyph-name="afii10061" unicode="&#x40c;" horiz-adv-x="696" 
d="M507 869l-207 -88l-46 71l194 121zM214 736v-736h-139v736h139zM241 376l275 360h160l-272 -360l282 -376h-171z" />
    <glyph glyph-name="uni040D" unicode="&#x40d;" horiz-adv-x="793" 
d="M468 781l-207 88l59 104l194 -121zM216 0h-141v736h136v-524l363 524h144v-736h-137l-1 533z" />
    <glyph glyph-name="afii10062" unicode="&#x40e;" horiz-adv-x="675" 
d="M350 310h8l177 426h143l-245 -561q-28 -64 -44 -95.5t-39.5 -59t-49.5 -36.5t-66 -9q-35 0 -115 15v96h48q58 0 77 7t30 34l15 37l-288 572h148zM351 771q-138 0 -172 155l55 26q26 -50 53 -67.5t61 -17.5q37 0 63.5 16t55.5 67l53 -25q-39 -154 -169 -154z" />
    <glyph glyph-name="afii10145" unicode="&#x40f;" horiz-adv-x="780" 
d="M566 736h139v-736h-243v-187h-134v187h-253v736h137v-622h354v622z" />
    <glyph glyph-name="afii10017" unicode="&#x410;" horiz-adv-x="747" 
d="M593 0l-59 164h-320l-59 -164h-145l283 736h163l281 -736h-144zM375 599h-6l-116 -323h239z" />
    <glyph glyph-name="afii10018" unicode="&#x411;" horiz-adv-x="705" 
d="M75 737h513v-115h-376v-169q146 10 222 8q60 -2 105.5 -23.5t71 -56t37.5 -73.5t12 -81q0 -67 -21.5 -115t-60.5 -74.5t-84.5 -38t-102.5 -11.5q-177 0 -316 22v727zM399 345h-187v-240h195q112 0 112 121q0 67 -31.5 93t-88.5 26z" />
    <glyph glyph-name="afii10019" unicode="&#x412;" horiz-adv-x="710" 
d="M618 568q0 -94 -68 -152q56 -28 83 -82t27 -117q0 -67 -21.5 -113.5t-60.5 -71t-84 -34.5t-103 -10q-183 0 -316 22v722q152 18 282 18q59 0 101.5 -6.5t81 -25t58.5 -56t20 -94.5zM399 325h-187v-220h195q63 0 87.5 27t24.5 84q0 66 -29.5 87.5t-90.5 21.5zM212 441h229
q36 54 36 110q0 45 -24 63.5t-86 18.5h-155v-192z" />
    <glyph glyph-name="afii10020" unicode="&#x413;" horiz-adv-x="603" 
d="M583 622h-372v-622h-136v736h508v-114z" />
    <glyph glyph-name="afii10021" unicode="&#x414;" horiz-adv-x="859" 
d="M849 113v-285h-135v172h-569v-172h-135v285h95q48 49 69.5 119.5t35.5 208.5l31 295h503v-623h105zM256 113h348v509h-242l-19 -185q-15 -151 -34 -219t-53 -105z" />
    <glyph glyph-name="afii10022" unicode="&#x415;" horiz-adv-x="651" 
d="M595 736v-114h-383v-183h361v-114h-361v-211h389v-114h-526v736h520z" />
    <glyph glyph-name="afii10024" unicode="&#x416;" horiz-adv-x="1097" 
d="M618 736v-736h-139v736h139zM644 376l275 360h154l-272 -360l286 -376h-169zM178 736l275 -360l-274 -376h-169l282 376l-272 360h158z" />
    <glyph glyph-name="afii10025" unicode="&#x417;" horiz-adv-x="646" 
d="M498 399v-4q93 -42 93 -172q0 -235 -270 -235q-170 0 -286 23v94h284q69 0 99.5 23.5t30.5 90.5q0 61 -27 85t-92 24h-234v111h245q52 0 74 24.5t22 74.5q0 56 -30 76.5t-98 20.5h-253v94q112 20 256 20q125 0 195 -47.5t70 -161.5q0 -99 -79 -141z" />
    <glyph glyph-name="afii10026" unicode="&#x418;" horiz-adv-x="793" 
d="M216 0h-141v736h136v-524l363 524h144v-736h-137l-1 533z" />
    <glyph glyph-name="afii10027" unicode="&#x419;" horiz-adv-x="793" 
d="M216 0h-141v736h136v-524l363 524h144v-736h-137l-1 533zM413 784q-138 0 -172 155l55 26q26 -50 53 -67.5t61 -17.5q37 0 63.5 16t55.5 67l53 -25q-39 -154 -169 -154z" />
    <glyph glyph-name="afii10028" unicode="&#x41a;" horiz-adv-x="696" 
d="M214 736v-736h-139v736h139zM241 376l275 360h160l-272 -360l282 -376h-171z" />
    <glyph glyph-name="afii10029" unicode="&#x41b;" horiz-adv-x="737" 
d="M662 0h-139v622h-231l-43 -399q-5 -43 -9.5 -68.5t-17.5 -57t-33 -51t-55.5 -38t-85.5 -30.5l-45 86l74 59q30 23 34 65l59 548h492v-736z" />
    <glyph glyph-name="afii10030" unicode="&#x41c;" horiz-adv-x="928" 
d="M463 240h6l172 496h195l45 -736h-142l-21 594h-4l-168 -477h-164l-165 487h-4l-19 -604h-143l41 736h201z" />
    <glyph glyph-name="afii10031" unicode="&#x41d;" horiz-adv-x="757" 
d="M682 0h-139v327h-331v-327h-137v736h137v-294h331v294h139v-736z" />
    <glyph glyph-name="afii10032" unicode="&#x41e;" horiz-adv-x="772" 
d="M362 750h45q51 0 92.5 -9t81 -34.5t66.5 -67t43.5 -110.5t16.5 -160t-16.5 -159.5t-43.5 -110t-66.5 -67t-81 -35t-92.5 -9.5h-45q-52 0 -92 8t-80 31.5t-66.5 63t-42.5 107t-16 158.5q0 116 23.5 196.5t66.5 122t93 58.5t114 17zM395 635h-8q-93 0 -136 -36t-43 -134
v-191q0 -99 38.5 -134.5t125.5 -35.5h32q81 0 122 39.5t41 130.5v191q0 99 -40.5 134.5t-131.5 35.5z" />
    <glyph glyph-name="afii10033" unicode="&#x41f;" horiz-adv-x="757" 
d="M682 0h-139v622h-331v-622h-137v736h607v-736z" />
    <glyph glyph-name="afii10034" unicode="&#x420;" horiz-adv-x="686" 
d="M212 320h152q152 0 152 130v41q0 27 -4.5 47t-18 44t-45.5 37.5t-81 13.5h-155v-313zM212 211v-211h-137v731q140 19 299 19q282 0 282 -279q0 -122 -70 -193.5t-194 -71.5q-65 0 -180 5z" />
    <glyph glyph-name="afii10035" unicode="&#x421;" horiz-adv-x="628" 
d="M207 450v-172q0 -104 35.5 -138.5t139.5 -34.5h211v-94q-116 -23 -257 -23q-50 0 -88 8t-73.5 31.5t-58.5 62.5t-37 103t-14 151q0 101 15 174.5t40 117.5t64.5 70t80 34.5t95.5 8.5q110 0 226 -19v-96h-198q-103 0 -142 -39.5t-39 -144.5z" />
    <glyph glyph-name="afii10036" unicode="&#x422;" horiz-adv-x="606" 
d="M596 622h-226v-622h-134v622h-226v114h586v-114z" />
    <glyph glyph-name="afii10037" unicode="&#x423;" horiz-adv-x="675" 
d="M350 310h8l177 426h143l-245 -561q-28 -64 -44 -95.5t-39.5 -59t-49.5 -36.5t-66 -9q-35 0 -115 15v96h48q58 0 77 7t30 34l15 37l-288 572h148z" />
    <glyph glyph-name="afii10038" unicode="&#x424;" horiz-adv-x="860" 
d="M368 674v62h135v-62q47 -2 87.5 -11.5t80 -31.5t67.5 -54.5t45 -84.5t17 -118q0 -79 -25.5 -137t-69.5 -90t-93.5 -48t-108.5 -20v-79h-135v79q-51 2 -92.5 10t-83 27.5t-69.5 50t-45.5 79.5t-17.5 114q0 86 24.5 147.5t69 95.5t96.5 50.5t118 20.5zM197 394v-34
q0 -96 42.5 -134.5t128.5 -40.5v381q-86 -5 -128.5 -41.5t-42.5 -130.5zM666 360v34q0 94 -39 132t-124 41v-382q79 5 121 45.5t42 129.5z" />
    <glyph glyph-name="afii10039" unicode="&#x425;" horiz-adv-x="669" 
d="M336 478l163 258h149l-240 -361l251 -375h-159l-164 270l-168 -270h-159l255 375l-238 361h149z" />
    <glyph glyph-name="afii10040" unicode="&#x426;" horiz-adv-x="825" 
d="M564 736h139v-622h112v-286h-134v172h-606v736h137v-622h352v622z" />
    <glyph glyph-name="afii10041" unicode="&#x427;" horiz-adv-x="732" 
d="M60 736h140v-199q0 -66 24 -94t89 -28h210v321h134v-736h-134v315q-128 -13 -200 -13h-39q-14 0 -39.5 2t-40.5 5.5t-37 11t-35 17.5t-28.5 26t-24 36.5t-14 48.5t-5.5 62v225z" />
    <glyph glyph-name="afii10042" unicode="&#x428;" horiz-adv-x="1079" 
d="M865 736h139v-736h-929v736h137v-622h249v622h137v-622h267v622z" />
    <glyph glyph-name="afii10043" unicode="&#x429;" horiz-adv-x="1126" 
d="M865 736h139v-622h112v-286h-134v172h-907v736h137v-622h249v622h137v-622h267v622z" />
    <glyph glyph-name="afii10044" unicode="&#x42a;" horiz-adv-x="917" 
d="M15 623v114h409v-284q110 8 187 8q261 0 261 -234q0 -131 -70.5 -185t-198.5 -54q-177 0 -316 22v613h-272zM611 345h-187v-240h195q112 0 112 121q0 67 -31.5 93t-88.5 26z" />
    <glyph glyph-name="afii10045" unicode="&#x42b;" horiz-adv-x="938" 
d="M399 345h-187v-240h195q112 0 112 121q0 67 -31.5 93t-88.5 26zM75 737h137v-284q112 8 222 8q63 0 109 -21t70.5 -56.5t35.5 -74.5t11 -82q0 -130 -71.5 -184.5t-197.5 -54.5q-177 0 -316 22v727zM863 0h-135v735h135v-735z" />
    <glyph glyph-name="afii10046" unicode="&#x42c;" horiz-adv-x="705" 
d="M399 345h-187v-240h195q112 0 112 121q0 67 -31.5 93t-88.5 26zM75 737h137v-284q112 8 222 8q64 0 110 -21t70 -56.5t35 -74t11 -82.5q0 -130 -71 -184.5t-198 -54.5q-177 0 -316 22v727z" />
    <glyph glyph-name="afii10047" unicode="&#x42d;" horiz-adv-x="637" 
d="M430 441v9q0 105 -39 144.5t-142 39.5h-189v96q116 19 229 19q56 0 94.5 -7t77 -30t61 -64t36.5 -113t14 -173q0 -108 -20.5 -183.5t-59.5 -116t-86 -57.5t-109 -17q-141 0 -257 23v94h211q104 0 141.5 35t37.5 138v49h-332v114h332z" />
    <glyph glyph-name="afii10048" unicode="&#x42e;" horiz-adv-x="1077" 
d="M667 750h45q51 0 92.5 -9t81 -34.5t66.5 -67t43.5 -110.5t16.5 -160t-16.5 -159.5t-43.5 -110t-66.5 -67t-81 -35t-92.5 -9.5h-45q-50 0 -89 7.5t-78.5 29t-65.5 58.5t-43.5 98.5t-20.5 145.5h-160v-327h-135v735h135v-294h163q7 73 26 128t46 89t64 55t74.5 29t83.5 8z
M693 635h-1q-93 0 -136 -36t-43 -134v-191q0 -99 38.5 -134.5t125.5 -35.5h32q81 0 122 39.5t41 130.5v191q0 99 -41.5 134.5t-137.5 35.5z" />
    <glyph glyph-name="afii10049" unicode="&#x42f;" horiz-adv-x="704" 
d="M323 750q150 0 306 -20v-730h-137v261h-184l-132 -261h-151l152 287q-127 107 -127 232q0 110 62.5 170.5t210.5 60.5zM492 633h-183q-119 0 -119 -118q0 -40 20.5 -79.5t48.5 -61.5h233v259z" />
    <glyph glyph-name="afii10065" unicode="&#x430;" horiz-adv-x="605" 
d="M540 363v-353q-126 -23 -270 -23q-58 0 -93.5 5t-70 21.5t-50.5 52.5t-16 93q0 105 55 147t157 42q68 0 160 -13v28q0 47 -20.5 65t-69.5 18h-200v92q99 15 193 15q53 0 91 -7.5t70 -27.5t48 -58.5t16 -96.5zM412 243h-166q-71 0 -71 -69v-19q0 -33 17 -47.5t54 -14.5
h166v150z" />
    <glyph glyph-name="afii10066" unicode="&#x431;" horiz-adv-x="621" 
d="M317 394h-12q-61 0 -88 -24.5t-27 -91.5v-73q0 -68 24 -92t81 -24h33q53 0 78.5 27t25.5 89v73q0 68 -26 92t-89 24zM212 471l4 -1q44 25 122 25q229 0 229 -244q0 -263 -230 -263h-40q-120 0 -180.5 59t-60.5 216q0 64 6.5 118t16.5 95.5t28.5 76.5t36.5 59.5t47 46
t52.5 35t60.5 27t64.5 22t70.5 20.5q4 1 6.5 1.5t5.5 1.5l6 2l32 -89l-81 -35q-105 -45 -146 -78.5t-50 -94.5z" />
    <glyph glyph-name="afii10067" unicode="&#x432;" horiz-adv-x="631" 
d="M544 413q0 -31 -15.5 -60.5t-38.5 -47.5q91 -38 91 -145q0 -172 -223 -172q-161 0 -293 18v522q142 19 278 19q47 0 79.5 -5t62 -18.5t44.5 -41t15 -69.5zM359 229h-166v-137h173q45 0 63 16t18 52q0 41 -22.5 55t-65.5 14zM193 324h189q29 35 29 71q0 31 -19.5 40.5
t-60.5 9.5h-138v-121z" />
    <glyph glyph-name="afii10068" unicode="&#x433;" horiz-adv-x="512" 
d="M497 540v-102h-303v-438h-129v540h432z" />
    <glyph glyph-name="afii10069" unicode="&#x434;" horiz-adv-x="705" 
d="M695 105v-262h-123v157h-438v-157h-124v262h87q24 44 37.5 101t25.5 161l20 172h427v-434h88zM291 437l-15 -112q-14 -109 -23 -148t-29 -72h256v332h-189z" />
    <glyph glyph-name="afii10070" unicode="&#x435;" horiz-adv-x="591" 
d="M187 226v-55q0 -42 22 -59.5t68 -17.5h235v-87q-87 -18 -226 -18q-133 0 -182 63t-49 210q0 146 56 218.5t197 72.5q233 0 233 -208v-39q0 -44 -22.5 -62t-54.5 -18h-277zM415 323v49q0 31 -17.5 54.5t-62.5 23.5h-62q-43 0 -64.5 -28.5t-21.5 -59.5v-39h228z" />
    <glyph glyph-name="afii10072" unicode="&#x436;" horiz-adv-x="854" 
d="M490 540v-540h-126v540h126zM697 0l-189 275l188 265h144l-190 -265l199 -275h-152zM346 275l-189 -275h-152l199 275l-190 265h144z" />
    <glyph glyph-name="afii10073" unicode="&#x437;" horiz-adv-x="544" 
d="M392 293v-4q46 -14 71.5 -50.5t25.5 -84.5q0 -81 -54 -123.5t-155 -42.5q-137 0 -250 17v89h254q72 0 72 69q0 42 -22 55.5t-59 13.5h-186v99h188q68 0 68 59q0 36 -18 47.5t-56 11.5h-226v88q135 15 233 15q100 0 150 -34t50 -109q0 -36 -21.5 -68t-64.5 -48z" />
    <glyph glyph-name="afii10074" unicode="&#x438;" horiz-adv-x="636" 
d="M441 349l-5 -1l-242 -348h-129v540h129v-346l3 -1l244 347h130v-540h-130v349z" />
    <glyph glyph-name="afii10075" unicode="&#x439;" horiz-adv-x="636" 
d="M327 602q-146 0 -182 162l55 26q55 -92 124 -92q75 0 129 90l53 -25q-20 -78 -67 -119.5t-112 -41.5zM441 349l-5 -1l-242 -348h-129v540h129v-346l3 -1l244 347h130v-540h-130v349z" />
    <glyph glyph-name="afii10076" unicode="&#x43a;" horiz-adv-x="555" 
d="M191 540v-540h-126v540h126zM398 0l-189 275l188 265h144l-190 -265l199 -275h-152z" />
    <glyph glyph-name="afii10077" unicode="&#x43b;" horiz-adv-x="619" 
d="M544 0h-129v437h-158l-27 -249q-5 -44 -13 -72.5t-26.5 -57t-53.5 -48t-89 -32.5l-38 82l63 50q26 21 30 56l40 374h401v-540z" />
    <glyph glyph-name="afii10078" unicode="&#x43c;" horiz-adv-x="805" 
d="M400 199l6 1q22 57 70.5 170.5t70.5 170.5h168l35 -541h-125l-19 393l-3 -1q-20 -52 -66.5 -154t-66.5 -154h-138l-133 310l-4 -2l-14 -392h-126l32 541h172z" />
    <glyph glyph-name="afii10079" unicode="&#x43d;" horiz-adv-x="626" 
d="M561 0h-130v232h-237v-232h-129v540h129v-205h237v205h130v-540z" />
    <glyph glyph-name="afii10080" unicode="&#x43e;" horiz-adv-x="621" 
d="M317 451h-12q-61 0 -88 -24.5t-27 -91.5v-130q0 -68 24 -92t81 -24h33q53 0 78.5 27t25.5 89v130q0 68 -26 92t-89 24zM291 553h40q57 0 98 -12.5t73 -43.5t48 -87t16 -139q0 -158 -62 -220.5t-173 -62.5h-40q-56 0 -96 11t-73.5 40t-50 84.5t-16.5 138.5
q0 84 16.5 142.5t49 90t73.5 45t97 13.5z" />
    <glyph glyph-name="afii10081" unicode="&#x43f;" horiz-adv-x="626" 
d="M561 0h-129v437h-236v-437h-131v541h496v-541z" />
    <glyph glyph-name="afii10082" unicode="&#x440;" horiz-adv-x="623" 
d="M65 -206v739q163 19 268 19q47 0 76.5 -4t63 -19.5t52 -44.5t31 -82t12.5 -129q0 -70 -11 -121.5t-29.5 -82.5t-47 -49.5t-59 -25t-70.5 -6.5q-60 0 -158 15v-209h-128zM193 94h111q72 0 100.5 23t28.5 92v114q0 68 -22 95.5t-92 27.5h-126v-352z" />
    <glyph glyph-name="afii10083" unicode="&#x441;" horiz-adv-x="508" 
d="M190 326v-116q0 -70 26 -93t103 -23h159v-87q-94 -19 -206 -19q-52 0 -87 9.5t-67 36.5t-47.5 82t-15.5 139q0 94 17 155t51 91t72.5 41t94.5 11q84 0 183 -15v-92h-150q-77 0 -105 -25t-28 -95z" />
    <glyph glyph-name="afii10084" unicode="&#x442;" horiz-adv-x="513" 
d="M321 0h-128v437h-183v102h493v-102h-182v-437z" />
    <glyph glyph-name="afii10085" unicode="&#x443;" horiz-adv-x="602" 
d="M308 -206h-125l78 206h-50l-199 539h133l146 -425h10l160 425h126z" />
    <glyph glyph-name="afii10086" unicode="&#x444;" horiz-adv-x="779" 
d="M325 553v184h129v-184h25q119 0 182 -61.5t63 -220.5q0 -82 -19 -139t-54 -87.5t-77 -43.5t-95 -13h-25v-194h-129v194h-25q-53 0 -95 13t-77 43.5t-54 87.5t-19 139q0 159 63 220.5t182 61.5h25zM303 89h22v362h-11q-65 0 -95 -24.5t-30 -91.5v-130q0 -116 114 -116z
M454 89h22q114 0 114 116v130q0 67 -30 91.5t-95 24.5h-11v-362z" />
    <glyph glyph-name="afii10087" unicode="&#x445;" horiz-adv-x="562" 
d="M275 358l118 182h143l-184 -264l196 -276h-150l-123 190l-122 -190h-150l194 276l-182 264h143z" />
    <glyph glyph-name="afii10088" unicode="&#x446;" horiz-adv-x="677" 
d="M440 540h129v-437h93v-260h-123v157h-474v540h131v-436h244v436z" />
    <glyph glyph-name="afii10089" unicode="&#x447;" horiz-adv-x="587" 
d="M25 539h129v-103q0 -105 98 -105h141v208h129v-539h-129v234q-128 -10 -153 -10q-24 0 -38 0.5t-39.5 4t-41.5 10t-36.5 19.5t-32 32t-19.5 48.5t-8 66.5v134z" />
    <glyph glyph-name="afii10090" unicode="&#x448;" horiz-adv-x="901" 
d="M707 540h129v-540h-771v540h129v-435h189v435h130v-435h194v435z" />
    <glyph glyph-name="afii10091" unicode="&#x449;" horiz-adv-x="944" 
d="M707 540h129v-437h93v-260h-123v157h-741v540h129v-435h189v435h130v-435h194v435z" />
    <glyph glyph-name="afii10092" unicode="&#x44a;" horiz-adv-x="793" 
d="M230 7v431h-215v102h343v-162q90 15 161 15q50 0 86 -7t69.5 -27t51 -60.5t17.5 -102.5q0 -115 -59.5 -161.5t-180.5 -46.5q-137 0 -273 19zM515 289h-157v-199h155q53 0 75.5 23.5t22.5 67.5v21q0 50 -22 68.5t-74 18.5z" />
    <glyph glyph-name="afii10093" unicode="&#x44b;" horiz-adv-x="839" 
d="M65 7v533h128v-162q90 15 161 15q50 0 86 -7t69.5 -27t51 -60.5t17.5 -102.5q0 -115 -59.5 -161.5t-180.5 -46.5q-137 0 -273 19zM350 289h-157v-199h155q53 0 75.5 23.5t22.5 67.5v21q0 50 -22 68.5t-74 18.5zM774 0h-129v540h129v-540z" />
    <glyph glyph-name="afii10094" unicode="&#x44c;" horiz-adv-x="628" 
d="M65 7v533h128v-162q90 15 161 15q49 0 85.5 -7.5t70 -27.5t51 -60.5t17.5 -101.5q0 -114 -60 -161t-180 -47q-137 0 -273 19zM350 289h-157v-199h155q53 0 75.5 23.5t22.5 67.5v21q0 50 -22 68.5t-74 18.5z" />
    <glyph glyph-name="afii10095" unicode="&#x44d;" horiz-adv-x="511" 
d="M321 234h-241v98h241q-1 67 -29.5 92t-103.5 25h-146v89q99 15 179 15q46 0 76.5 -4.5t63.5 -20.5t51.5 -45.5t31 -82.5t12.5 -128q0 -84 -16 -141.5t-46.5 -88t-67.5 -42.5t-87 -12q-115 0 -209 19v87h162q78 0 103.5 26.5t25.5 113.5z" />
    <glyph glyph-name="afii10096" unicode="&#x44e;" horiz-adv-x="881" 
d="M551 553h40q57 0 98 -12.5t73 -43.5t48 -87t16 -139q0 -158 -62 -220.5t-173 -62.5h-40q-54 0 -92.5 10t-71.5 36t-51 75.5t-21 123.5h-121v-233h-129v540h129v-211h124q13 125 71.5 174.5t161.5 49.5zM577 451h-12q-61 0 -88 -24.5t-27 -91.5v-130q0 -68 24 -92t81 -24
h33q53 0 78.5 27t25.5 89v130q0 68 -26 92t-89 24z" />
    <glyph glyph-name="afii10097" unicode="&#x44f;" horiz-adv-x="616" 
d="M269 554q135 0 281 -17v-537h-127v192h-144l-106 -192h-139l123 211q-104 56 -104 165q0 82 51.5 130t164.5 48zM423 453h-138q-98 0 -98 -75q0 -50 45 -87h191v162z" />
    <glyph glyph-name="uni0450" unicode="&#x450;" horiz-adv-x="591" 
d="M187 226v-55q0 -42 22 -59.5t68 -17.5h235v-87q-87 -18 -226 -18q-133 0 -182 63t-49 210q0 146 56 218.5t197 72.5q233 0 233 -208v-39q0 -44 -22.5 -62t-54.5 -18h-277zM415 323v49q0 31 -17.5 54.5t-62.5 23.5h-62q-43 0 -64.5 -28.5t-21.5 -59.5v-39h228zM356 592
l-188 130l76 92l169 -160z" />
    <glyph glyph-name="afii10071" unicode="&#x451;" horiz-adv-x="591" 
d="M187 226v-55q0 -42 22 -59.5t68 -17.5h235v-87q-87 -18 -226 -18q-133 0 -182 63t-49 210q0 146 56 218.5t197 72.5q233 0 233 -208v-39q0 -44 -22.5 -62t-54.5 -18h-277zM415 323v49q0 31 -17.5 54.5t-62.5 23.5h-62q-43 0 -64.5 -28.5t-21.5 -59.5v-39h228zM263 634
h-113v110h113v-110zM459 634h-113v110h113v-110z" />
    <glyph glyph-name="afii10099" unicode="&#x452;" horiz-adv-x="629" 
d="M194 406v-406h-129v585h-56v77h56v75h129v-75h166v-77h-166v-82q132 11 161 11q219 0 219 -239q0 -103 -52 -199.5t-158 -173.5l-60 71q137 131 137 297q0 77 -35.5 106.5t-98.5 29.5h-113z" />
    <glyph glyph-name="afii10100" unicode="&#x453;" horiz-adv-x="512" 
d="M427 722l-188 -130l-57 62l169 160zM497 540v-102h-303v-438h-129v540h432z" />
    <glyph glyph-name="afii10101" unicode="&#x454;" horiz-adv-x="508" 
d="M430 234h-240q0 -87 25.5 -113.5t103.5 -26.5h159v-87q-94 -19 -206 -19q-52 0 -87 9.5t-67 36.5t-47.5 82t-15.5 139q0 94 17 155t51 91t72.5 41t94.5 11q84 0 183 -15v-92h-150q-75 0 -103.5 -23.5t-29.5 -90.5h240v-98z" />
    <glyph glyph-name="afii10102" unicode="&#x455;" horiz-adv-x="512" 
d="M235 553q113 0 212 -16v-91h-208q-66 0 -66 -45q0 -26 59 -50q12 -5 47.5 -17t55 -20t50 -25t47 -34.5t29.5 -44.5t13 -60q0 -91 -60.5 -126.5t-165.5 -35.5q-116 0 -206 17v89h226q75 0 75 59q0 30 -50 53q-18 8 -58 21.5t-68.5 25.5t-60 31t-48.5 48t-17 66q0 44 16 75
t44 48t61 24.5t73 7.5z" />
    <glyph glyph-name="afii10103" unicode="&#x456;" horiz-adv-x="269" 
d="M200 611h-131v126h131v-126zM199 0h-129v540h129v-540z" />
    <glyph glyph-name="afii10104" unicode="&#x457;" horiz-adv-x="269" 
d="M199 0h-129v540h129v-540zM94 627h-113v110h113v-110zM290 627h-113v110h113v-110z" />
    <glyph glyph-name="afii10105" unicode="&#x458;" horiz-adv-x="273" 
d="M203 611h-132v126h132v-126zM202 540v-527q0 -87 -33 -130.5t-147 -107.5l-54 78l79 71q25 23 25 62v554h130z" />
    <glyph glyph-name="afii10106" unicode="&#x459;" horiz-adv-x="967" 
d="M404 7v430h-147l-27 -249q-5 -44 -13 -72.5t-26.5 -57t-53.5 -48t-89 -32.5l-38 82l63 50q26 21 30 56l40 374h389v-162q103 15 161 15q49 0 85.5 -7.5t70 -27.5t51 -60.5t17.5 -101.5q0 -114 -60 -161t-180 -47q-137 0 -273 19zM689 289h-157v-199h155q53 0 75.5 23.5
t22.5 67.5v21q0 50 -22 68.5t-74 18.5z" />
    <glyph glyph-name="afii10107" unicode="&#x45a;" horiz-adv-x="972" 
d="M409 7v234h-215v-241h-129v540h129v-196h215v196h128v-180q90 15 161 15q49 0 85.5 -7.5t70 -26.5t51 -58.5t17.5 -97.5q0 -110 -59.5 -153.5t-180.5 -43.5q-137 0 -273 19zM694 271h-157v-181h155q98 0 98 88v4q0 50 -22 69.5t-74 19.5z" />
    <glyph glyph-name="afii10108" unicode="&#x45b;" horiz-adv-x="627" 
d="M562 0h-129v321q0 105 -98 105h-141v-426h-129v593h-55v77h55v67h129v-67h165v-77h-165v-70q127 10 153 10q24 0 38 -0.5t39.5 -4t41.5 -10t36.5 -19.5t32 -32t19.5 -48.5t8 -66.5v-352z" />
    <glyph glyph-name="afii10109" unicode="&#x45c;" horiz-adv-x="555" 
d="M449 722l-188 -130l-57 62l169 160zM191 540v-540h-126v540h126zM398 0l-189 275l188 265h144l-190 -265l199 -275h-152z" />
    <glyph glyph-name="uni045D" unicode="&#x45d;" horiz-adv-x="636" 
d="M363 592l-188 130l76 92l169 -160zM441 349l-5 -1l-242 -348h-129v540h129v-346l3 -1l244 347h130v-540h-130v349z" />
    <glyph glyph-name="afii10110" unicode="&#x45e;" horiz-adv-x="602" 
d="M308 -206h-125l78 206h-50l-199 539h133l146 -425h10l160 425h126zM319 602q-146 0 -182 162l55 26q55 -92 124 -92q75 0 129 90l53 -25q-20 -78 -67 -119.5t-112 -41.5z" />
    <glyph glyph-name="afii10193" unicode="&#x45f;" horiz-adv-x="634" 
d="M440 540h129v-540h-191v-173h-123v173h-190v540h131v-436h244v436z" />
    <glyph glyph-name="afii10050" unicode="&#x490;" horiz-adv-x="603" 
d="M583 622h-372v-622h-136v736h374v143h134v-257z" />
    <glyph glyph-name="afii10098" unicode="&#x491;" horiz-adv-x="512" 
d="M495 437l-301 1v-438h-129v540h310v132h120v-235z" />
    <glyph glyph-name="schwacyrillic" unicode="&#x4d9;" horiz-adv-x="591" 
d="M409 316v55q0 42 -22 59.5t-68 17.5h-220v87q87 18 211 18q133 0 182 -63t49 -210q0 -146 -56 -218.5t-197 -72.5q-233 0 -233 208v39q0 44 22.5 62t54.5 18h277zM181 219v-49q0 -31 17.5 -54.5t62.5 -23.5h62q43 0 64.5 28.5t21.5 59.5v39h-228z" />
    <glyph glyph-name="Wgrave" unicode="&#x1e80;" horiz-adv-x="1102" 
d="M776 135h6l162 601h143l-227 -736h-161l-135 410h-6l-138 -410h-161l-244 736h146l175 -603h6l152 438l-58 165h145zM580 783l-207 88l59 104l194 -121z" />
    <glyph glyph-name="wgrave" unicode="&#x1e81;" horiz-adv-x="872" 
d="M610 138h4l114 401h129l-173 -539h-147l-90 250l-4 -1q-15 -42 -48.5 -125t-48.5 -124h-147l-184 539h130l129 -411h4l54 138q38 94 56 143l-46 130h129zM448 592l-188 130l76 92l169 -160z" />
    <glyph glyph-name="Wacute" unicode="&#x1e82;" horiz-adv-x="1102" 
d="M776 135h6l162 601h143l-227 -736h-161l-135 410h-6l-138 -410h-161l-244 736h146l175 -603h6l152 438l-58 165h145zM729 872l-207 -88l-46 71l194 121z" />
    <glyph glyph-name="wacute" unicode="&#x1e83;" horiz-adv-x="872" 
d="M610 138h4l114 401h129l-173 -539h-147l-90 250l-4 -1q-15 -42 -48.5 -125t-48.5 -124h-147l-184 539h130l129 -411h4l54 138q38 94 56 143l-46 130h129zM605 722l-188 -130l-57 62l169 160z" />
    <glyph glyph-name="Wdieresis" unicode="&#x1e84;" horiz-adv-x="1102" 
d="M776 135h6l162 601h143l-227 -736h-161l-135 410h-6l-138 -410h-161l-244 736h146l175 -603h6l152 438l-58 165h145zM516 815h-113v110h113v-110zM712 815h-113v110h113v-110z" />
    <glyph glyph-name="wdieresis" unicode="&#x1e85;" horiz-adv-x="872" 
d="M610 138h4l114 401h129l-173 -539h-147l-90 250l-4 -1q-15 -42 -48.5 -125t-48.5 -124h-147l-184 539h130l129 -411h4l54 138q38 94 56 143l-46 130h129zM393 627h-113v110h113v-110zM589 627h-113v110h113v-110z" />
    <glyph glyph-name="Ygrave" unicode="&#x1ef2;" horiz-adv-x="691" 
d="M348 370h6l193 366h142l-270 -487v-249h-134v249l-281 487h146zM402 781l-207 88l59 104l194 -121z" />
    <glyph glyph-name="ygrave" unicode="&#x1ef3;" horiz-adv-x="602" 
d="M308 -206h-125l78 206h-50l-199 539h133l146 -425h10l160 425h126zM329 592l-188 130l76 92l169 -160z" />
    <glyph glyph-name="endash" unicode="&#x2013;" horiz-adv-x="625" 
d="M47 230v91h535v-91h-535z" />
    <glyph glyph-name="emdash" unicode="&#x2014;" horiz-adv-x="908" 
d="M47 230v91h819v-91h-819z" />
    <glyph glyph-name="afii00208" unicode="&#x2015;" horiz-adv-x="908" 
d="M47 230v91h819v-91h-819z" />
    <glyph glyph-name="quoteleft" unicode="&#x2018;" horiz-adv-x="264" 
d="M50 451v91q0 61 22.5 105t85.5 104l56 -33l-57 -122l36 -12v-133h-143z" />
    <glyph glyph-name="quoteright" unicode="&#x2019;" horiz-adv-x="264" 
d="M214 737v-91q0 -61 -22.5 -105t-85.5 -104l-56 33l57 122l-36 12v133h143z" />
    <glyph glyph-name="quotesinglbase" unicode="&#x201a;" horiz-adv-x="291" 
d="M211 137v-91q0 -61 -22.5 -105t-85.5 -104l-56 33l57 122l-36 12v133h143z" />
    <glyph glyph-name="quotedblleft" unicode="&#x201c;" horiz-adv-x="443" 
d="M50 451v91q0 61 22.5 105t85.5 104l56 -33l-57 -122l36 -12v-133h-143zM229 451v91q0 61 22.5 105t85.5 104l56 -33l-57 -122l36 -12v-133h-143z" />
    <glyph glyph-name="quotedblright" unicode="&#x201d;" horiz-adv-x="443" 
d="M393 737v-91q0 -61 -22.5 -105t-85.5 -104l-56 33l57 122l-36 12v133h143zM214 737v-91q0 -61 -22.5 -105t-85.5 -104l-56 33l57 122l-36 12v133h143z" />
    <glyph glyph-name="quotedblbase" unicode="&#x201e;" horiz-adv-x="468" 
d="M211 137v-91q0 -61 -22.5 -105t-85.5 -104l-56 33l57 122l-36 12v133h143zM388 137v-91q0 -61 -22.5 -105t-85.5 -104l-56 33l57 122l-36 12v133h143z" />
    <glyph glyph-name="dagger" unicode="&#x2020;" 
d="M545 438h-184v-477h-117v477h-169v104h169v195h117v-195h184v-104z" />
    <glyph glyph-name="daggerdbl" unicode="&#x2021;" 
d="M75 364h169v94h-169v104h169v175h117v-175h184v-104h-184v-94h184v-104h-184v-299h-117v299h-169v104z" />
    <glyph glyph-name="bullet" unicode="&#x2022;" horiz-adv-x="515" 
d="M258 111q-65 0 -111.5 46t-46.5 110q0 65 46.5 111.5t111.5 46.5t111 -46.5t46 -111.5q0 -64 -46 -110t-111 -46z" />
    <glyph glyph-name="trianglebullet" unicode="&#x2023;" horiz-adv-x="506" 
d="M86 476l390 -199l-390 -209v408z" />
    <glyph glyph-name="ellipsis" unicode="&#x2026;" horiz-adv-x="801" 
d="M51 0v142h151v-142h-151zM307 0v142h151v-142h-151zM564 0v142h151v-142h-151z" />
    <glyph glyph-name="perthousand" unicode="&#x2030;" horiz-adv-x="1313" 
d="M224 653h-1q-35 0 -53.5 -16.5t-18.5 -57.5v-60q0 -41 17 -58t52 -17h7q32 0 50.5 19t18.5 56v60q0 41 -18 57.5t-54 16.5zM209 737h29q74 0 116.5 -38.5t42.5 -135.5v-25q0 -176 -159 -176h-29q-77 0 -118 34t-41 135v25q0 100 42.5 140.5t116.5 40.5zM643 737
l-286 -737h-87l287 737h86zM692 291h-1q-35 0 -53.5 -16.5t-18.5 -57.5v-60q0 -41 17 -58t52 -17h7q32 0 50.5 19t18.5 56v60q0 41 -18 57.5t-54 16.5zM677 375h29q74 0 116.5 -38.5t42.5 -135.5v-25q0 -176 -159 -176h-29q-77 0 -118 34t-41 135v25q0 100 42.5 140.5
t116.5 40.5zM1090 291h-1q-35 0 -53.5 -16.5t-18.5 -57.5v-60q0 -41 17 -58t52 -17h7q32 0 50.5 19t18.5 56v60q0 41 -18 57.5t-54 16.5zM1075 375h29q74 0 116.5 -38.5t42.5 -135.5v-25q0 -176 -159 -176h-29q-77 0 -118 34t-41 135v25q0 100 42.5 140.5t116.5 40.5z" />
    <glyph glyph-name="guilsinglleft" unicode="&#x2039;" horiz-adv-x="372" 
d="M239 22l-199 213v34l205 215l72 -60l-141 -173l139 -168z" />
    <glyph glyph-name="guilsinglright" unicode="&#x203a;" horiz-adv-x="372" 
d="M332 235l-199 -213l-76 61l139 168l-141 173l72 60l205 -215v-34z" />
    <glyph glyph-name="fraction" unicode="&#x2044;" horiz-adv-x="107" 
d="M233 737l-286 -737h-87l287 737h86z" />
    <glyph glyph-name="fraction" unicode="&#x2215;" horiz-adv-x="107" 
d="M233 737l-286 -737h-87l287 737h86z" />
    <glyph glyph-name="zerosuperior" unicode="&#x2070;" horiz-adv-x="403" 
d="M204 759h-12q-68 0 -68 -69v-159q0 -68 66 -68h18q31 0 48 17.5t17 50.5v159q0 69 -69 69zM183 840h31q78 0 122.5 -38t44.5 -132v-114q0 -96 -43.5 -134.5t-123.5 -38.5h-31q-78 0 -123 36.5t-45 129.5v116q0 96 43 135.5t125 39.5z" />
    <glyph glyph-name="foursuperior" unicode="&#x2074;" horiz-adv-x="403" 
d="M391 484h-52v-94h-98v94h-232v70l180 278h109l-174 -266h117v97h98v-97h52v-82z" />
    <glyph glyph-name="fivesuperior" unicode="&#x2075;" horiz-adv-x="403" 
d="M352 832v-81h-201q-2 -10 -7 -32.5t-7 -35.5l108 -16q128 -18 128 -133q0 -150 -173 -150q-98 0 -172 14v68h169q38 0 54.5 14.5t16.5 49.5q0 30 -13.5 42t-54.5 18l-135 20q-33 6 -28 38l32 184h283z" />
    <glyph glyph-name="sixsuperior" unicode="&#x2076;" horiz-adv-x="403" 
d="M288 844l29 -68l-93 -40q-65 -29 -83 -73q38 5 70 5q93 0 134.5 -31.5t41.5 -101.5q0 -151 -177 -151q-59 0 -97 12t-57 37t-25.5 54t-6.5 74q0 69 16 117t52 80t81 51t115 35zM285 527q0 33 -14 47.5t-50 14.5h-92v-35q0 -49 15 -70.5t63 -21.5q78 0 78 65z" />
    <glyph glyph-name="sevensuperior" unicode="&#x2077;" horiz-adv-x="403" 
d="M17 752v80h351v-67l-210 -375h-110l202 362h-233z" />
    <glyph glyph-name="eightsuperior" unicode="&#x2078;" horiz-adv-x="403" 
d="M198 382q-89 0 -138 29.5t-49 105.5q0 68 55 107q-42 38 -42 92q0 124 174 124q175 0 175 -124q0 -49 -42 -91q54 -35 54 -106q0 -68 -48.5 -102.5t-138.5 -34.5zM199 460q80 0 80 59q0 29 -17.5 43t-63.5 14q-80 0 -80 -57q0 -30 16.5 -44.5t64.5 -14.5zM200 759
q-42 0 -56.5 -14t-14.5 -41q0 -26 20 -53q21 3 49 3q35 0 50 -2q20 23 20 52q0 26 -14.5 40.5t-53.5 14.5z" />
    <glyph glyph-name="ninesuperior" unicode="&#x2079;" horiz-adv-x="403" 
d="M115 377l-30 69l94 40q64 27 82 74q-40 -5 -71 -5q-93 0 -135 32t-42 102q0 151 178 151q108 0 146.5 -44t38.5 -133q0 -133 -61 -193.5t-200 -92.5zM117 696q0 -33 13.5 -47t50.5 -14h91v35q0 49 -15 70t-63 21q-77 0 -77 -65z" />
    <glyph glyph-name="plussuperior" unicode="&#x207a;" horiz-adv-x="403" 
d="M364 555h-115v-109h-87v109h-116v77h116v106h87v-106h115v-77z" />
    <glyph glyph-name="hyphensuperior" unicode="&#x207b;" horiz-adv-x="403" 
d="M364 555h-318v77h318v-77z" />
    <glyph glyph-name="equalsuperior" unicode="&#x207c;" horiz-adv-x="403" 
d="M356 605h-318v74h318v-74zM356 492h-318v75h318v-75z" />
    <glyph glyph-name="parenleftsuperior" unicode="&#x207d;" horiz-adv-x="235" 
d="M30 592q0 68 31.5 141t88.5 134l70 -44q-84 -113 -84 -233q0 -122 84 -238l-70 -43q-58 61 -89 137t-31 146z" />
    <glyph glyph-name="parenrightsuperior" unicode="&#x207e;" horiz-adv-x="235" 
d="M202 591q0 -69 -31 -145t-88 -138l-70 43q83 116 83 238t-84 233l70 44q57 -61 88.5 -134t31.5 -141z" />
    <glyph glyph-name="nsuperior" unicode="&#x207f;" horiz-adv-x="432" 
d="M389 300h-103v225q0 34 -15 46.5t-50 12.5h-80v-284h-102v354q132 13 195 13q25 0 39.5 -1t39.5 -7t39 -18t25.5 -36.5t11.5 -59.5v-245z" />
    <glyph glyph-name="zeroinferior" unicode="&#x2080;" horiz-adv-x="403" 
d="M204 279h-12q-68 0 -68 -69v-159q0 -68 66 -68h18q31 0 48 17.5t17 50.5v159q0 69 -69 69zM183 360h31q78 0 122.5 -38t44.5 -132v-114q0 -96 -43.5 -134.5t-123.5 -38.5h-31q-78 0 -123 36.5t-45 129.5v116q0 96 43 135.5t125 39.5z" />
    <glyph glyph-name="oneinferior" unicode="&#x2081;" horiz-adv-x="403" 
d="M351 -90h-302v80h99v268h-86v58l82 29q18 7 37 7h67v-362h103v-80z" />
    <glyph glyph-name="twoinferior" unicode="&#x2082;" horiz-adv-x="403" 
d="M168 276h-147v69q78 15 173 15q163 0 163 -131q0 -35 -16.5 -64t-53.5 -62l-128 -113h202v-80h-353v72l198 173q43 36 43 72q0 27 -16.5 38t-64.5 11z" />
    <glyph glyph-name="threeinferior" unicode="&#x2083;" horiz-adv-x="403" 
d="M205 268l-2 4h-184v80h339v-75l-133 -92l33 -7q56 -12 83 -38.5t27 -86.5q0 -150 -173 -150q-102 0 -177 14v69h171q74 0 74 63q0 26 -15.5 38.5t-52.5 18.5l-106 18v62z" />
    <glyph glyph-name="fourinferior" unicode="&#x2084;" horiz-adv-x="403" 
d="M391 4h-52v-94h-98v94h-232v70l180 278h109l-174 -266h117v97h98v-97h52v-82z" />
    <glyph glyph-name="fiveinferior" unicode="&#x2085;" horiz-adv-x="403" 
d="M352 352v-81h-201q-2 -10 -7 -32.5t-7 -35.5l108 -16q128 -18 128 -133q0 -150 -173 -150q-98 0 -172 14v68h169q38 0 54.5 14.5t16.5 49.5q0 30 -13.5 42t-54.5 18l-135 20q-33 6 -28 38l32 184h283z" />
    <glyph glyph-name="sixinferior" unicode="&#x2086;" horiz-adv-x="403" 
d="M288 364l29 -68l-93 -40q-65 -29 -83 -73q38 5 70 5q93 0 134.5 -31.5t41.5 -101.5q0 -151 -177 -151q-59 0 -97 12t-57 37t-25.5 54t-6.5 74q0 69 16 117t52 80t81 51t115 35zM285 47q0 33 -14 47.5t-50 14.5h-92v-35q0 -49 15 -70.5t63 -21.5q78 0 78 65z" />
    <glyph glyph-name="seveninferior" unicode="&#x2087;" horiz-adv-x="403" 
d="M17 272v80h351v-67l-210 -375h-110l202 362h-233z" />
    <glyph glyph-name="eightinferior" unicode="&#x2088;" horiz-adv-x="403" 
d="M198 -98q-89 0 -138 29.5t-49 105.5q0 68 55 107q-42 38 -42 92q0 124 174 124q175 0 175 -124q0 -49 -42 -91q54 -35 54 -106q0 -68 -48.5 -102.5t-138.5 -34.5zM199 -20q80 0 80 59q0 29 -17.5 43t-63.5 14q-80 0 -80 -57q0 -30 16.5 -44.5t64.5 -14.5zM200 279
q-42 0 -56.5 -14t-14.5 -41q0 -26 20 -53q21 3 49 3q35 0 50 -2q20 23 20 52q0 26 -14.5 40.5t-53.5 14.5z" />
    <glyph glyph-name="nineinferior" unicode="&#x2089;" horiz-adv-x="403" 
d="M115 -103l-30 69l94 40q64 27 82 74q-40 -5 -71 -5q-93 0 -135 32t-42 102q0 151 178 151q108 0 146.5 -44t38.5 -133q0 -133 -61 -193.5t-200 -92.5zM117 216q0 -33 13.5 -47t50.5 -14h91v35q0 49 -15 70t-63 21q-77 0 -77 -65z" />
    <glyph glyph-name="plusinferior" unicode="&#x208a;" horiz-adv-x="403" 
d="M364 75h-115v-109h-87v109h-116v77h116v106h87v-106h115v-77z" />
    <glyph glyph-name="hypheninferior" unicode="&#x208b;" horiz-adv-x="403" 
d="M364 75h-318v77h318v-77z" />
    <glyph glyph-name="equalinferior" unicode="&#x208c;" horiz-adv-x="403" 
d="M356 125h-318v74h318v-74zM356 12h-318v75h318v-75z" />
    <glyph glyph-name="parenleftinferior" unicode="&#x208d;" horiz-adv-x="235" 
d="M30 128q0 68 31.5 141t88.5 134l70 -44q-84 -113 -84 -233q0 -122 84 -238l-70 -43q-58 61 -89 137t-31 146z" />
    <glyph glyph-name="parenrightinferior" unicode="&#x208e;" horiz-adv-x="235" 
d="M202 127q0 -69 -31 -145t-88 -138l-70 43q83 116 83 238t-84 233l70 44q57 -61 88.5 -134t31.5 -141z" />
    <glyph glyph-name="Euro" unicode="&#x20ac;" 
d="M50 346h450v-84h-265q1 -91 35 -123t129 -32h174v-86q-117 -22 -219 -22q-55 0 -95.5 11t-75.5 39t-56 81t-27 132h-50v84zM500 406h-450v84h57q10 73 34 123t61.5 76.5t78.5 37t96 10.5q70 0 189 -18v-89h-161q-88 0 -125.5 -32t-42.5 -108h263v-84z" />
    <glyph glyph-name="centigrade" unicode="&#x2103;" horiz-adv-x="897" 
d="M476 450v-172q0 -104 35.5 -138.5t139.5 -34.5h211v-94q-116 -23 -257 -23q-50 0 -88 8t-73.5 31.5t-58.5 62.5t-37 103t-14 151q0 101 15 174.5t40 117.5t64.5 70t80 34.5t95.5 8.5q110 0 226 -19v-96h-198q-103 0 -142 -39.5t-39 -144.5zM171 503q-60 0 -93.5 34.5
t-33.5 87.5q0 51 35.5 86.5t91.5 35.5q57 0 89.5 -35t32.5 -87q0 -51 -36 -86.5t-86 -35.5zM171 678q-25 0 -40.5 -16t-15.5 -39q0 -24 15 -40t41 -16q23 0 37.5 16t14.5 40q0 23 -14.5 39t-37.5 16z" />
    <glyph glyph-name="fahrenheit" unicode="&#x2109;" horiz-adv-x="891" 
d="M163 503q-60 0 -93.5 34.5t-33.5 87.5q0 51 35.5 86.5t91.5 35.5q57 0 89.5 -35t32.5 -87q0 -51 -36 -86.5t-86 -35.5zM163 678q-25 0 -40.5 -16t-15.5 -39q0 -24 15 -40t41 -16q23 0 37.5 16t14.5 40q0 23 -14.5 39t-37.5 16zM871 622h-372v-205h351v-112h-351v-305
h-136v736h508v-114z" />
    <glyph glyph-name="afii61289" unicode="&#x2113;" horiz-adv-x="477" 
d="M201 521v-143q64 66 91.5 114t27.5 100q0 26 -14 45t-38 19q-29 0 -48 -32t-19 -103zM23 218l83 74v215q0 119 45 176.5t117 57.5q153 0 153 -147q0 -71 -51.5 -151.5t-165.5 -183.5v-101q0 -47 15 -62.5t43 -15.5q59 0 113 103l72 -35q-29 -79 -74 -119.5t-125 -40.5
q-64 0 -101.5 40.5t-37.5 105.5v43l-32 -25z" />
    <glyph glyph-name="afii61352" unicode="&#x2116;" horiz-adv-x="1140" 
d="M1095 238h-345v80h345v-80zM536 240l6 1v495h136v-736h-141l-320 511l-4 -3v-508h-138v736h144zM927 658h-9q-37 0 -53.5 -14t-16.5 -52v-83q0 -38 14.5 -52t49.5 -14h21q32 0 47.5 15.5t15.5 50.5v83q0 39 -15.5 52.5t-53.5 13.5zM909 738h26q84 0 126 -40.5t42 -146.5
q0 -105 -44.5 -146.5t-123.5 -41.5h-26q-83 0 -125 38t-42 144q0 108 42.5 150.5t124.5 42.5z" />
    <glyph glyph-name="published" unicode="&#x2117;" horiz-adv-x="829" 
d="M362 332h86q43 0 63.5 22.5t20.5 59.5v10q0 88 -83 88h-87v-180zM362 256v-121h-95v443q92 13 183 13q85 0 132 -39.5t47 -133.5q0 -76 -44.5 -120t-122.5 -44q-45 0 -100 2zM785 368q0 -157 -107.5 -262.5t-259.5 -105.5q-168 0 -268.5 103.5t-100.5 264.5
q0 157 108.5 261.5t260.5 104.5t259.5 -104.5t107.5 -261.5zM711 368q0 127 -85 216t-208 89t-209.5 -89t-86.5 -216q0 -128 85 -217t211 -89q123 0 208 89t85 217z" />
    <glyph glyph-name="trademark" unicode="&#x2122;" horiz-adv-x="702" 
d="M571 631l-61 -112h-56l-64 110v-196h-66v304h82l73 -133h3l73 133h84v-304h-68v198zM197 677v-244h-69v244h-95v59h259v-59h-95z" />
    <glyph glyph-name="Ohm" unicode="&#x2126;" horiz-adv-x="770" 
d="M629 118l3 -3h93v-115h-258v118q107 51 107 212v125q0 101 -42 140.5t-137 39.5h-16q-95 0 -137 -39.5t-42 -140.5v-125q0 -167 105 -212v-118h-260v115h89v6q-43 35 -60 95.5t-17 161.5q0 372 297 372h60q300 0 300 -358q0 -206 -85 -274z" />
    <glyph glyph-name="angstrom" unicode="&#x212b;" horiz-adv-x="747" 
d="M593 0l-59 164h-320l-59 -164h-145l281 732q-32 32 -32 79t35 81t84 34t82 -34t33 -81t-35 -82l279 -729h-144zM375 599h-6l-116 -323h239zM378 856q-21 0 -34.5 -13.5t-13.5 -33.5t13 -34t35 -14q20 0 32.5 14t12.5 34t-12.5 33.5t-32.5 13.5z" />
    <glyph glyph-name="estimated" unicode="&#x212e;" horiz-adv-x="861" 
d="M819 356h-635v-203q36 -58 103.5 -92.5t141.5 -34.5q157 0 247 111h63q-60 -70 -141 -109t-170 -39q-161 0 -276 112t-115 267q0 153 114.5 260.5t276.5 107.5q164 0 277 -108.5t114 -271.5zM669 390v194q-32 55 -99.5 86t-140.5 31q-64 0 -129 -31.5t-116 -89.5v-190
h485z" />
    <glyph glyph-name="onethird" unicode="&#x2153;" horiz-adv-x="915" 
d="M629 737l-286 -737h-87l287 737h86zM347 300h-302v80h99v268h-86v58l82 29q18 7 37 7h67v-362h103v-80zM723 358l-2 4h-184v80h339v-75l-133 -92l33 -7q56 -12 83 -38.5t27 -86.5q0 -150 -173 -150q-102 0 -177 14v69h171q74 0 74 63q0 26 -15.5 38.5t-52.5 18.5l-106 18
v62z" />
    <glyph glyph-name="twothirds" unicode="&#x2154;" horiz-adv-x="915" 
d="M642 737l-286 -737h-87l287 737h86zM178 666h-147v69q78 15 173 15q163 0 163 -131q0 -35 -16.5 -64t-53.5 -62l-128 -113h202v-80h-353v72l198 173q43 36 43 72q0 27 -16.5 38t-64.5 11zM733 358l-2 4h-184v80h339v-75l-133 -92l33 -7q56 -12 83 -38.5t27 -86.5
q0 -150 -173 -150q-102 0 -177 14v69h171q74 0 74 63q0 26 -15.5 38.5t-52.5 18.5l-106 18v62z" />
    <glyph glyph-name="onefifth" unicode="&#x2155;" horiz-adv-x="915" 
d="M637 737l-286 -737h-87l287 737h86zM346 300h-302v80h99v268h-86v58l82 29q18 7 37 7h67v-362h103v-80zM843 442v-81h-201q-2 -10 -7 -32.5t-7 -35.5l108 -16q128 -18 128 -133q0 -150 -173 -150q-98 0 -172 14v68h169q38 0 54.5 14.5t16.5 49.5q0 30 -13.5 42t-54.5 18
l-135 20q-33 6 -28 38l32 184h283z" />
    <glyph glyph-name="twofifths" unicode="&#x2156;" horiz-adv-x="915" 
d="M666 737l-286 -737h-87l287 737h86zM183 666h-147v69q78 15 173 15q163 0 163 -131q0 -35 -16.5 -64t-53.5 -62l-128 -113h202v-80h-353v72l198 173q43 36 43 72q0 27 -16.5 38t-64.5 11zM868 442v-81h-201q-2 -10 -7 -32.5t-7 -35.5l108 -16q128 -18 128 -133
q0 -150 -173 -150q-98 0 -172 14v68h169q38 0 54.5 14.5t16.5 49.5q0 30 -13.5 42t-54.5 18l-135 20q-33 6 -28 38l32 184h283z" />
    <glyph glyph-name="threefifths" unicode="&#x2157;" horiz-adv-x="915" 
d="M647 737l-286 -737h-87l287 737h86zM233 658l-2 4h-184v80h339v-75l-133 -92l33 -7q56 -12 83 -38.5t27 -86.5q0 -150 -173 -150q-102 0 -177 14v69h171q74 0 74 63q0 26 -15.5 38.5t-52.5 18.5l-106 18v62zM854 442v-81h-201q-2 -10 -7 -32.5t-7 -35.5l108 -16
q128 -18 128 -133q0 -150 -173 -150q-98 0 -172 14v68h169q38 0 54.5 14.5t16.5 49.5q0 30 -13.5 42t-54.5 18l-135 20q-33 6 -28 38l32 184h283z" />
    <glyph glyph-name="fourfifths" unicode="&#x2158;" horiz-adv-x="915" 
d="M661 737l-286 -737h-87l287 737h86zM407 394h-52v-94h-98v94h-232v70l180 278h109l-174 -266h117v97h98v-97h52v-82zM864 442v-81h-201q-2 -10 -7 -32.5t-7 -35.5l108 -16q128 -18 128 -133q0 -150 -173 -150q-98 0 -172 14v68h169q38 0 54.5 14.5t16.5 49.5
q0 30 -13.5 42t-54.5 18l-135 20q-33 6 -28 38l32 184h283z" />
    <glyph glyph-name="onesixth" unicode="&#x2159;" horiz-adv-x="915" 
d="M639 737l-286 -737h-87l287 737h86zM342 300h-302v80h99v268h-86v58l82 29q18 7 37 7h67v-362h103v-80zM763 454l29 -68l-93 -40q-65 -29 -83 -73q38 5 70 5q93 0 134.5 -31.5t41.5 -101.5q0 -151 -177 -151q-59 0 -97 12t-57 37t-25.5 54t-6.5 74q0 69 16 117t52 80
t81 51t115 35zM760 137q0 33 -14 47.5t-50 14.5h-92v-35q0 -49 15 -70.5t63 -21.5q78 0 78 65z" />
    <glyph glyph-name="fivesixths" unicode="&#x215a;" horiz-adv-x="915" 
d="M646 737l-286 -737h-87l287 737h86zM363 742v-81h-201q-2 -10 -7 -32.5t-7 -35.5l108 -16q128 -18 128 -133q0 -150 -173 -150q-98 0 -172 14v68h169q38 0 54.5 14.5t16.5 49.5q0 30 -13.5 42t-54.5 18l-135 20q-33 6 -28 38l32 184h283zM772 454l29 -68l-93 -40
q-65 -29 -83 -73q38 5 70 5q93 0 134.5 -31.5t41.5 -101.5q0 -151 -177 -151q-59 0 -97 12t-57 37t-25.5 54t-6.5 74q0 69 16 117t52 80t81 51t115 35zM769 137q0 33 -14 47.5t-50 14.5h-92v-35q0 -49 15 -70.5t63 -21.5q78 0 78 65z" />
    <glyph glyph-name="oneeighth" unicode="&#x215b;" horiz-adv-x="915" 
d="M626 737l-286 -737h-87l287 737h86zM335 300h-302v80h99v268h-86v58l82 29q18 7 37 7h67v-362h103v-80zM690 -8q-89 0 -138 29.5t-49 105.5q0 68 55 107q-42 38 -42 92q0 124 174 124q175 0 175 -124q0 -49 -42 -91q54 -35 54 -106q0 -68 -48.5 -102.5t-138.5 -34.5z
M691 70q80 0 80 59q0 29 -17.5 43t-63.5 14q-80 0 -80 -57q0 -30 16.5 -44.5t64.5 -14.5zM692 369q-42 0 -56.5 -14t-14.5 -41q0 -26 20 -53q21 3 49 3q35 0 50 -2q20 23 20 52q0 26 -14.5 40.5t-53.5 14.5z" />
    <glyph glyph-name="threeeighths" unicode="&#x215c;" horiz-adv-x="915" 
d="M634 737l-286 -737h-87l287 737h86zM217 658l-2 4h-184v80h339v-75l-133 -92l33 -7q56 -12 83 -38.5t27 -86.5q0 -150 -173 -150q-102 0 -177 14v69h171q74 0 74 63q0 26 -15.5 38.5t-52.5 18.5l-106 18v62zM697 -5q-89 0 -138 29.5t-49 105.5q0 68 55 107q-42 38 -42 92
q0 124 174 124q175 0 175 -124q0 -49 -42 -91q54 -35 54 -106q0 -68 -48.5 -102.5t-138.5 -34.5zM698 73q80 0 80 59q0 29 -17.5 43t-63.5 14q-80 0 -80 -57q0 -30 16.5 -44.5t64.5 -14.5zM699 372q-42 0 -56.5 -14t-14.5 -41q0 -26 20 -53q21 3 49 3q35 0 50 -2
q20 23 20 52q0 26 -14.5 40.5t-53.5 14.5z" />
    <glyph glyph-name="fiveeighths" unicode="&#x215d;" horiz-adv-x="915" 
d="M631 737l-286 -737h-87l287 737h86zM355 742v-81h-201q-2 -10 -7 -32.5t-7 -35.5l108 -16q128 -18 128 -133q0 -150 -173 -150q-98 0 -172 14v68h169q38 0 54.5 14.5t16.5 49.5q0 30 -13.5 42t-54.5 18l-135 20q-33 6 -28 38l32 184h283zM694 -8q-89 0 -138 29.5
t-49 105.5q0 68 55 107q-42 38 -42 92q0 124 174 124q175 0 175 -124q0 -49 -42 -91q54 -35 54 -106q0 -68 -48.5 -102.5t-138.5 -34.5zM695 70q80 0 80 59q0 29 -17.5 43t-63.5 14q-80 0 -80 -57q0 -30 16.5 -44.5t64.5 -14.5zM696 369q-42 0 -56.5 -14t-14.5 -41
q0 -26 20 -53q21 3 49 3q35 0 50 -2q20 23 20 52q0 26 -14.5 40.5t-53.5 14.5z" />
    <glyph glyph-name="seveneighths" unicode="&#x215e;" horiz-adv-x="915" 
d="M593 737l-286 -737h-87l287 737h86zM51 662v80h351v-67l-210 -375h-110l202 362h-233zM680 -8q-89 0 -138 29.5t-49 105.5q0 68 55 107q-42 38 -42 92q0 124 174 124q175 0 175 -124q0 -49 -42 -91q54 -35 54 -106q0 -68 -48.5 -102.5t-138.5 -34.5zM681 70q80 0 80 59
q0 29 -17.5 43t-63.5 14q-80 0 -80 -57q0 -30 16.5 -44.5t64.5 -14.5zM682 369q-42 0 -56.5 -14t-14.5 -41q0 -26 20 -53q21 3 49 3q35 0 50 -2q20 23 20 52q0 26 -14.5 40.5t-53.5 14.5z" />
    <glyph glyph-name="uni215F" unicode="&#x215f;" horiz-adv-x="494" 
d="M623 737l-286 -737h-87l287 737h86zM343 300h-302v80h99v268h-86v58l82 29q18 7 37 7h67v-362h103v-80z" />
    <glyph glyph-name="partialdiff" unicode="&#x2202;" horiz-adv-x="613" 
d="M293 633h-154v92q88 19 186 19q50 0 89 -14.5t64 -36t42.5 -57.5t26.5 -66t13.5 -77t5.5 -75t1 -73q0 -43 -1 -72t-6.5 -70t-15.5 -68t-29 -57t-45.5 -48t-67 -29.5t-91.5 -11.5q-118 0 -190 55.5t-72 183.5q0 113 59 184.5t176 71.5q67 0 152 -15q0 37 -4.5 62t-18 50.5
t-43.5 38.5t-77 13zM175 227q0 -69 38 -102.5t95 -33.5q80 0 105.5 43.5t25.5 138.5q0 78 -1 105h-151q-112 0 -112 -151z" />
    <glyph glyph-name="gradient" unicode="&#x2207;" horiz-adv-x="750" 
d="M10 736h727l-281 -736h-163zM194 629l178 -499l182 499h-360z" />
    <glyph glyph-name="product" unicode="&#x220f;" horiz-adv-x="757" 
d="M682 -120h-139v742h-331v-742h-137v856h607v-856z" />
    <glyph glyph-name="summation" unicode="&#x2211;" horiz-adv-x="625" 
d="M233 330l-192 282v125h548v-114h-403l206 -290l-209 -339h427v-114h-575v123z" />
    <glyph glyph-name="minus" unicode="&#x2212;" 
d="M557 281h-477v109h477v-109z" />
    <glyph glyph-name="radical" unicode="&#x221a;" 
d="M383 -117h-118l-125 394l-91 -31l-34 94l195 64l111 -351l168 683h115z" />
    <glyph glyph-name="infinity" unicode="&#x221e;" horiz-adv-x="719" 
d="M189 353q-26 0 -44 -20t-18 -50q0 -31 18.5 -51t45.5 -20q18 0 49 22t55 48q-25 28 -55.5 49.5t-50.5 21.5zM529 353q-22 0 -54 -20.5t-57 -49.5q21 -27 55 -49t54 -22q27 0 46 20t19 51t-18 50.5t-45 19.5zM528 116q-78 0 -168 97q-95 -99 -171 -99q-65 0 -112 46.5
t-47 122.5t46.5 122.5t113.5 46.5q46 0 84.5 -25t81.5 -74q48 50 89.5 75t88.5 25q66 0 112 -47t46 -123t-49 -121.5t-115 -45.5z" />
    <glyph glyph-name="logicaland" unicode="&#x2227;" 
d="M444 0l-134 380l-135 -380h-130l201 537h129l199 -537h-130z" />
    <glyph glyph-name="logicalor" unicode="&#x2228;" 
d="M310 157l134 380h130l-199 -537h-129l-201 537h130z" />
    <glyph glyph-name="intersection" unicode="&#x2229;" 
d="M213 303v-303h-126v337q0 57 20 98.5t54 65t74.5 34.5t86.5 11q55 0 100.5 -19.5t78 -68.5t32.5 -121v-337h-128v303q0 131 -96 131t-96 -131z" />
    <glyph glyph-name="union" unicode="&#x222a;" 
d="M213 540v-303q0 -130 96 -130t96 130v303h128v-336q0 -106 -62.5 -158t-148.5 -52q-99 0 -167 50.5t-68 159.5v336h126z" />
    <glyph glyph-name="integral" unicode="&#x222b;" horiz-adv-x="401" 
d="M137 57q9 105 17 273.5t15 258.5q6 79 32.5 114.5t90.5 35.5q60 0 96 -10v-85h-46q-32 0 -43 -13t-13 -58q-21 -425 -34 -553q-16 -150 -144 -150q-54 0 -90 10v85h53q32 0 47 19.5t19 72.5z" />
    <glyph glyph-name="approxequal" unicode="&#x2248;" 
d="M417 351q-45 0 -124.5 23t-104.5 23l-70 -47l-50 39q42 108 131 108q36 0 118 -23.5t113 -23.5l67 49l49 -38q-42 -110 -129 -110zM417 172q-45 0 -124.5 23t-104.5 23l-70 -47l-50 39q42 108 131 108q36 0 118 -23.5t113 -23.5l67 49l49 -38q-42 -110 -129 -110z" />
    <glyph glyph-name="notequal" unicode="&#x2260;" 
d="M127 55l-58 51l68 77h-69v98h156l75 84h-231v98h318l101 113l58 -50l-56 -63h56v-98h-143l-75 -84h218v-98h-305z" />
    <glyph glyph-name="lessequal" unicode="&#x2264;" 
d="M558 258v-119l-497 186v84l497 188v-123l-299 -106zM559 0h-498v109h498v-109z" />
    <glyph glyph-name="greaterequal" unicode="&#x2265;" 
d="M559 0h-498v109h498v-109zM62 139v119l299 110l-299 106v123l497 -188v-84z" />
    <glyph glyph-name="control" unicode="&#x2303;" horiz-adv-x="770" 
d="M150 353l-59 60l292 292l294 -292l-59 -60l-235 233z" />
    <glyph glyph-name="command" unicode="&#x2318;" horiz-adv-x="839" 
d="M211 494h64v64q0 27 -19 46t-45 19q-28 0 -46.5 -18.5t-18.5 -46.5t18.5 -46t46.5 -18zM566 558v-64h64q27 0 46 18.5t19 45.5t-19 46t-46 19q-26 0 -45 -18.5t-19 -46.5zM275 139v64h-64q-27 0 -46 -18.5t-19 -45.5q0 -28 18.5 -47t46.5 -19q27 0 45.5 19t18.5 47z
M630 203h-64v-64q0 -28 19 -47t45 -19q27 0 46 19t19 47q0 26 -19 45t-46 19zM356 284h129v129h-129v-129zM566 413v-129h64q70 0 107.5 -41.5t37.5 -103.5t-37.5 -104t-107.5 -42q-67 0 -106 42t-39 104v64h-129v-64q0 -61 -38 -103.5t-107 -42.5q-66 0 -106.5 42
t-40.5 104q0 61 40 103t107 42h64v129h-64q-59 0 -103 43.5t-44 101.5q0 61 41.5 103.5t105.5 42.5q70 0 107.5 -41.5t37.5 -104.5v-64h129v64q0 61 41 103.5t104 42.5q68 0 106.5 -42t38.5 -104q0 -58 -43 -101.5t-102 -43.5h-64z" />
    <glyph glyph-name="enter" unicode="&#x2324;" horiz-adv-x="785" 
d="M100 696h582v-84h-582v84zM157 226l-60 60l293 308l293 -308l-59 -60l-234 250z" />
    <glyph glyph-name="option" unicode="&#x2325;" horiz-adv-x="1188" 
d="M549 597v85h586v-85h-586zM50 597v85h288l306 -599h491v-83h-556l-306 597h-223z" />
    <glyph glyph-name="deleteright" unicode="&#x2326;" horiz-adv-x="1147" 
d="M615 140l-149 149l-147 -149l-55 55l148 148l-148 149l55 55l147 -148l149 148l55 -55l-148 -149l148 -148zM709 80l262 267l-262 267h-531v-534h531zM1088 347l-337 -347h-653v695h653z" />
    <glyph glyph-name="deleteleft" unicode="&#x232b;" horiz-adv-x="1166" 
d="M701 289l-149 -149l-55 55l148 148l-148 149l55 55l149 -148l147 148l55 -55l-148 -149l148 -148l-55 -55zM202 347l263 -267h531v534h-531zM423 0l-337 347l337 348h653v-695h-653z" />
    <glyph glyph-name="eject" unicode="&#x23cf;" horiz-adv-x="854" 
d="M66 227h702v-136h-702v136zM417 665l351 -351h-702z" />
    <glyph glyph-name="blacksquare" unicode="&#x25a0;" horiz-adv-x="875" 
d="M756 673v-633h-633v633h633z" />
    <glyph glyph-name="whitesquare" unicode="&#x25a1;" horiz-adv-x="841" 
d="M153 622v-551h546v551h-546zM769 0h-687v693h687v-693z" />
    <glyph glyph-name="blackuppointing.trangle" unicode="&#x25b2;" horiz-adv-x="820" 
d="M430 527l351 -351h-702z" />
    <glyph glyph-name="blackrightpointing.trangle" unicode="&#x25b6;" horiz-adv-x="595" 
d="M138 0v701l351 -350z" />
    <glyph glyph-name="blackdownpointing.trangle" unicode="&#x25bc;" horiz-adv-x="820" 
d="M781 527l-351 -351l-351 351h702z" />
    <glyph glyph-name="blackleftpointing.trangle" unicode="&#x25c0;" horiz-adv-x="595" 
d="M452 701v-701l-351 351z" />
    <glyph glyph-name="lozenge" unicode="&#x25ca;" 
d="M553 356l-195 -374h-96l-196 374l196 378h97zM428 357l-119 237l-116 -237l117 -235z" />
    <glyph glyph-name="ballotbox" unicode="&#x2610;" horiz-adv-x="841" 
d="M153 622v-551h546v551h-546zM769 0h-687v693h687v-693z" />
    <glyph glyph-name="ballotbox.withcheck" unicode="&#x2611;" horiz-adv-x="850" 
d="M769 0h-687v693h687v-693zM153 622v-551h546v520q-72 -62 -166 -211t-149 -262q-58 -11 -79 -22q-20 75 -55 162t-62 106q37 29 80 29q18 0 47 -56t41 -118q69 113 167 233t176 170h-546z" />
    <glyph glyph-name="ballotbox.withx" unicode="&#x2612;" horiz-adv-x="850" 
d="M769 0h-687v693h687v-693zM153 622v-551h546v551h-546zM427 402l186 190l55 -55l-187 -186l190 -189l-58 -54l-187 189l-188 -192l-53 58l187 186l-187 186l54 57z" />
    <glyph glyph-name="radioactive" unicode="&#x2622;" horiz-adv-x="837" 
d="M418 432q32 0 55 -24.5t23 -56.5t-23 -55t-55 -23t-56 22.5t-24 55.5q0 34 23.5 57.5t56.5 23.5zM469 260l100 -171q-79 -41 -154 -41q-81 0 -148 42l98 170q30 -14 54 -14q20 0 50 14zM265 614l99 -172q-46 -28 -52 -91h-197q0 86 36 149t114 114zM469 444l100 171
q72 -40 112 -108.5t40 -155.5h-197q-6 62 -55 93zM416 684q-135 0 -232.5 -98.5t-97.5 -234.5q0 -139 98 -235.5t236 -96.5q132 0 230.5 97.5t98.5 226.5q0 151 -100 246t-233 95zM418 -17q-154 0 -261 107t-107 261q0 90 44 173t130 137.5t192 54.5q157 0 264 -104
t107 -256q0 -155 -107 -264t-262 -109z" />
    <glyph glyph-name="biohazard" unicode="&#x2623;" horiz-adv-x="856" 
d="M553 462q-13 -27 -37 -43q-44 30 -86 30q-41 0 -89 -30q-23 14 -37 43q64 43 124 43q64 0 125 -43zM502 120q-15 27 -18 52q88 44 88 124q0 17 -1 26q17 10 54 10q4 -16 4 -37q0 -54 -33.5 -101t-93.5 -74zM351 120q-56 23 -90.5 71.5t-34.5 104.5q0 21 4 38h12
q22 -2 42 -12v-30q0 -76 88 -120q-5 -32 -21 -52zM272 531q0 -67 38 -107t111 -49v-22q-42 -10 -42 -46q0 -7 4 -19l-19 -10q-60 72 -133 72q-58 0 -105 -45t-47 -104q0 -21 6 -56l-11 -5q-19 57 -19 101q0 138 156 189q0 125 45.5 186.5t146.5 80.5l5 -15
q-136 -39 -136 -151zM583 533q0 109 -118 148l5 16q177 -39 177 -232q0 -21 -1 -33q154 -61 154 -203q0 -45 -18 -96l-13 4q8 43 8 65q0 60 -45.5 102t-110.5 42q-75 0 -127 -71l-23 13q3 10 3 20q0 34 -39 45v22q72 9 110 49.5t38 108.5zM428 53q-69 -53 -155 -53
q-55 0 -94.5 19t-77.5 69l11 8q68 -60 117 -60q66 0 112.5 45.5t46.5 110.5q0 38 -18 71l22 13q12 -18 38 -18q18 0 33 17l23 -12q-17 -41 -17 -72q0 -61 45 -106.5t105 -45.5q67 0 122 54l12 -8q-36 -49 -75 -67t-96 -18q-92 0 -154 53z" />
    <glyph glyph-name="telephonelocation" unicode="&#x2706;" horiz-adv-x="432" 
d="M268 709v-208q-26 0 -36 -37.5t-10 -125.5q0 -42 11 -93.5t35 -55.5v-201q-13 0 -30.5 8t-41.5 33t-43.5 62.5t-33.5 104.5t-14 152t14 152.5t33 104.5t43.5 62t42 33t30.5 9zM341 -12h-60v201h60q20 0 20 -20v-160q0 -21 -20 -21zM341 501h-60v208h60q7 0 13.5 -6.5
t6.5 -13.5v-163q0 -25 -20 -25z" />
    <glyph glyph-name="envelope" unicode="&#x2709;" horiz-adv-x="1070" 
d="M124 104l229 226l-229 228v-454zM939 566l-227 -229l227 -227v456zM393 280l-224 -216h726l-222 224l-143 -144zM896 610h-734l368 -371zM64 671h941v-671h-941v671z" />
    <glyph glyph-name="checkmark" unicode="&#x2713;" horiz-adv-x="764" 
d="M741 673l15 -17q-95 -72 -227.5 -277.5t-208.5 -366.5q-72 -15 -101 -32q-25 108 -73 234.5t-82 141.5q41 37 101 37q27 0 67 -85.5t50 -173.5q85 147 215.5 306t243.5 233z" />
    <glyph glyph-name="heavymultiplicationx" unicode="&#x2716;" horiz-adv-x="742" 
d="M543 344l174 -172l-173 -174l-173 175l-173 -175l-173 174l175 172l-175 172l173 174l173 -174l173 174l173 -174z" />
    <glyph glyph-name="zero.text" unicode="&#xe000;" 
d="M319 643h-19q-123 0 -123 -138v-276q0 -72 29.5 -104t88.5 -32h29q55 0 87 35.5t32 100.5v276q0 138 -124 138zM285 749h49q55 0 97.5 -13t78 -43t54.5 -86t19 -136v-200q0 -156 -65 -219.5t-184 -63.5h-49q-116 0 -182.5 60t-66.5 212v201q0 159 64 223.5t185 64.5z" />
    <glyph glyph-name="one.text" unicode="&#xe001;" horiz-adv-x="553" 
d="M515 0h-445v105h155v500h-135v75l117 45q28 11 54 11h92v-631h162v-105z" />
    <glyph glyph-name="two.text" unicode="&#xe002;" horiz-adv-x="590" 
d="M251 638h-217v88q116 23 259 23q129 0 185.5 -54.5t56.5 -155.5q0 -56 -25 -103.5t-82 -102.5l-236 -224l2 -4h347v-105h-526v100l307 299q73 71 73 136q0 57 -29.5 80t-114.5 23z" />
    <glyph glyph-name="three.text" unicode="&#xe003;" horiz-adv-x="590" 
d="M352 625l-3 5h-327v106h504v-105l-232 -178l64 -14q90 -20 137 -64t47 -142q0 -245 -258 -245q-148 0 -264 23v87h256q130 0 130 128q0 56 -24 78t-95 37l-154 31v84z" />
    <glyph glyph-name="four.text" unicode="&#xe004;" 
d="M598 164h-82v-164h-124v164h-368v101l277 471h137l-274 -463h228v167h124v-167h82v-109z" />
    <glyph glyph-name="five.text" unicode="&#xe005;" horiz-adv-x="590" 
d="M527 735v-107h-317l-24 -150l186 -28q187 -29 187 -216q0 -245 -257 -245q-141 0 -257 23v87h252q67 0 97.5 29.5t30.5 98.5q0 62 -24 85.5t-95 34.5l-215 36q-38 7 -32 46l49 306h419z" />
    <glyph glyph-name="six.text" unicode="&#xe006;" 
d="M442 753l35 -91l-134 -62q-126 -59 -147 -164q79 15 134 15q139 0 201 -52t62 -164q0 -246 -265 -246q-88 0 -144.5 19.5t-85 61t-38.5 90t-10 121.5q0 93 16.5 163t46.5 119t80 85.5t108 60t141 44.5zM459 222q0 67 -25 95t-92 28h-154q-1 -27 -1 -78q0 -95 25.5 -135
t110.5 -40q60 0 98 30t38 100z" />
    <glyph glyph-name="seven.text" unicode="&#xe007;" horiz-adv-x="571" 
d="M9 631v105h522v-95l-324 -641h-139l319 631h-378z" />
    <glyph glyph-name="eight.text" unicode="&#xe008;" 
d="M310 -13q-64 0 -112 10t-87.5 33.5t-60 66.5t-20.5 106q0 129 99 185q-34 26 -56.5 69.5t-22.5 93.5q0 198 260 198q117 0 188.5 -46t71.5 -152q0 -46 -23.5 -91t-54.5 -72q97 -52 97 -179q0 -111 -72 -166.5t-207 -55.5zM311 88q81 0 111.5 33t30.5 87q0 60 -31 88
t-112 28q-76 0 -110 -30t-34 -88q0 -59 30 -88.5t115 -29.5zM312 642q-75 0 -101.5 -28.5t-26.5 -82.5q0 -53 40 -112q44 7 85 7q47 0 84 -6q43 48 43 111q0 53 -27 82t-97 29z" />
    <glyph glyph-name="nine.text" unicode="&#xe009;" 
d="M186 -18l-35 91l134 62q124 57 145 167q-79 -15 -134 -15q-139 0 -201 52t-62 164q0 246 265 246q84 0 140.5 -20t85.5 -60.5t40.5 -90t11.5 -121.5q0 -93 -16.5 -163t-46 -120t-79 -87t-108 -60.5t-140.5 -44.5zM303 646q-60 0 -98 -30t-38 -100q0 -68 24 -95.5
t90 -27.5h157q1 32 1 78q0 95 -25.5 135t-110.5 40z" />
    <glyph glyph-name="numbersign.text" unicode="&#xe00a;" 
d="M590 432h-108l-31 -139h99v-76h-116l-47 -217h-86l46 217h-123l-46 -217h-88l47 217h-85v76h102l31 139h-95v75h111l42 186h86l-41 -186h123l41 186h86l-41 -186h93v-75zM272 432l-30 -139h123l29 139h-122z" />
    <glyph glyph-name="dollar.text" unicode="&#xe00b;" 
d="M257 725v95h78v-95q110 -6 178 -17v-91h-218q-95 0 -95 -76q0 -14 7.5 -26.5t16.5 -20.5t30 -19t33 -16.5t41 -17.5l35 -15q7 -3 33 -15t34 -18l30 -19q21 -13 30 -24l22 -27q13 -16 18.5 -32t10.5 -37.5t5 -44.5q0 -183 -211 -198v-94h-78v93q-115 4 -186 18v91h242
q53 0 79.5 21.5t26.5 70.5q0 39 -36.5 67.5t-105.5 58.5q-10 5 -35.5 15.5t-37.5 16t-34 17t-33.5 20.5t-27 23.5t-23.5 29.5t-13.5 35t-5.5 42q0 95 54 139.5t136 49.5z" />
    <glyph glyph-name="euro.text" unicode="&#xe00c;" 
d="M50 346h450v-84h-265q1 -91 35 -123t129 -32h174v-86q-117 -22 -219 -22q-55 0 -95.5 11t-75.5 39t-56 81t-27 132h-50v84zM500 406h-450v84h57q10 73 34 123t61.5 76.5t78.5 37t96 10.5q70 0 189 -18v-89h-161q-88 0 -125.5 -32t-42.5 -108h263v-84z" />
    <glyph glyph-name="florin.text" unicode="&#xe00d;" horiz-adv-x="525" 
d="M190 341h-119v94h131l13 103q4 35 9 58t16.5 50t29 42.5t47.5 26t71 10.5q74 0 128 -19v-87h-81q-53 0 -70 -17.5t-23 -64.5l-12 -102h146v-94h-158l-28 -264q-10 -93 -51.5 -142.5t-143.5 -49.5q-52 0 -110 19v87h85q52 0 67 17t21 65z" />
    <glyph glyph-name="sterling.text" unicode="&#xe00e;" 
d="M527 625h-186q-53 0 -78.5 -27.5t-25.5 -85.5q0 -38 13 -100h226v-84h-209q6 -36 6 -80q-2 -95 -43 -143h330v-105h-500v94q87 48 87 148q0 46 -8 86h-77v84h61q-15 77 -15 107q0 213 219 213q101 0 200 -15v-92z" />
    <glyph glyph-name="cent.text" unicode="&#xe00f;" 
d="M302 22v100q-48 1 -82 11t-63.5 35.5t-44 75.5t-14.5 125q0 81 14.5 136t43.5 84t63.5 42t82.5 15v103h78v-103q69 -4 136 -14v-92h-150q-77 0 -105 -25t-28 -95v-76q0 -70 26 -93t103 -23h159v-87q-60 -13 -141 -18v-101h-78z" />
    <glyph glyph-name="yen.text" unicode="&#xe010;" 
d="M82 206h467v-87h-167v-119h-134v119h-166v87zM549 266h-467v87h122l-199 383h140l169 -348l169 348h132l-191 -383h125v-87z" />
    <glyph glyph-name="zero.taboldstyle" unicode="&#xe024;" 
d="M320 446h-21q-109 0 -109 -122v-111q0 -64 26 -92.5t78 -28.5h31q49 0 77 31.5t28 89.5v111q0 122 -110 122zM284 554h51q109 0 171.5 -58t62.5 -202v-44q0 -146 -61 -205t-173 -59h-51q-52 0 -92 11.5t-73.5 38.5t-51 78.5t-17.5 125.5v45q0 148 60 208.5t174 60.5z" />
    <glyph glyph-name="one.taboldstyle" unicode="&#xe025;" 
d="M532 0h-445v105h159v305h-135v75l117 45q28 11 54 11h92v-436h158v-105z" />
    <glyph glyph-name="two.taboldstyle" unicode="&#xe026;" 
d="M315 442h-255v89q142 22 242 22q123 0 172.5 -40t49.5 -115q0 -39 -19 -72t-66 -69l-199 -152h297v-105h-502v96l313 239q33 25 33 58q0 49 -66 49z" />
    <glyph glyph-name="three.taboldstyle" unicode="&#xe027;" 
d="M333 432l-1 3h-296v105h475v-99l-211 -169l52 -11q84 -19 129 -60.5t45 -133.5q0 -229 -243 -229q-142 0 -249 22v87h241q115 0 115 113q0 50 -22 70.5t-83 32.5l-147 30v80z" />
    <glyph glyph-name="four.taboldstyle" unicode="&#xe028;" 
d="M580 0h-74v-152h-126v152h-340v95l258 445h141l-252 -434h193v161h126v-161h74v-106z" />
    <glyph glyph-name="five.taboldstyle" unicode="&#xe029;" 
d="M531 540v-107h-295l-22 -138l166 -29q176 -31 176 -198q0 -230 -242 -230q-143 0 -250 22v87h246q59 0 86 26.5t27 87.5q0 47 -22 69t-84 33l-197 37q-40 7 -34 48l46 292h399z" />
    <glyph glyph-name="six.taboldstyle" unicode="&#xe02a;" 
d="M424 701l34 -90l-128 -59q-56 -26 -86 -59t-43 -82q68 11 117 11q130 0 188.5 -48t58.5 -153q0 -231 -249 -231q-82 0 -135.5 18.5t-80 57t-36 83.5t-9.5 113q0 86 15.5 151t44 111t75.5 80t102 56t132 41zM432 208q0 59 -22.5 84.5t-80.5 25.5h-136q-1 -24 -1 -69
q0 -85 22.5 -120.5t96.5 -35.5q121 0 121 115z" />
    <glyph glyph-name="seven.taboldstyle" unicode="&#xe02b;" 
d="M44 434v106h491v-93l-301 -599h-139l293 586h-344z" />
    <glyph glyph-name="eight.taboldstyle" unicode="&#xe02c;" 
d="M309 -12q-124 0 -193 45t-69 158q0 120 88 170q-70 61 -70 149q0 187 244 187q245 0 245 -187q0 -80 -68 -148q46 -29 66 -74.5t20 -91.5q0 -104 -68 -156t-195 -52zM310 89q72 0 99 29t27 77q0 53 -28 78t-99 25q-127 0 -127 -104q0 -52 27 -78.5t101 -26.5zM311 591
q-66 0 -89 -25.5t-23 -72.5t33 -98q38 5 76 5q45 0 76 -4q36 41 36 97q0 47 -23.5 72.5t-85.5 25.5z" />
    <glyph glyph-name="nine.taboldstyle" unicode="&#xe02d;" 
d="M198 -162l-36 92l128 60q58 27 86.5 59t42.5 83q-63 -12 -117 -12q-131 0 -189 48.5t-58 154.5q0 230 249 230q79 0 131.5 -18.5t80.5 -56.5t38.5 -84.5t10.5 -113.5q0 -107 -22 -181.5t-71 -124.5t-113 -80.5t-161 -55.5zM308 451q-53 0 -86.5 -27t-33.5 -89
q0 -60 21 -85t79 -25h139q1 29 1 68q0 85 -22.5 121.5t-97.5 36.5z" />
    <glyph glyph-name="numbersign.taboldstyle" unicode="&#xe02e;" 
d="M563 398h-101l-27 -121h90v-77h-107l-43 -200h-89l42 200h-104l-41 -200h-91l42 200h-77v77h94l14 61l14 60h-86v77h103l38 170h89l-37 -170h103l37 170h89l-37 -170h85v-77zM269 398l-26 -121h103l25 121h-102z" />
    <glyph glyph-name="dollar.taboldstyle" unicode="&#xe02f;" 
d="M259 675v88h82v-88q104 -6 163 -17v-90h-205q-83 0 -83 -66q0 -10 3.5 -18.5t13.5 -16.5l16 -14q7 -6 25 -14.5t26 -11.5t31 -13l59 -26q19 -8 52.5 -29t49.5 -40.5t29.5 -51.5t13.5 -71q0 -169 -194 -186v-86h-82v85q-103 4 -171 18v91h227q46 0 69.5 18.5t23.5 61.5
q0 35 -37 62t-119 62q-38 16 -61 28t-51 33t-42 49.5t-14 64.5q0 87 49.5 129.5t125.5 48.5z" />
    <glyph glyph-name="euro.taboldstyle" unicode="&#xe030;" 
d="M64 323h424v-82h-243q0 -79 30.5 -106.5t115.5 -27.5h165v-86q-113 -22 -207 -22q-52 0 -90 10t-71 36t-52.5 75t-24.5 121h-47v82zM488 377h-424v82h54q9 68 31.5 114t57 70t73.5 33.5t91 9.5q86 0 178 -16v-90h-153q-76 0 -110.5 -28.5t-39.5 -92.5h242v-82z" />
    <glyph glyph-name="florin.taboldstyle" unicode="&#xe031;" 
d="M238 314h-109v95h122l11 90q5 40 12.5 67.5t24.5 54.5t49 40.5t78 13.5q73 0 123 -18v-87h-80q-46 0 -62 -16t-20 -56l-9 -89h134v-95h-145q-10 -102 -26 -239q-10 -88 -49.5 -134.5t-135.5 -46.5q-49 0 -106 19v87h83q45 0 58 15t18 56z" />
    <glyph glyph-name="sterling.taboldstyle" unicode="&#xe032;" 
d="M514 575h-176q-47 0 -69 -24t-22 -76q0 -36 11 -88h210v-85h-192q5 -35 5 -70q-2 -81 -35 -127h299v-105h-470v91q80 46 80 136q0 39 -7 75h-71v85h54q-12 63 -12 95q0 95 51 147.5t155 52.5q78 0 189 -15v-92z" />
    <glyph glyph-name="cent.taboldstyle" unicode="&#xe033;" 
d="M298 -11v92q-44 1 -76 11t-58.5 34.5t-40 71t-13.5 115.5q0 74 13.5 124.5t40 78.5t58.5 40.5t76 14.5v95h81v-95q73 -5 125 -14v-91h-143q-67 0 -92 -22.5t-25 -84.5v-70q0 -62 23 -82.5t91 -20.5h151v-86q-50 -12 -130 -18v-93h-81z" />
    <glyph glyph-name="yen.taboldstyle" unicode="&#xe034;" 
d="M95 195h440v-85h-154v-110h-133v110h-153v85zM535 247h-440v85h111l-183 353h138l152 -314l153 314h131l-176 -353h114v-85z" />
    <glyph glyph-name="zero.textoldstyle" unicode="&#xe048;" 
d="M320 446h-21q-109 0 -109 -122v-111q0 -64 26 -92.5t78 -28.5h31q49 0 77 31.5t28 89.5v111q0 122 -110 122zM284 554h51q109 0 171.5 -58t62.5 -202v-44q0 -146 -61 -205t-173 -59h-51q-52 0 -92 11.5t-73.5 38.5t-51 78.5t-17.5 125.5v45q0 148 60 208.5t174 60.5z" />
    <glyph glyph-name="one.textoldstyle" unicode="&#xe049;" horiz-adv-x="508" 
d="M482 0h-445v105h159v305h-135v75l117 45q28 11 54 11h92v-436h158v-105z" />
    <glyph glyph-name="two.textoldstyle" unicode="&#xe04a;" horiz-adv-x="552" 
d="M293 442h-255v89q142 22 242 22q123 0 172.5 -40t49.5 -115q0 -39 -19 -72t-66 -69l-199 -152h297v-105h-502v96l313 239q33 25 33 58q0 49 -66 49z" />
    <glyph glyph-name="three.textoldstyle" unicode="&#xe04b;" horiz-adv-x="552" 
d="M303 432l-1 3h-296v105h475v-99l-211 -169l52 -11q84 -19 129 -60.5t45 -133.5q0 -229 -243 -229q-142 0 -249 22v87h241q115 0 115 113q0 50 -22 70.5t-83 32.5l-147 30v80z" />
    <glyph glyph-name="four.textoldstyle" unicode="&#xe04c;" 
d="M580 0h-74v-152h-126v152h-340v95l258 445h141l-252 -434h193v161h126v-161h74v-106z" />
    <glyph glyph-name="five.textoldstyle" unicode="&#xe04d;" horiz-adv-x="575" 
d="M501 540v-107h-295l-22 -138l166 -29q176 -31 176 -198q0 -230 -242 -230q-143 0 -250 22v87h246q59 0 86 26.5t27 87.5q0 47 -22 69t-84 33l-197 37q-40 7 -34 48l46 292h399z" />
    <glyph glyph-name="six.textoldstyle" unicode="&#xe04e;" 
d="M424 701l34 -90l-128 -59q-56 -26 -86 -59t-43 -82q68 11 117 11q130 0 188.5 -48t58.5 -153q0 -231 -249 -231q-82 0 -135.5 18.5t-80 57t-36 83.5t-9.5 113q0 86 15.5 151t44 111t75.5 80t102 56t132 41zM432 208q0 59 -22.5 84.5t-80.5 25.5h-136q-1 -24 -1 -69
q0 -85 22.5 -120.5t96.5 -35.5q121 0 121 115z" />
    <glyph glyph-name="seven.textoldstyle" unicode="&#xe04f;" horiz-adv-x="538" 
d="M10 434v106h491v-93l-301 -599h-139l293 586h-344z" />
    <glyph glyph-name="eight.textoldstyle" unicode="&#xe050;" 
d="M309 -12q-124 0 -193 45t-69 158q0 120 88 170q-70 61 -70 149q0 187 244 187q245 0 245 -187q0 -80 -68 -148q46 -29 66 -74.5t20 -91.5q0 -104 -68 -156t-195 -52zM310 89q72 0 99 29t27 77q0 53 -28 78t-99 25q-127 0 -127 -104q0 -52 27 -78.5t101 -26.5zM311 591
q-66 0 -89 -25.5t-23 -72.5t33 -98q38 5 76 5q45 0 76 -4q36 41 36 97q0 47 -23.5 72.5t-85.5 25.5z" />
    <glyph glyph-name="nine.textoldstyle" unicode="&#xe051;" 
d="M198 -162l-36 92l128 60q58 27 86.5 59t42.5 83q-63 -12 -117 -12q-131 0 -189 48.5t-58 154.5q0 230 249 230q79 0 131.5 -18.5t80.5 -56.5t38.5 -84.5t10.5 -113.5q0 -107 -22 -181.5t-71 -124.5t-113 -80.5t-161 -55.5zM308 451q-53 0 -86.5 -27t-33.5 -89
q0 -60 21 -85t79 -25h139q1 29 1 68q0 85 -22.5 121.5t-97.5 36.5z" />
    <glyph glyph-name="numbersign.textoldstyle" unicode="&#xe052;" 
d="M563 398h-101l-27 -121h90v-77h-107l-43 -200h-89l42 200h-104l-41 -200h-91l42 200h-77v77h94l14 61l14 60h-86v77h103l38 170h89l-37 -170h103l37 170h89l-37 -170h85v-77zM269 398l-26 -121h103l25 121h-102z" />
    <glyph glyph-name="dollar.textoldstyle" unicode="&#xe053;" horiz-adv-x="567" 
d="M239 675v88h82v-88q104 -6 163 -17v-90h-205q-83 0 -83 -66q0 -10 3.5 -18.5t13.5 -16.5l16 -14q7 -6 25 -14.5t26 -11.5t31 -13l59 -26q19 -8 52.5 -29t49.5 -40.5t29.5 -51.5t13.5 -71q0 -169 -194 -186v-86h-82v85q-103 4 -171 18v91h227q46 0 69.5 18.5t23.5 61.5
q0 35 -37 62t-119 62q-38 16 -61 28t-51 33t-42 49.5t-14 64.5q0 87 49.5 129.5t125.5 48.5z" />
    <glyph glyph-name="euro.textoldstyle" unicode="&#xe054;" 
d="M64 323h424v-82h-243q0 -79 30.5 -106.5t115.5 -27.5h165v-86q-113 -22 -207 -22q-52 0 -90 10t-71 36t-52.5 75t-24.5 121h-47v82zM488 377h-424v82h54q9 68 31.5 114t57 70t73.5 33.5t91 9.5q86 0 178 -16v-90h-153q-76 0 -110.5 -28.5t-39.5 -92.5h242v-82z" />
    <glyph glyph-name="florin.textoldstyle" unicode="&#xe055;" horiz-adv-x="538" 
d="M198 314h-109v95h122l11 90q5 40 12.5 67.5t24.5 54.5t49 40.5t78 13.5q73 0 123 -18v-87h-80q-46 0 -62 -16t-20 -56l-9 -89h134v-95h-145q-10 -102 -26 -239q-10 -88 -49.5 -134.5t-135.5 -46.5q-49 0 -106 19v87h83q45 0 58 15t18 56z" />
    <glyph glyph-name="sterling.textoldstyle" unicode="&#xe056;" 
d="M514 575h-176q-47 0 -69 -24t-22 -76q0 -36 11 -88h210v-85h-192q5 -35 5 -70q-2 -81 -35 -127h299v-105h-470v91q80 46 80 136q0 39 -7 75h-71v85h54q-12 63 -12 95q0 95 51 147.5t155 52.5q78 0 189 -15v-92z" />
    <glyph glyph-name="cent.textoldstyle" unicode="&#xe057;" horiz-adv-x="545" 
d="M268 -11v92q-44 1 -76 11t-58.5 34.5t-40 71t-13.5 115.5q0 74 13.5 124.5t40 78.5t58.5 40.5t76 14.5v95h81v-95q73 -5 125 -14v-91h-143q-67 0 -92 -22.5t-25 -84.5v-70q0 -62 23 -82.5t91 -20.5h151v-86q-50 -12 -130 -18v-93h-81z" />
    <glyph glyph-name="yen.textoldstyle" unicode="&#xe058;" 
d="M95 195h440v-85h-154v-110h-133v110h-153v85zM535 247h-440v85h111l-183 353h138l152 -314l153 314h131l-176 -353h114v-85z" />
    <glyph glyph-name="percent.text" unicode="&#xe059;" horiz-adv-x="851" 
d="M212 600h-5q-30 0 -45.5 -14t-15.5 -50v-53q0 -36 14.5 -51.5t44.5 -15.5h6q58 0 58 67v53q0 36 -14 50t-43 14zM194 686h27q71 0 111 -36.5t40 -127.5v-23q0 -166 -151 -166h-27q-73 0 -112 32.5t-39 127.5v22q0 171 151 171zM626 353h26q70 0 110.5 -36.5t40.5 -127.5
v-23q0 -166 -151 -166h-26q-74 0 -113 32t-39 127v23q0 94 40.5 132.5t111.5 38.5zM642 268h-4q-61 0 -61 -64v-56q0 -35 14.5 -50t43.5 -15h6q28 0 44 17t16 48v56q0 64 -59 64zM591 682l-261 -682h-79l262 682h78z" />
    <glyph glyph-name="perthousand.text" unicode="&#xe05a;" horiz-adv-x="1221" 
d="M210 600h-4q-30 0 -44.5 -14t-14.5 -50v-54q0 -36 14.5 -51t44.5 -15h6q58 0 58 66v54q0 36 -14.5 50t-45.5 14zM195 686h27q71 0 111 -36.5t40 -127.5v-23q0 -166 -151 -166h-27q-73 0 -112 32.5t-39 127.5v22q0 171 151 171zM591 682l-261 -682h-79l262 682h78z
M641 267h-4q-30 0 -44.5 -14t-14.5 -50v-54q0 -36 14.5 -51t44.5 -15h6q58 0 58 66v54q0 36 -14.5 50t-45.5 14zM626 353h27q71 0 111 -36.5t40 -127.5v-23q0 -166 -151 -166h-27q-73 0 -112 32.5t-39 127.5v22q0 171 151 171zM1007 267h-4q-30 0 -44.5 -14t-14.5 -50v-54
q0 -36 14.5 -51t44.5 -15h6q58 0 58 66v54q0 36 -14.5 50t-45.5 14zM992 353h27q71 0 111 -36.5t40 -127.5v-23q0 -166 -151 -166h-27q-73 0 -112 32.5t-39 127.5v22q0 171 151 171z" />
    <glyph glyph-name="i.dot" unicode="&#xe096;" horiz-adv-x="269" 
d="M200 611h-131v126h131v-126zM199 0h-129v540h129v-540z" />
    <glyph glyph-name="R.alt" unicode="&#xe0c8;" horiz-adv-x="704" 
d="M343 270v92q48 14 82 30.5t61.5 51.5t27.5 82q0 44 -27.5 75.5t-92.5 31.5h-182v-633h-137v730q148 20 302 20q277 0 277 -228q0 -152 -170 -235l203 -287h-163z" />
    <glyph glyph-name="uniE0C8" unicode="&#xe0c9;" horiz-adv-x="704" 
d="M498 869l-207 -88l-46 71l194 121zM343 270v92q48 14 82 30.5t61.5 51.5t27.5 82q0 44 -27.5 75.5t-92.5 31.5h-182v-633h-137v730q148 20 302 20q277 0 277 -228q0 -152 -170 -235l203 -287h-163z" />
    <glyph glyph-name="uniE0C9" unicode="&#xe0ca;" horiz-adv-x="704" 
d="M424 -31v-77q0 -52 -21 -89t-80 -88l-52 28l53 103l-33 10v113h133zM343 270v92q48 14 82 30.5t61.5 51.5t27.5 82q0 44 -27.5 75.5t-92.5 31.5h-182v-633h-137v730q148 20 302 20q277 0 277 -228q0 -152 -170 -235l203 -287h-163z" />
    <glyph glyph-name="uniE0CA" unicode="&#xe0cb;" horiz-adv-x="704" 
d="M488 967l49 -53l-143 -133h-88l-145 135l43 52l145 -85zM343 270v92q48 14 82 30.5t61.5 51.5t27.5 82q0 44 -27.5 75.5t-92.5 31.5h-182v-633h-137v730q148 20 302 20q277 0 277 -228q0 -152 -170 -235l203 -287h-163z" />
    <glyph glyph-name="Q.alt" unicode="&#xe0e1;" horiz-adv-x="772" 
d="M362 750h45q51 0 92.5 -9t81 -34.5t66.5 -67t43.5 -110.5t16.5 -160q0 -344 -238 -377l37 -42q24 -28 56 -28q8 0 13 1l107 14l15 -82q-101 -43 -158 -43q-80 0 -135 70l-85 108q-57 4 -99.5 22t-79 57t-56 111.5t-19.5 175.5q0 116 23.5 196.5t66.5 122t93 58.5t114 17z
M395 635h-8q-93 0 -136 -36t-43 -134v-191q0 -99 38.5 -134.5t125.5 -35.5h32q81 0 122 39.5t41 130.5v191q0 99 -40.5 134.5t-131.5 35.5z" />
    <glyph glyph-name="U.alt" unicode="&#xe0fa;" horiz-adv-x="772" 
d="M558 736h139v-447q0 -156 -84.5 -228.5t-215.5 -72.5h-25q-65 0 -115 13t-93 43.5t-66 88.5t-23 140v463h138v-462q0 -99 37 -134.5t123 -35.5h21q81 0 122.5 40t41.5 130v462z" />
    <glyph glyph-name="uniE0FA" unicode="&#xe0fb;" horiz-adv-x="772" 
d="M441 781l-207 88l59 104l194 -121zM558 736h139v-447q0 -156 -84.5 -228.5t-215.5 -72.5h-25q-65 0 -115 13t-93 43.5t-66 88.5t-23 140v463h138v-462q0 -99 37 -134.5t123 -35.5h21q81 0 122.5 40t41.5 130v462z" />
    <glyph glyph-name="uniE0FB" unicode="&#xe0fc;" horiz-adv-x="772" 
d="M532 869l-207 -88l-46 71l194 121zM558 736h139v-447q0 -156 -84.5 -228.5t-215.5 -72.5h-25q-65 0 -115 13t-93 43.5t-66 88.5t-23 140v463h138v-462q0 -99 37 -134.5t123 -35.5h21q81 0 122.5 40t41.5 130v462z" />
    <glyph glyph-name="uniE0FC" unicode="&#xe0fd;" horiz-adv-x="772" 
d="M587 831l-49 -53l-139 84l-145 -85l-43 52l145 135h88zM558 736h139v-447q0 -156 -84.5 -228.5t-215.5 -72.5h-25q-65 0 -115 13t-93 43.5t-66 88.5t-23 140v463h138v-462q0 -99 37 -134.5t123 -35.5h21q81 0 122.5 40t41.5 130v462z" />
    <glyph glyph-name="uniE0FD" unicode="&#xe0fe;" horiz-adv-x="772" 
d="M344 811h-113v110h113v-110zM540 811h-113v110h113v-110zM558 736h139v-447q0 -156 -84.5 -228.5t-215.5 -72.5h-25q-65 0 -115 13t-93 43.5t-66 88.5t-23 140v463h138v-462q0 -99 37 -134.5t123 -35.5h21q81 0 122.5 40t41.5 130v462z" />
    <glyph glyph-name="uniE0FE" unicode="&#xe0ff;" horiz-adv-x="772" 
d="M480 796q-37 0 -96.5 20.5t-76.5 20.5l-56 -41l-44 32q17 49 45 75t61 26q29 0 89 -20t83 -20l56 43l44 -34q-15 -48 -42.5 -75t-62.5 -27zM558 736h139v-447q0 -156 -84.5 -228.5t-215.5 -72.5h-25q-65 0 -115 13t-93 43.5t-66 88.5t-23 140v463h138v-462
q0 -99 37 -134.5t123 -35.5h21q81 0 122.5 40t41.5 130v462z" />
    <glyph glyph-name="uniE0FF" unicode="&#xe100;" horiz-adv-x="772" 
d="M205 819v94h367v-94h-367zM558 736h139v-447q0 -156 -84.5 -228.5t-215.5 -72.5h-25q-65 0 -115 13t-93 43.5t-66 88.5t-23 140v463h138v-462q0 -99 37 -134.5t123 -35.5h21q81 0 122.5 40t41.5 130v462z" />
    <glyph glyph-name="uniE100" unicode="&#xe101;" horiz-adv-x="772" 
d="M395 784q-138 0 -172 155l55 26q26 -50 53 -67.5t61 -17.5q37 0 63.5 16t55.5 67l53 -25q-39 -154 -169 -154zM558 736h139v-447q0 -156 -84.5 -228.5t-215.5 -72.5h-25q-65 0 -115 13t-93 43.5t-66 88.5t-23 140v463h138v-462q0 -99 37 -134.5t123 -35.5h21
q81 0 122.5 40t41.5 130v462z" />
    <glyph glyph-name="uniE101" unicode="&#xe102;" horiz-adv-x="772" 
d="M397 770q-49 0 -84 34t-35 81t35 81t84 34t82 -34t33 -81q0 -48 -34 -81.5t-81 -33.5zM397 930q-21 0 -34.5 -13.5t-13.5 -33.5t13 -34t35 -14q20 0 32.5 14t12.5 34t-12.5 33.5t-32.5 13.5zM558 736h139v-447q0 -156 -84.5 -228.5t-215.5 -72.5h-25q-65 0 -115 13
t-93 43.5t-66 88.5t-23 140v463h138v-462q0 -99 37 -134.5t123 -35.5h21q81 0 122.5 40t41.5 130v462z" />
    <glyph glyph-name="uniE102" unicode="&#xe103;" horiz-adv-x="772" 
d="M425 869l-207 -88l-46 71l194 121zM676 869l-207 -88l-46 71l194 121zM558 736h139v-447q0 -156 -84.5 -228.5t-215.5 -72.5h-25q-65 0 -115 13t-93 43.5t-66 88.5t-23 140v463h138v-462q0 -99 37 -134.5t123 -35.5h21q81 0 122.5 40t41.5 130v462z" />
    <glyph glyph-name="uniE103" unicode="&#xe104;" horiz-adv-x="772" 
d="M558 736h139v-447q0 -144 -72 -216.5t-188 -82.5q-62 -68 -62 -129q0 -27 18.5 -37t53.5 -10h91v-63q-59 -13 -140 -13q-71 0 -103.5 24.5t-32.5 77.5q0 82 90 149q-61 2 -108 16t-86.5 45t-61 87.5t-21.5 135.5v463h138v-462q0 -99 37 -134.5t123 -35.5h21
q81 0 122.5 40t41.5 130v462z" />
    <glyph glyph-name="slashedzero" unicode="&#xe23f;" 
d="M285 749h49q55 0 97.5 -13t78 -43t54.5 -86t19 -136v-200q0 -156 -65 -219.5t-184 -63.5h-49q-116 0 -182.5 60t-66.5 212v201q0 159 64 223.5t185 64.5zM443 229v276v3l-240 -380q28 -35 92 -35h29q55 0 87 35.5t32 100.5zM319 643h-19q-123 0 -123 -138v-266l233 372
q-31 32 -91 32z" />
    <glyph glyph-name="zero.numerator" unicode="&#xe2d0;" horiz-adv-x="403" 
d="M204 669h-12q-68 0 -68 -69v-159q0 -68 66 -68h18q31 0 48 17.5t17 50.5v159q0 69 -69 69zM183 750h31q78 0 122.5 -38t44.5 -132v-114q0 -96 -43.5 -134.5t-123.5 -38.5h-31q-78 0 -123 36.5t-45 129.5v116q0 96 43 135.5t125 39.5z" />
    <glyph glyph-name="one.numerator" unicode="&#xe2d1;" horiz-adv-x="403" 
d="M351 300h-302v80h99v268h-86v58l82 29q18 7 37 7h67v-362h103v-80z" />
    <glyph glyph-name="two.numerator" unicode="&#xe2d2;" horiz-adv-x="403" 
d="M168 666h-147v69q78 15 173 15q163 0 163 -131q0 -35 -16.5 -64t-53.5 -62l-128 -113h202v-80h-353v72l198 173q43 36 43 72q0 27 -16.5 38t-64.5 11z" />
    <glyph glyph-name="three.numerator" unicode="&#xe2d3;" horiz-adv-x="403" 
d="M205 658l-2 4h-184v80h339v-75l-133 -92l33 -7q56 -12 83 -38.5t27 -86.5q0 -150 -173 -150q-102 0 -177 14v69h171q74 0 74 63q0 26 -15.5 38.5t-52.5 18.5l-106 18v62z" />
    <glyph glyph-name="four.numerator" unicode="&#xe2d4;" horiz-adv-x="403" 
d="M391 394h-52v-94h-98v94h-232v70l180 278h109l-174 -266h117v97h98v-97h52v-82z" />
    <glyph glyph-name="five.numerator" unicode="&#xe2d5;" horiz-adv-x="403" 
d="M352 742v-81h-201q-2 -10 -7 -32.5t-7 -35.5l108 -16q128 -18 128 -133q0 -150 -173 -150q-98 0 -172 14v68h169q38 0 54.5 14.5t16.5 49.5q0 30 -13.5 42t-54.5 18l-135 20q-33 6 -28 38l32 184h283z" />
    <glyph glyph-name="six.numerator" unicode="&#xe2d6;" horiz-adv-x="403" 
d="M288 754l29 -68l-93 -40q-65 -29 -83 -73q38 5 70 5q93 0 134.5 -31.5t41.5 -101.5q0 -151 -177 -151q-59 0 -97 12t-57 37t-25.5 54t-6.5 74q0 69 16 117t52 80t81 51t115 35zM285 437q0 33 -14 47.5t-50 14.5h-92v-35q0 -49 15 -70.5t63 -21.5q78 0 78 65z" />
    <glyph glyph-name="seven.numerator" unicode="&#xe2d7;" horiz-adv-x="403" 
d="M17 662v80h351v-67l-210 -375h-110l202 362h-233z" />
    <glyph glyph-name="eight.numerator" unicode="&#xe2d8;" horiz-adv-x="403" 
d="M198 292q-89 0 -138 29.5t-49 105.5q0 68 55 107q-42 38 -42 92q0 124 174 124q175 0 175 -124q0 -49 -42 -91q54 -35 54 -106q0 -68 -48.5 -102.5t-138.5 -34.5zM199 370q80 0 80 59q0 29 -17.5 43t-63.5 14q-80 0 -80 -57q0 -30 16.5 -44.5t64.5 -14.5zM200 669
q-42 0 -56.5 -14t-14.5 -41q0 -26 20 -53q21 3 49 3q35 0 50 -2q20 23 20 52q0 26 -14.5 40.5t-53.5 14.5z" />
    <glyph glyph-name="nine.numerator" unicode="&#xe2d9;" horiz-adv-x="403" 
d="M115 287l-30 69l94 40q64 27 82 74q-40 -5 -71 -5q-93 0 -135 32t-42 102q0 151 178 151q108 0 146.5 -44t38.5 -133q0 -133 -61 -193.5t-200 -92.5zM117 606q0 -33 13.5 -47t50.5 -14h91v35q0 49 -15 70t-63 21q-77 0 -77 -65z" />
    <glyph glyph-name="parenleft.numerator" unicode="&#xe2da;" horiz-adv-x="235" 
d="M30 501q0 68 31.5 141t88.5 134l70 -44q-84 -112 -84 -233q0 -123 84 -238l-70 -43q-58 61 -89 137t-31 146z" />
    <glyph glyph-name="parenright.numerator" unicode="&#xe2db;" horiz-adv-x="235" 
d="M202 501q0 -69 -31 -145t-88 -138l-70 43q83 116 83 238t-84 233l70 44q57 -61 88.5 -134t31.5 -141z" />
    <glyph glyph-name="comma.numerator" unicode="&#xe2dc;" horiz-adv-x="168" 
d="M141 396v-63q0 -39 -17.5 -69.5t-64.5 -70.5l-47 27l39 76l-20 6v94h110z" />
    <glyph glyph-name="period.numerator" unicode="&#xe2dd;" horiz-adv-x="163" 
d="M25 300v96h111v-96h-111z" />
    <glyph glyph-name="zero.denominator" unicode="&#xe2f4;" horiz-adv-x="403" 
d="M204 369h-12q-68 0 -68 -69v-159q0 -68 66 -68h18q31 0 48 17.5t17 50.5v159q0 69 -69 69zM183 450h31q78 0 122.5 -38t44.5 -132v-114q0 -96 -43.5 -134.5t-123.5 -38.5h-31q-78 0 -123 36.5t-45 129.5v116q0 96 43 135.5t125 39.5z" />
    <glyph glyph-name="one.denominator" unicode="&#xe2f5;" horiz-adv-x="403" 
d="M351 0h-302v80h99v268h-86v58l82 29q18 7 37 7h67v-362h103v-80z" />
    <glyph glyph-name="two.denominator" unicode="&#xe2f6;" horiz-adv-x="403" 
d="M168 366h-147v69q78 15 173 15q163 0 163 -131q0 -35 -16.5 -64t-53.5 -62l-128 -113h202v-80h-353v72l198 173q43 36 43 72q0 27 -16.5 38t-64.5 11z" />
    <glyph glyph-name="three.denominator" unicode="&#xe2f7;" horiz-adv-x="403" 
d="M205 358l-2 4h-184v80h339v-75l-133 -92l33 -7q56 -12 83 -38.5t27 -86.5q0 -150 -173 -150q-102 0 -177 14v69h171q74 0 74 63q0 26 -15.5 38.5t-52.5 18.5l-106 18v62z" />
    <glyph glyph-name="four.denominator" unicode="&#xe2f8;" horiz-adv-x="403" 
d="M391 94h-52v-94h-98v94h-232v70l180 278h109l-174 -266h117v97h98v-97h52v-82z" />
    <glyph glyph-name="five.denominator" unicode="&#xe2f9;" horiz-adv-x="403" 
d="M352 442v-81h-201q-2 -10 -7 -32.5t-7 -35.5l108 -16q128 -18 128 -133q0 -150 -173 -150q-98 0 -172 14v68h169q38 0 54.5 14.5t16.5 49.5q0 30 -13.5 42t-54.5 18l-135 20q-33 6 -28 38l32 184h283z" />
    <glyph glyph-name="six.denominator" unicode="&#xe2fa;" horiz-adv-x="403" 
d="M288 454l29 -68l-93 -40q-65 -29 -83 -73q38 5 70 5q93 0 134.5 -31.5t41.5 -101.5q0 -151 -177 -151q-59 0 -97 12t-57 37t-25.5 54t-6.5 74q0 69 16 117t52 80t81 51t115 35zM285 137q0 33 -14 47.5t-50 14.5h-92v-35q0 -49 15 -70.5t63 -21.5q78 0 78 65z" />
    <glyph glyph-name="seven.denominator" unicode="&#xe2fb;" horiz-adv-x="403" 
d="M17 362v80h351v-67l-210 -375h-110l202 362h-233z" />
    <glyph glyph-name="eight.denominator" unicode="&#xe2fc;" horiz-adv-x="403" 
d="M198 -8q-89 0 -138 29.5t-49 105.5q0 68 55 107q-42 38 -42 92q0 124 174 124q175 0 175 -124q0 -49 -42 -91q54 -35 54 -106q0 -68 -48.5 -102.5t-138.5 -34.5zM199 70q80 0 80 59q0 29 -17.5 43t-63.5 14q-80 0 -80 -57q0 -30 16.5 -44.5t64.5 -14.5zM200 369
q-42 0 -56.5 -14t-14.5 -41q0 -26 20 -53q21 3 49 3q35 0 50 -2q20 23 20 52q0 26 -14.5 40.5t-53.5 14.5z" />
    <glyph glyph-name="nine.denominator" unicode="&#xe2fd;" horiz-adv-x="403" 
d="M115 -13l-30 69l94 40q64 27 82 74q-40 -5 -71 -5q-93 0 -135 32t-42 102q0 151 178 151q108 0 146.5 -44t38.5 -133q0 -133 -61 -193.5t-200 -92.5zM117 306q0 -33 13.5 -47t50.5 -14h91v35q0 49 -15 70t-63 21q-77 0 -77 -65z" />
    <glyph glyph-name="parenleft.denominator" unicode="&#xe2fe;" horiz-adv-x="235" 
d="M30 201q0 68 31.5 141t88.5 134l70 -44q-84 -112 -84 -233q0 -123 84 -238l-70 -43q-58 61 -89 137t-31 146z" />
    <glyph glyph-name="parenright.denominator" unicode="&#xe2ff;" horiz-adv-x="235" 
d="M202 201q0 -69 -31 -145t-88 -138l-70 43q83 116 83 238t-84 233l70 44q57 -61 88.5 -134t31.5 -141z" />
    <glyph glyph-name="comma.denominator" unicode="&#xe300;" horiz-adv-x="168" 
d="M141 96v-63q0 -39 -17.5 -69.5t-64.5 -70.5l-47 27l39 76l-20 6v94h110z" />
    <glyph glyph-name="period.denominator" unicode="&#xe301;" horiz-adv-x="163" 
d="M25 0v96h111v-96h-111z" />
    <glyph glyph-name="reverse" unicode="&#xe37d;" horiz-adv-x="898" 
d="M811 700v-702l-350 351zM432 700v-702l-351 351z" />
    <glyph glyph-name="fastforward" unicode="&#xe37e;" horiz-adv-x="898" 
d="M121 -1v702l350 -351zM501 -1v702l350 -351z" />
    <glyph glyph-name="one.back" unicode="&#xe37f;" horiz-adv-x="1000" 
d="M890 699v-702l-348 351zM513 699v-702l-349 351zM149 699v-702h-70v702h70z" />
    <glyph glyph-name="one.forward" unicode="&#xe380;" horiz-adv-x="1000" 
d="M908 698v-702h-69v702h69zM474 698l351 -351l-351 -351v702zM96 698l351 -351l-351 -351v702z" />
    <glyph glyph-name="pause" unicode="&#xe381;" horiz-adv-x="742" 
d="M580 702v-702h-140v702h140zM298 702v-702h-139v702h139z" />
    <glyph glyph-name="mute" unicode="&#xe382;" horiz-adv-x="506" 
d="M417 694v-697l-230 228h-123v241h123z" />
    <glyph glyph-name="lowervolume" unicode="&#xe383;" horiz-adv-x="724" 
d="M588 590q45 -43 68.5 -108t23.5 -135q0 -155 -97 -239q-13 -10 -23 -10q-15 0 -27 13t-12 29t14 27q67 52 67 178q0 58 -17 109.5t-48 80.5q-13 12 -13 27t12 27.5t27 12.5q13 0 25 -12zM416 -3l-229 228h-123v240h123l229 227v-695z" />
    <glyph glyph-name="volume" unicode="&#xe384;" horiz-adv-x="939" 
d="M500 567q0 17 13.5 30.5t30.5 13.5q16 0 27 -11q51 -49 78 -117.5t27 -142.5t-28 -139.5t-82 -109.5q-12 -10 -26 -10q-17 0 -30 13.5t-13 30.5q0 16 16 29q38 25 57 76t19 113t-19 115t-57 82q-13 12 -13 27zM641 677q0 16 13 28t30 12q15 0 29 -13q70 -64 110.5 -164
t40.5 -204q0 -105 -40.5 -198.5t-117.5 -154.5q-13 -10 -25 -10q-17 0 -30 12.5t-13 28.5q0 18 16 31q61 44 93 123t32 172q0 91 -32 174.5t-93 133.5q-13 12 -13 29zM416 -3l-230 228h-122v240h122l230 229v-697z" />
    <glyph glyph-name="increasevolume" unicode="&#xe385;" horiz-adv-x="1120" 
d="M600 616q51 -51 78 -124.5t27 -152.5t-28 -149t-82 -117q-13 -10 -26 -10q-17 0 -29.5 14t-12.5 31q0 20 16 30q37 28 56.5 83.5t19.5 120.5t-20 122.5t-57 88.5q-12 12 -12 30q0 17 13 30.5t31 13.5q15 0 26 -11zM737 729q74 -74 113 -178t39 -216t-40.5 -212
t-116.5 -166q-13 -10 -26 -10q-16 0 -29 13.5t-13 30.5t15 32q60 47 92.5 132t32.5 184q0 98 -32 187t-93 143q-13 12 -13 30q0 17 13 30t30 13q15 0 28 -13zM873 836q96 -94 147 -228t51 -277q0 -142 -52.5 -271.5t-149.5 -212.5q-13 -11 -25 -11q-16 0 -29 14.5t-13 32.5
t11 29q83 65 128 179t45 245q0 129 -44 247t-127 193q-13 16 -13 30q0 16 13 29.5t30 13.5q18 0 28 -13zM416 -3l-230 228h-122v240h122l230 229v-697z" />
    <glyph glyph-name="power" unicode="&#xe386;" horiz-adv-x="844" 
d="M425 759q19 0 33.5 -14.5t14.5 -33.5v-314q0 -19 -14.5 -33.5t-33.5 -14.5q-20 0 -34 13.5t-14 34.5v314q0 20 14 34t34 14zM789 361q0 -152 -107.5 -259.5t-259.5 -107.5q-153 0 -260.5 107.5t-107.5 259.5q0 102 53 181.5t103 79.5q19 0 31 -14.5t12 -30.5
q0 -23 -12 -35q-24 -23 -38.5 -39t-31.5 -55.5t-17 -84.5q0 -116 78 -196.5t190 -80.5t189.5 80.5t77.5 196.5q0 53 -22 96.5t-44 71.5t-22 45q0 19 17 33t33 14q44 0 91 -80t47 -182z" />
    <glyph glyph-name="telephoneline" unicode="&#xe387;" horiz-adv-x="802" 
d="M775 593l-22 -23l-116 115l23 23zM655 533q0 -22 -15 -37t-36 -15q-22 0 -37 15t-15 37q0 21 15 36t37 15q21 0 36 -15t15 -36zM572 382l-24 -23l-115 114l23 24zM446 323q0 -21 -14.5 -36t-36.5 -15q-21 0 -36 15t-15 36q0 22 15 37t36 15q22 0 36.5 -15t14.5 -37z
M661 131q-5 -35 -41 -81t-92 -65q-88 25 -177 87.5t-150 132.5t-101 133.5t-46 97.5q19 57 64 93.5t80 40.5q30 -18 64.5 -60.5t39.5 -90.5q-24 -35 -76 -57q8 -26 89.5 -109t136.5 -97q21 52 57 77q41 -2 90.5 -36.5t61.5 -65.5z" />
    <glyph glyph-name="networkline" unicode="&#xe388;" horiz-adv-x="1035" 
d="M766 252q0 -27 -20 -46.5t-47 -19.5t-46.5 19.5t-19.5 46.5t19.5 46.5t46.5 19.5t47 -19.5t20 -46.5zM583 252q0 -28 -19 -47t-47 -19t-47.5 19t-19.5 47t19.5 47t47.5 19t47 -19t19 -47zM400 252q0 -28 -19.5 -47t-47.5 -19t-47 19t-19 47t19 47t47 19t47.5 -19
t19.5 -47zM1010 253l-253 -253l-52 52l202 201l-196 194l52 52zM330 52l-52 -52l-253 253l247 246l52 -52l-195 -194z" />
    <glyph glyph-name="Circumflex" unicode="&#xf6c0;" horiz-adv-x="772" 
d="M578 831l-49 -53l-139 84l-145 -85l-43 52l145 135h88z" />
    <glyph glyph-name="commaaccent" unicode="&#xf6c3;" horiz-adv-x="699" 
d="M406 -51v-77q0 -52 -21 -89t-80 -88l-52 28l53 103l-33 10v113h133z" />
    <glyph glyph-name="afii10064" unicode="&#xf6c5;" horiz-adv-x="621" 
d="M182 483l-1 3q-62 33 -62 107q0 44 16 75t44 48t61 24.5t73 7.5q98 0 197 -16v-91h-193q-66 0 -66 -45q0 -26 22 -40.5t89 -41.5l29 -12q97 -39 136 -95.5t39 -160.5q0 -136 -63.5 -197t-171.5 -61h-40q-113 0 -174.5 56t-61.5 193q0 196 127 246zM328 406h-23
q-61 0 -88 -24.5t-27 -91.5v-85q0 -68 24 -92t81 -24h33q53 0 78.5 27t25.5 89v85q0 27 -6.5 45.5t-24.5 32t-30.5 20t-42.5 18.5z" />
    <glyph glyph-name="Acute" unicode="&#xf6c9;" horiz-adv-x="772" 
d="M556 869l-207 -88l-46 71l194 121z" />
    <glyph glyph-name="Caron" unicode="&#xf6ca;" horiz-adv-x="772" 
d="M529 967l49 -53l-143 -133h-88l-145 135l43 52l145 -85z" />
    <glyph glyph-name="Dieresis" unicode="&#xf6cb;" horiz-adv-x="772" 
d="M342 811h-113v110h113v-110zM538 811h-113v110h113v-110z" />
    <glyph glyph-name="Grave" unicode="&#xf6ce;" horiz-adv-x="772" 
d="M420 781l-207 88l59 104l194 -121z" />
    <glyph glyph-name="Hungarumlaut" unicode="&#xf6cf;" horiz-adv-x="772" 
d="M406 869l-207 -88l-46 71l194 121zM657 869l-207 -88l-46 71l194 121z" />
    <glyph glyph-name="Macron" unicode="&#xf6d0;" horiz-adv-x="772" 
d="M201 819v94h367v-94h-367z" />
    <glyph glyph-name="cyrBreve" unicode="&#xf6d1;" horiz-adv-x="772" 
d="M391 784q-138 0 -172 155l55 26q26 -50 53 -67.5t61 -17.5q37 0 63.5 16t55.5 67l53 -25q-39 -154 -169 -154z" />
    <glyph glyph-name="cyrbreve" unicode="&#xf6d4;" horiz-adv-x="605" 
d="M327 602q-146 0 -182 162l55 26q55 -92 124 -92q75 0 129 90l53 -25q-20 -78 -67 -119.5t-112 -41.5z" />
    </font>
</defs>
</svg>
